<svg width="434" height="332" viewBox="0 0 434 332" fill="none" xmlns="http://www.w3.org/2000/svg">
<path d="M430.651 233.979C429.329 232.533 401.519 202.478 362.232 187.336C374.959 166.178 382.292 141.395 382.292 114.923V89.3846C382.292 82.3326 376.6 76.6154 369.578 76.6154H344.148C320.118 76.6154 297.056 82.6178 276.458 94.1135C264.071 42.8007 227.867 5.63974 226.023 3.77373C223.636 1.35779 220.388 0 217 0C213.612 0 210.363 1.35779 207.975 3.77288C206.131 5.63889 169.928 42.8008 157.54 94.1126C136.943 82.6178 113.881 76.6154 89.8512 76.6154H64.4215C57.3996 76.6154 51.7067 82.3326 51.7067 89.3846V114.923C51.7067 141.395 59.0398 166.178 71.7682 187.337C32.481 202.478 4.67113 232.533 3.34879 233.98C-1.10564 238.852 -1.11751 246.334 3.32081 251.221C5.36875 253.476 54.1929 306.462 115.281 306.462C134.539 306.462 152.491 301.197 168.118 293.917C184.609 315.489 209.58 329.694 210.791 330.374C212.72 331.459 214.86 332 217 332C219.141 332 221.281 331.458 223.21 330.374C224.421 329.694 249.391 315.489 265.883 293.917C281.508 301.197 299.46 306.462 318.718 306.462C379.806 306.462 428.63 253.476 430.679 251.22C435.118 246.333 435.106 238.851 430.651 233.979ZM217.018 32.2576C230.717 49.4961 255.144 86.074 255.144 127.692C255.144 169.146 230.672 205.843 216.981 223.127C203.282 205.888 178.855 169.311 178.855 127.692C178.855 86.2383 203.327 49.5421 217.018 32.2576ZM115.281 280.923C78.9809 280.923 46.2656 256.184 31.0722 242.635C42.3054 232.647 63.0593 216.586 87.6371 208.811C111.577 235.513 145.546 252.972 183.524 255.146C163.674 269.671 139.828 280.923 115.281 280.923ZM77.1364 114.923V102.154H89.8512C112.831 102.154 134.713 108.877 153.566 121.624C153.475 123.633 153.425 125.656 153.425 127.692C153.425 170.484 174.173 207.623 190.096 229.827C127.674 229.031 77.1364 177.797 77.1364 114.923ZM217 304.183C210.195 299.639 199.132 291.446 190.601 281.284C201.767 273.925 210.789 266.329 216.999 260.591C223.209 266.329 232.23 273.925 243.396 281.284C234.866 291.447 223.8 299.642 217 304.183ZM280.574 127.692C280.574 125.656 280.524 123.633 280.433 121.624C299.287 108.877 321.168 102.154 344.148 102.154H356.863V114.923C356.863 177.797 306.325 229.031 243.903 229.827C259.826 207.623 280.574 170.484 280.574 127.692ZM318.718 280.923C292.076 280.923 267.597 267.582 250.558 255.141C288.504 252.947 322.439 235.494 346.363 208.811C370.959 216.592 391.724 232.671 402.948 242.653C387.804 256.206 355.184 280.923 318.718 280.923Z" fill="#6B0606" fill-opacity="0.03"/>
</svg>
