<svg width="27" height="26" viewBox="0 0 27 26" fill="none" xmlns="http://www.w3.org/2000/svg">
<rect y="2" width="24" height="24" rx="12" fill="white"/>
<path d="M6 4L3 8V22C3 22.5304 3.21071 23.0391 3.58579 23.4142C3.96086 23.7893 4.46957 24 5 24H19C19.5304 24 20.0391 23.7893 20.4142 23.4142C20.7893 23.0391 21 22.5304 21 22V8L18 4H6Z" stroke="black" stroke-width="2" stroke-linecap="round" stroke-linejoin="round"/>
<path d="M3 8H21" stroke="black" stroke-width="2" stroke-linecap="round" stroke-linejoin="round"/>
<path d="M16 12C16 13.0609 15.5786 14.0783 14.8284 14.8284C14.0783 15.5786 13.0609 16 12 16C10.9391 16 9.92172 15.5786 9.17157 14.8284C8.42143 14.0783 8 13.0609 8 12" stroke="black" stroke-width="2" stroke-linecap="round" stroke-linejoin="round"/>
<rect x="15.5" y="0.5" width="11" height="11" rx="5.5" fill="black"/>
<rect x="15.5" y="0.5" width="11" height="11" rx="5.5" stroke="white"/>
<path d="M21.0013 9C20.5803 8.9981 20.2205 8.87962 19.9221 8.64455C19.6236 8.40948 19.3953 8.0673 19.2372 7.61801C19.0791 7.16872 19 6.62749 19 5.99431C19 5.36303 19.0791 4.8237 19.2372 4.3763C19.3971 3.92891 19.6262 3.58768 19.9247 3.35261C20.225 3.11754 20.5838 3 21.0013 3C21.4188 3 21.7768 3.11848 22.0753 3.35545C22.3738 3.59052 22.602 3.93175 22.7602 4.37915C22.9201 4.82464 23 5.36303 23 5.99431C23 6.62938 22.9209 7.17156 22.7628 7.62085C22.6047 8.06825 22.3764 8.41043 22.0779 8.64739C21.7795 8.88246 21.4206 9 21.0013 9ZM21.0013 8.24076C21.3709 8.24076 21.6596 8.04834 21.8674 7.66351C22.0771 7.27867 22.1819 6.72228 22.1819 5.99431C22.1819 5.5109 22.1339 5.10237 22.038 4.76872C21.9438 4.43318 21.8079 4.17915 21.6302 4.00664C21.4544 3.83223 21.2447 3.74502 21.0013 3.74502C20.6336 3.74502 20.3449 3.93839 20.1352 4.32512C19.9256 4.71185 19.8199 5.26825 19.8181 5.99431C19.8181 6.47962 19.8652 6.89005 19.9594 7.22559C20.0553 7.55924 20.1912 7.81232 20.3671 7.98483C20.543 8.15545 20.7544 8.24076 21.0013 8.24076Z" fill="white"/>
</svg>
