<svg width="256" height="256" viewBox="0 0 256 256" fill="none" xmlns="http://www.w3.org/2000/svg">
<path d="M254.025 190.428C253.245 189.578 236.841 171.925 213.667 163.031C221.174 150.604 225.5 136.049 225.5 120.5V105.5C225.5 101.358 222.142 98 218 98H203C188.825 98 175.222 101.525 163.072 108.277C155.765 78.139 134.41 56.3125 133.322 55.2165C131.914 53.7975 129.998 53 128 53C126.001 53 124.085 53.7975 122.677 55.216C121.589 56.312 100.234 78.139 92.9268 108.277C80.7773 101.526 67.1743 98 52.9998 98H37.9998C33.8578 98 30.4998 101.358 30.4998 105.5V120.5C30.4998 136.049 34.8253 150.604 42.3333 163.032C19.1593 171.925 2.75532 189.578 1.97532 190.428C-0.652178 193.289 -0.659178 197.684 1.95882 200.555C3.16682 201.879 31.9663 233 67.9998 233C79.3593 233 89.9488 229.908 99.1663 225.632C108.894 238.303 123.623 246.645 124.337 247.045C125.475 247.682 126.738 248 128 248C129.263 248 130.525 247.682 131.663 247.045C132.377 246.645 147.106 238.303 156.834 225.632C166.051 229.908 176.64 233 188 233C224.033 233 252.833 201.879 254.041 200.554C256.659 197.684 256.652 193.289 254.025 190.428ZM128.011 71.9465C136.091 82.0715 150.5 103.556 150.5 128C150.5 152.348 136.065 173.901 127.989 184.053C119.908 173.928 105.5 152.445 105.5 128C105.5 103.652 119.935 82.0985 128.011 71.9465ZM67.9998 218C46.5878 218 27.2903 203.469 18.3283 195.512C24.9543 189.645 37.1963 180.212 51.6938 175.645C65.8153 191.329 85.8518 201.583 108.254 202.86C96.5453 211.391 82.4793 218 67.9998 218ZM45.4998 120.5V113H52.9998C66.5548 113 79.4618 116.949 90.5828 124.436C90.5293 125.616 90.4998 126.804 90.4998 128C90.4998 153.133 102.738 174.948 112.13 187.989C75.3103 187.521 45.4998 157.429 45.4998 120.5ZM128 231.662C123.986 228.993 117.46 224.181 112.428 218.212C119.015 213.89 124.336 209.428 127.999 206.058C131.662 209.428 136.984 213.89 143.57 218.212C138.538 224.182 132.011 228.995 128 231.662ZM165.5 128C165.5 126.804 165.47 125.616 165.417 124.436C176.538 116.949 189.445 113 203 113H210.5V120.5C210.5 157.429 180.689 187.521 143.869 187.989C153.261 174.948 165.5 153.133 165.5 128ZM188 218C172.285 218 157.845 210.164 147.795 202.857C170.177 201.568 190.195 191.318 204.306 175.645C218.815 180.215 231.063 189.659 237.684 195.522C228.751 203.482 209.509 218 188 218Z" fill="#6B0606" fill-opacity="0.03"/>
<path d="M128 8C123.858 8 120.5 11.358 120.5 15.5V30.5C120.5 34.642 123.858 38 128 38C132.142 38 135.5 34.642 135.5 30.5V15.5C135.5 11.358 132.142 8 128 8Z" fill="#6B0606" fill-opacity="0.03"/>
<path d="M78.607 52.9986L68.0005 42.3921C65.0715 39.4631 60.323 39.4631 57.394 42.3921C54.465 45.3211 54.465 50.0696 57.394 52.9986L68.0005 63.6051C70.929 66.5336 75.6775 66.5346 78.607 63.6051C81.536 60.6761 81.536 55.9276 78.607 52.9986Z" fill="#6B0606" fill-opacity="0.03"/>
<path d="M198.607 42.3921C195.678 39.4631 190.929 39.4631 188 42.3921L177.394 52.9986C174.465 55.9276 174.465 60.6761 177.394 63.6051C180.322 66.5341 185.071 66.5341 188 63.6051L198.607 52.9986C201.535 50.0696 201.535 45.3211 198.607 42.3921Z" fill="#6B0606" fill-opacity="0.03"/>
</svg>
