<svg width="129" height="126" viewBox="0 0 129 126" fill="none" xmlns="http://www.w3.org/2000/svg">
<path d="M14.9779 52.995C14.5879 52.524 14.7199 52.15 14.9999 51.848C15.4089 51.408 15.8249 50.951 16.3159 50.615C18.5559 49.081 20.8069 47.56 23.0909 46.092C23.9089 45.566 24.5539 44.937 24.9729 44.073C25.6039 42.772 26.2609 41.482 26.8339 40.155C27.3569 38.946 27.2139 37.681 26.9909 36.415C26.7249 34.902 26.4879 33.381 26.3009 31.856C26.0419 29.743 26.4139 27.71 27.1899 25.737C27.7759 24.247 28.3509 22.753 28.8889 21.246C29.7569 18.818 30.3069 16.31 30.5359 13.744C30.8249 10.503 31.2939 7.269 31.0209 4C31.0109 3.885 31.0549 3.765 31.0879 3.562C31.2119 3.678 31.3229 3.734 31.3569 3.821C32.8249 7.561 34.2289 11.329 35.1109 15.255C35.7189 17.963 36.0689 20.713 36.0189 23.509C35.9449 27.62 34.5409 31.244 32.1239 34.508C31.3339 35.575 30.4769 36.595 29.6029 37.594C28.6379 38.698 27.8849 39.918 27.2869 41.252C26.9049 42.105 26.4419 42.921 26.0169 43.755C25.9249 43.936 25.8409 44.122 25.6749 44.47C26.7899 43.908 27.7259 43.379 28.7069 42.953C30.4499 42.196 32.1949 41.433 33.9839 40.8C36.1719 40.026 38.0549 38.809 39.5939 37.113C41.4579 35.058 42.6919 32.667 43.0409 29.863C43.3179 27.636 43.8689 25.478 44.7409 23.399C45.4519 21.703 46.4349 20.197 47.7009 18.876C50.2739 16.191 53.0059 13.69 56.0229 11.498C61.0259 7.863 66.0739 4.298 71.2899 0.973999C71.7349 0.690999 72.1569 0.372 72.6909 0C72.6479 0.243 72.6539 0.340002 72.6149 0.413002C70.4479 4.393 68.2939 8.379 65.6559 12.08C63.7189 14.798 61.5499 17.292 58.9589 19.416C57.5599 20.564 56.2179 21.782 54.8709 22.992C52.9679 24.701 51.4079 26.692 50.1119 28.893C48.8529 31.031 47.5429 33.129 45.7449 34.876C44.5289 36.057 43.2809 37.201 41.7659 37.985C41.1289 38.314 40.4249 38.517 39.7449 38.759C39.2749 38.926 38.7929 39.06 38.3169 39.208C38.3329 39.282 38.3489 39.356 38.3659 39.43C38.7019 39.369 39.0409 39.321 39.3739 39.246C44.0279 38.202 48.6689 37.1 53.3379 36.129C56.1419 35.546 58.9919 35.186 61.8149 34.69C62.9889 34.484 64.0049 33.94 64.5429 32.818C65.0909 31.676 65.6009 30.509 66.0389 29.321C67.0159 26.675 68.6259 24.489 70.7369 22.654C73.3459 20.385 76.2259 18.513 79.2849 16.917C83.4649 14.736 87.3869 12.138 91.3109 9.542C93.5719 8.046 95.8359 6.556 98.1019 5.067C98.1949 5.006 98.3209 4.995 98.6049 4.906C98.4129 5.492 98.2899 5.974 98.1009 6.427C96.3589 10.601 93.8349 14.274 90.8219 17.616C88.5979 20.083 86.3119 22.499 83.5489 24.391C80.7799 26.286 77.8769 27.93 74.7529 29.189C72.8549 29.954 70.8649 30.514 69.1229 31.65C67.8399 32.487 66.5249 33.276 65.2739 34.242C66.3559 34.031 67.4599 33.899 68.5149 33.594C71.0399 32.865 73.5579 32.105 76.0459 31.261C77.4999 30.768 78.8909 30.09 80.3109 29.494C80.3669 29.471 80.4179 29.434 80.4749 29.418C82.9739 28.682 85.3289 27.582 87.6729 26.477C89.0839 25.811 90.4239 24.98 91.7459 24.144C94.7419 22.249 97.8119 20.543 101.288 19.662C104.428 18.867 107.617 18.39 110.826 18.017C113.581 17.696 116.339 17.4 119.096 17.103C119.522 17.057 119.954 17.069 120.383 17.055C120.407 17.135 120.431 17.215 120.455 17.295C120.199 17.457 119.962 17.667 119.685 17.774C116.842 18.872 113.988 19.939 111.148 21.045C109.264 21.779 107.407 22.581 105.525 23.317C102.692 24.425 99.7389 25.003 96.7119 25.254C93.5079 25.519 90.3729 26.147 87.3729 27.315C86.2269 27.762 85.1519 28.391 84.0389 28.925C81.8389 29.98 79.6349 31.026 77.3669 32.107C77.7489 32.082 78.1019 32.069 78.4519 32.032C78.8409 31.991 79.2439 31.98 79.6119 31.865C82.1549 31.072 84.7519 30.9 87.3969 31.039C89.9419 31.173 92.4529 30.838 94.9429 30.323C97.5239 29.788 100.13 29.562 102.768 29.672C105.209 29.774 107.651 29.881 110.094 29.92C112.589 29.96 115.085 29.92 117.592 29.914C117.185 30.435 116.478 30.633 115.867 30.925C110.91 33.294 105.659 34.806 100.358 36.162C94.6209 37.631 88.9939 37.387 83.5179 35.005C83.2689 34.897 83.0139 34.8 82.7669 34.687C79.9049 33.374 76.9349 33.069 73.8389 33.621C71.7949 33.986 69.7229 34.195 67.6749 34.543C65.6239 34.892 63.5859 35.316 61.5469 35.73C60.4229 35.958 59.3069 36.227 58.1909 36.493C57.4919 36.659 56.7999 36.852 56.1219 37.197C56.3459 37.217 56.5689 37.254 56.7929 37.255C58.9899 37.264 61.1279 37.642 63.1809 38.404C66.3029 39.562 69.5089 40.117 72.8429 40.14C76.0389 40.161 79.2379 40.227 82.3969 40.864C85.3299 41.455 88.0799 42.479 90.6519 44.008C94.4169 46.245 98.1939 48.463 101.973 50.677C102.432 50.946 102.934 51.143 103.388 51.511C103.227 51.515 103.065 51.53 102.904 51.523C97.4799 51.267 92.0469 51.091 86.6869 50.113C84.9649 49.799 83.2569 49.407 81.5499 49.014C79.3069 48.498 77.0449 48.159 74.7409 48.097C73.9269 48.075 73.1129 48.01 72.3039 47.918C68.7809 47.515 65.6739 46.147 62.9859 43.835C61.8869 42.89 60.7939 41.937 59.7099 40.975C57.4539 38.973 54.7729 38.097 51.8079 38.085C50.9169 38.082 50.0249 38.358 49.1339 38.508C43.4299 39.466 37.8579 40.932 32.4359 42.942C30.9719 43.485 29.5839 44.236 28.1689 44.909C27.9449 45.015 27.7639 45.212 27.6139 45.516C28.2619 45.528 28.9099 45.56 29.5579 45.549C31.4879 45.514 33.4209 45.509 35.3469 45.398C36.5459 45.329 37.7358 45.093 38.9289 44.925C42.6579 44.399 46.2459 44.73 49.7059 46.379C53.8129 48.336 57.6279 50.771 61.4319 53.233C63.3339 54.464 65.2359 55.695 67.1469 56.912C71.9579 59.976 77.2239 61.982 82.6739 63.553C83.6309 63.829 84.5939 64.086 85.5529 64.357C85.7449 64.411 85.9299 64.49 86.2949 64.621C85.5929 65 84.9799 65.127 84.3829 65.228C77.0809 66.465 69.8219 66.064 62.6349 64.438C57.4449 63.264 52.7079 61.028 48.4659 57.788C47.0889 56.736 45.9209 55.479 44.8559 54.117C44.1689 53.238 43.4809 52.354 42.7279 51.533C41.1869 49.855 39.3079 48.783 37.0109 48.499C35.6039 48.325 34.1959 48.139 32.7989 47.9C31.4219 47.665 30.1139 47.202 28.8739 46.546C27.6789 45.913 26.4469 46.048 25.3249 46.652C22.4749 48.187 19.8399 50.052 17.3309 52.097C16.7699 52.554 16.2019 53.022 15.4209 53.039C15.2709 53.043 15.1239 53.011 14.9779 52.995ZM39.8929 45.468C40.8829 45.719 41.8899 45.918 42.8599 46.233C45.3609 47.046 47.5579 48.434 49.6279 50.02C54.1529 53.489 59.0019 56.437 64.1599 58.842C68.7929 61.002 73.6449 62.593 78.6029 63.847C79.1689 63.99 79.7329 64.136 80.2989 64.281C80.2859 64.347 80.2729 64.414 80.2589 64.48C79.8839 64.432 79.5069 64.39 79.1329 64.334C76.6449 63.958 74.2649 63.178 71.8719 62.432C64.6839 60.19 58.0699 56.824 51.9809 52.405C50.1729 51.093 48.3779 49.759 46.5149 48.529C44.2039 47.004 41.6559 46.094 38.8529 46.092C35.9579 46.091 33.0639 46.145 30.1689 46.18C30.0979 46.181 30.0269 46.249 29.8019 46.367C30.4579 46.602 30.9809 46.825 31.5229 46.976C33.0409 47.401 34.5769 47.65 36.1709 47.521C37.1899 47.439 38.2189 47.453 39.2429 47.478C42.7109 47.562 45.5359 48.928 47.6789 51.698C48.8589 53.224 50.0689 54.733 51.3479 56.177C54.9639 60.258 59.4919 62.897 64.7619 64.15C68.7339 65.094 72.8069 65.445 76.8939 65.298C79.3719 65.209 81.8439 64.951 84.3189 64.769C84.3219 64.7 84.3239 64.632 84.3269 64.563C83.5199 64.327 82.7179 64.075 81.9059 63.859C76.4109 62.4 71.2069 60.261 66.3969 57.211C63.8209 55.578 61.2739 53.9 58.7039 52.257C55.7009 50.338 52.6639 48.484 49.4439 46.93C46.4039 45.463 43.2359 45.081 39.8929 45.468ZM40.8319 37.854C40.9669 37.797 41.1069 37.751 41.2349 37.682C42.7639 36.857 44.0579 35.732 45.2879 34.521C46.8969 32.937 48.1149 31.068 49.2549 29.139C50.4429 27.128 51.7859 25.228 53.4809 23.613C55.1189 22.052 56.7649 20.492 58.4969 19.039C61.0169 16.925 63.1469 14.48 65.0719 11.832C67.4049 8.622 69.3109 5.151 71.2989 1.731C71.3299 1.677 71.2929 1.584 71.2859 1.483C71.1649 1.553 71.0829 1.592 71.0109 1.644C66.9009 4.554 62.8059 7.487 58.6769 10.37C55.1299 12.847 51.7669 15.534 48.7209 18.615C47.1699 20.183 45.9349 21.931 45.1239 23.996C44.4009 25.838 43.9149 27.731 43.6639 29.685C43.3569 32.074 42.5609 34.255 41.0749 36.168C40.9269 36.359 40.8199 36.583 40.6939 36.791C40.7529 36.834 40.8109 36.878 40.8699 36.921C41.3679 36.41 41.9299 35.946 42.3539 35.38C44.0569 33.104 45.5819 30.722 46.8439 28.158C48.9319 23.916 51.7279 20.175 55.3049 17.066C58.7209 14.098 62.2269 11.233 65.4149 8.01C66.0379 7.381 66.7309 6.822 67.3919 6.23C67.4349 6.273 67.4779 6.316 67.5209 6.36C67.2659 6.645 67.0169 6.934 66.7569 7.213C63.4339 10.771 59.7939 13.989 56.0499 17.088C54.0059 18.779 52.2959 20.748 50.7169 22.858C48.8239 25.389 47.4399 28.207 45.9609 30.98C44.6109 33.51 43.1109 35.962 40.8319 37.854ZM59.3249 39.6C59.3009 39.65 59.2769 39.701 59.2529 39.751C60.7619 41.048 62.2539 42.365 63.7839 43.636C66.0649 45.531 68.6809 46.719 71.6159 47.161C72.6279 47.313 73.6549 47.407 74.6779 47.433C77.0429 47.495 79.3629 47.848 81.6619 48.379C83.1619 48.725 84.6589 49.087 86.1689 49.385C90.9479 50.328 95.7999 50.597 100.648 50.878C100.718 50.882 100.792 50.807 100.959 50.72C100.3 50.386 99.6919 50.118 99.1249 49.783C96.3429 48.14 93.5428 46.526 90.8038 44.815C86.6408 42.214 82.0849 41.044 77.2289 40.875C75.6319 40.819 74.0339 40.731 72.4369 40.736C69.2899 40.746 66.2539 40.191 63.3109 39.091C62.8589 38.922 62.4019 38.741 61.9309 38.653C60.4219 38.373 58.9059 38.129 57.3899 37.887C57.1639 37.851 56.9239 37.905 56.7069 37.917C59.6399 39.133 62.5329 40.34 65.4329 41.532C68.4139 42.758 71.5089 43.513 74.7249 43.784C75.9569 43.888 77.1849 44.047 78.4119 44.205C83.7769 44.896 88.9039 46.458 93.9049 48.475C94.1299 48.566 94.3319 48.71 94.5459 48.829C94.5179 48.884 94.4889 48.939 94.4609 48.994C93.9789 48.845 93.4909 48.713 93.0169 48.543C86.9089 46.349 80.6469 44.851 74.1649 44.311C71.3209 44.074 68.5569 43.451 65.9089 42.37C64.1759 41.663 62.4599 40.916 60.7349 40.187C60.2639 39.989 59.7939 39.795 59.3249 39.6ZM82.3519 31.657C82.3399 31.733 82.3279 31.81 82.3159 31.886C82.4289 31.916 82.5399 31.959 82.6549 31.974C84.8389 32.264 87.0249 32.532 89.2059 32.843C91.5449 33.176 93.8919 33.347 96.2419 33.086C99.3849 32.737 102.52 32.304 105.659 31.915C106.548 31.805 107.44 31.723 108.33 31.629C108.023 31.855 107.7 31.918 107.375 31.969C105.591 32.252 103.797 32.483 102.024 32.823C98.9649 33.41 95.8819 33.847 92.7739 33.715C90.3699 33.613 87.9749 33.223 85.5819 32.915C83.6049 32.661 81.6309 32.403 79.6319 32.52C79.3069 32.539 78.9859 32.625 78.6639 32.68C78.6679 32.742 78.6719 32.804 78.6759 32.866C80.4039 33.071 82.0269 33.622 83.6069 34.305C88.7709 36.537 94.0919 36.993 99.5579 35.688C103.645 34.713 107.671 33.518 111.628 32.106C112.977 31.625 114.275 30.998 115.596 30.438C114.866 30.375 114.153 30.461 113.441 30.456C110.547 30.438 107.652 30.418 104.759 30.349C101.711 30.277 98.6629 30.179 95.6559 30.821C92.5099 31.492 89.3419 31.754 86.1259 31.572C84.8729 31.504 83.6099 31.624 82.3519 31.657ZM29.1489 33.536C30.4139 32.266 31.6609 31.017 32.9039 29.763C33.0949 29.57 33.2699 29.361 33.4489 29.157C34.6519 27.789 35.2629 26.186 35.3519 24.373C35.5369 20.6 34.9939 16.909 33.9969 13.287C33.3719 11.017 32.6099 8.785 31.9059 6.537C31.8179 6.257 31.7049 5.985 31.6039 5.709C31.4869 6.014 31.5039 6.307 31.4839 6.598C31.2639 9.785 31.1549 12.985 30.7809 16.154C30.3859 19.504 29.1369 22.641 27.8609 25.745C27.1499 27.475 26.7589 29.264 26.8649 31.131C26.9279 32.242 27.1149 33.346 27.2669 34.451C27.3429 35.006 27.4629 35.555 27.5729 36.16C27.7169 36.051 27.7899 36.026 27.8029 35.982C27.8889 35.694 27.9769 35.405 28.0379 35.11C28.5009 32.852 29.2419 30.693 30.2029 28.593C31.4759 25.813 32.4939 22.942 32.8349 19.873C32.8479 19.759 32.9059 19.65 32.9419 19.538C33.0039 21.42 32.7959 23.245 32.1819 24.997C31.6439 26.534 31.0389 28.048 30.4709 29.575C30.0709 30.649 29.6759 31.726 29.2949 32.807C29.2099 33.046 29.1929 33.307 29.1489 33.536ZM96.8059 8.148C96.7139 8.092 96.6219 8.036 96.5299 7.98C96.3389 8.2 96.1439 8.417 95.9569 8.641C94.1539 10.796 92.2869 12.886 90.0629 14.628C89.1849 15.316 88.3399 16.048 87.4879 16.769C84.4659 19.325 81.3539 21.77 77.8739 23.673C74.2919 25.631 71.0819 28.037 68.3189 31.041C68.1519 31.223 67.9879 31.408 67.8219 31.592C68.5689 31.282 69.2169 30.834 69.9259 30.525C71.6939 29.752 73.4899 29.042 75.2749 28.306C78.3289 27.047 81.2299 25.477 83.8189 23.442C88.7059 19.599 92.7329 14.967 95.9119 9.612C96.2019 9.119 96.5069 8.635 96.8059 8.148ZM88.2869 15.362C88.0629 15.387 87.9659 15.374 87.8919 15.409C85.7059 16.46 83.4279 17.226 81.0529 17.727C80.1709 17.913 79.2879 18.178 78.4639 18.542C75.7449 19.742 73.2409 21.297 71.0249 23.29C69.0609 25.056 67.5469 27.131 66.6719 29.649C66.4249 30.361 66.1079 31.049 65.8289 31.751C65.7589 31.927 65.7129 32.113 65.5899 32.506C65.9969 32.197 66.2429 32.036 66.4579 31.841C67.3509 31.03 68.2609 30.234 69.1179 29.387C71.2319 27.297 73.5709 25.504 76.1329 24.004C80.1239 21.668 83.8989 19.024 87.4719 16.091C87.7219 15.886 87.9549 15.66 88.2869 15.362ZM92.5039 25.13C94.1729 24.916 95.8379 24.649 97.5129 24.499C100.826 24.201 103.965 23.27 107.038 22.051C109.057 21.25 111.082 20.462 113.116 19.698C114.585 19.146 116.074 18.647 117.553 18.119C117.776 18.039 117.988 17.931 118.206 17.836C117.904 17.753 117.632 17.742 117.365 17.777C113.927 18.231 110.484 18.651 107.054 19.16C103.221 19.728 99.4469 20.546 95.9649 22.351C94.8599 22.924 93.7269 23.452 92.7679 24.306C97.2749 22.46 101.989 21.444 106.747 20.597C101.916 21.813 97.1029 23.074 92.5039 25.13ZM56.9239 61.88C56.9529 61.829 56.9819 61.779 57.0099 61.728C56.9179 61.656 56.8329 61.573 56.7339 61.513C53.8379 59.742 51.4339 57.432 49.3449 54.775C48.5249 53.731 47.6999 52.691 46.8649 51.659C44.8859 49.211 42.2479 48.154 39.1709 48.04C38.9929 48.033 38.8129 48.077 38.4539 48.117C38.7759 48.257 38.9099 48.323 39.0499 48.374C40.8209 49.024 42.3009 50.09 43.5179 51.521C44.1819 52.303 44.8329 53.096 45.4659 53.903C46.5719 55.314 47.8289 56.563 49.2809 57.619C51.4159 59.17 53.6869 60.482 56.0939 61.56C56.3659 61.68 56.6479 61.774 56.9239 61.88ZM96.7019 6.793C91.0879 10.258 85.8689 14.345 79.9839 17.382C87.0749 16.245 92.6829 12.77 96.7019 6.793ZM33.8849 29.801C33.1059 30.534 32.3519 31.295 31.5439 31.994C29.9959 33.331 29.0939 35.018 28.7099 37.003C28.6739 37.188 28.6919 37.384 28.6849 37.574C30.8279 35.226 32.9349 32.906 33.8849 29.801ZM28.8059 43.834C28.7809 43.797 28.7569 43.759 28.7319 43.722C28.5149 43.817 28.2859 43.89 28.0839 44.01C25.6249 45.479 23.1529 46.927 20.7219 48.44C19.2639 49.348 17.8629 50.349 16.4549 51.335C16.1119 51.575 15.8439 51.921 15.5409 52.218C15.5999 52.288 15.6579 52.357 15.7169 52.427C16.1079 52.175 16.5219 51.953 16.8849 51.666C19.1349 49.887 21.4349 48.185 23.9319 46.757C25.5769 45.817 27.1829 44.811 28.8059 43.834ZM45.2399 38.486C45.2439 38.547 45.2479 38.608 45.2519 38.669C47.4409 38.458 54.5899 36.881 55.2969 36.428C51.9019 37.123 48.5709 37.805 45.2399 38.486ZM32.3529 42.081C32.3639 42.114 32.3739 42.148 32.3849 42.181C34.4919 41.524 36.5989 40.866 38.7059 40.209C38.6959 40.176 38.6849 40.142 38.6749 40.109C36.5669 40.766 34.4599 41.424 32.3529 42.081Z" fill="#955D34"/>
<path d="M32.6937 17.1602C32.5947 15.6172 32.4957 14.0742 32.3867 12.3672C32.8947 13.3642 33.1317 15.8182 32.9097 17.1142C32.8377 17.1292 32.7657 17.1442 32.6937 17.1602Z" fill="#955D34"/>
<path d="M108.871 20.0141C109.846 19.7101 110.921 19.3741 111.997 19.0391C111.299 19.6151 109.363 20.1131 108.871 20.0141Z" fill="#955D34"/>
<path d="M12.6738 101.145C10.0488 101.117 8.06641 100.064 6.72656 97.9863L6.35742 100.734H0.984375V99.709C1.80469 99.709 2.41992 99.6406 2.83008 99.5039C3.54102 99.2578 3.89648 98.5195 3.89648 97.2891V75.0996H0.984375V74.0742H7.42383V87.4043C7.47852 87.2949 7.5332 87.1719 7.58789 87.0352C8.87305 84.2188 11.0195 82.8105 14.0273 82.8105C15.75 82.8105 17.2266 83.3848 18.457 84.5332C20.207 86.2012 21.082 88.5938 21.082 91.7109C21.082 94.418 20.3164 96.6465 18.7852 98.3965C17.1445 100.229 15.1074 101.145 12.6738 101.145ZM12.5918 84.5332C11.5801 84.5332 10.6641 84.875 9.84375 85.5586C8.20312 87.0078 7.38281 89.4277 7.38281 92.8184C7.38281 94.377 7.58789 95.7305 7.99805 96.8789C8.81836 99.0391 10.1992 100.119 12.1406 100.119C12.8516 100.119 13.5078 99.9551 14.1094 99.627C16.1328 98.5059 17.1445 95.9766 17.1445 92.0391C17.1445 90.8633 17.0488 89.7969 16.8574 88.8398C16.2285 85.9688 14.8066 84.5332 12.5918 84.5332ZM32.8535 83.8359C32.1973 83.8359 31.582 83.9863 31.0078 84.2871C29.1484 85.2441 28.1641 87.3359 28.0547 90.5625L32.0742 90.6855C33.2773 90.7129 34.2207 90.6445 34.9043 90.4805C36.1074 90.1797 36.709 89.3594 36.709 88.0195C36.709 87.4453 36.627 86.8984 36.4629 86.3789C35.916 84.6836 34.7129 83.8359 32.8535 83.8359ZM40.1133 96.7559C39.9492 97.1113 39.7715 97.4668 39.5801 97.8223C38.1855 100.037 35.957 101.145 32.8945 101.145C31.0625 101.145 29.4219 100.693 27.9727 99.791C25.4297 98.1504 24.1582 95.5801 24.1582 92.0801C24.1582 90.084 24.5957 88.3203 25.4707 86.7891C27.0293 84.1367 29.4629 82.8105 32.7715 82.8105C34.5215 82.8105 36.0801 83.1797 37.4473 83.918C39.416 85.0391 40.4004 86.5703 40.4004 88.5117C40.4004 89.4414 40.0859 90.1797 39.457 90.7266C38.5 91.4922 36.2715 91.8477 32.7715 91.793L28.0547 91.7109C28.082 92.7227 28.1641 93.6523 28.3008 94.5C28.957 98.1641 30.7344 99.9961 33.6328 99.9961C34.043 99.9961 34.4668 99.9551 34.9043 99.873C36.8184 99.4629 38.2129 98.3008 39.0879 96.3867L40.1133 96.7559ZM46.1426 107.256C46.498 107.256 46.8672 107.188 47.25 107.051C48.5625 106.477 49.957 104.426 51.4336 100.898L43.9277 84.3281H42V83.2617H50.3262V84.3281H47.6191L53.0742 97.084L58.2012 84.3281H55.207V83.2617H61.4414C61.4414 83.5078 61.4277 83.7129 61.4004 83.877C61.3184 84.1777 60.9902 84.3281 60.416 84.3281C60.1973 84.3281 60.0059 84.3418 59.8418 84.3691C59.4863 84.4785 59.1719 84.916 58.8984 85.6816L52.8281 100.857C52.2266 102.334 51.6113 103.592 50.9824 104.631C49.3965 107.256 47.5234 108.568 45.3633 108.568C44.707 108.568 44.0781 108.445 43.4766 108.199C42.2734 107.707 41.6719 106.955 41.6719 105.943C41.6719 105.834 41.6855 105.711 41.7129 105.574C41.877 104.809 42.4102 104.426 43.3125 104.426C43.6406 104.426 43.9277 104.508 44.1738 104.672C44.4746 104.863 44.7891 105.383 45.1172 106.23C45.3633 106.914 45.7051 107.256 46.1426 107.256ZM67.0605 91.957C67.0879 97.3438 68.8105 100.064 72.2285 100.119C75.5371 100.092 77.2051 97.3164 77.2324 91.793C77.2051 86.543 75.5098 83.8906 72.1465 83.8359C68.7832 83.8633 67.0879 86.5703 67.0605 91.957ZM72.2695 82.8105C74.2109 82.8105 75.9473 83.3301 77.4785 84.3691C79.9395 86.0645 81.1699 88.5801 81.1699 91.916C81.1699 94.4316 80.377 96.5508 78.791 98.2734C77.041 100.188 74.8125 101.145 72.1055 101.145C70.1367 101.145 68.3594 100.57 66.7734 99.4219C64.3672 97.6719 63.1641 95.1289 63.1641 91.793C63.1641 89.3594 63.9297 87.3086 65.4609 85.6406C67.2383 83.7539 69.5078 82.8105 72.2695 82.8105ZM91.998 99.709C92.1621 99.709 92.2988 99.7227 92.4082 99.75C92.8184 99.8047 93.0234 100.133 93.0234 100.734H83.877V99.709C84.6699 99.709 85.2715 99.6543 85.6816 99.5449C86.4473 99.2988 86.8301 98.5469 86.8301 97.2891V84.2871H83.877V83.2617H90.1113L90.2754 87.1172C90.5488 86.4336 90.918 85.8184 91.3828 85.2715C92.7227 83.6309 94.4043 82.8105 96.4277 82.8105C97.3848 82.8105 98.2871 83.043 99.1348 83.5078C101.104 84.6016 102.088 86.584 102.088 89.4551V99.709H104.016C104.18 99.709 104.316 99.7227 104.426 99.75C104.836 99.8047 105.041 100.133 105.041 100.734H95.7715V99.709C96.5645 99.709 97.1523 99.6406 97.5352 99.5039C98.2461 99.2578 98.6016 98.5195 98.6016 97.2891V89.0039C98.6016 88.293 98.5059 87.6367 98.3145 87.0352C97.7676 85.4492 96.6602 84.6562 94.9922 84.6562C94.2812 84.6562 93.5703 84.875 92.8594 85.3125C91.2188 86.4062 90.3711 88.1973 90.3164 90.6855V99.709H91.998ZM121.57 100.734L121.201 96.4688C119.943 99.5312 117.811 101.09 114.803 101.145C113.326 101.145 111.986 100.707 110.783 99.832C108.623 98.2461 107.543 95.7715 107.543 92.4082C107.543 90.2207 108.062 88.2656 109.102 86.543C110.66 84.0547 112.889 82.8105 115.787 82.8105C117.975 82.8105 119.752 83.5078 121.119 84.9023V75.0996H117.264V74.0742H124.646L124.688 99.709H126.738C126.902 99.709 127.053 99.7227 127.189 99.75C127.545 99.832 127.723 100.16 127.723 100.734H121.57ZM111.439 91.916C111.439 93.2285 111.576 94.4043 111.85 95.4434C112.533 98.123 113.928 99.4629 116.033 99.4629C117.045 99.4629 117.947 99.1348 118.74 98.4785C120.408 97.0293 121.242 94.582 121.242 91.1367C121.242 89.6055 121.037 88.2656 120.627 87.1172C119.834 84.957 118.467 83.877 116.525 83.877C115.732 83.877 115.021 84.0684 114.393 84.4512C112.424 85.5996 111.439 88.0879 111.439 91.916Z" fill="#955D34"/>
<path d="M46.0857 121.676C44.2437 121.399 43.3247 121.244 41.4907 120.902C41.3137 122.13 42.1047 123.134 43.4047 123.354C44.0907 123.47 44.7657 123.334 45.2547 122.915C45.3547 123.064 45.4047 123.138 45.5057 123.287C44.9427 123.767 44.1437 123.935 43.3207 123.796C41.6727 123.518 40.7247 122.212 41.0147 120.691C41.3047 119.169 42.5797 118.297 44.0117 118.54C45.4447 118.784 46.3497 120.008 46.1197 121.54C46.1117 121.579 46.0927 121.626 46.0857 121.676ZM41.5717 120.52C43.2007 120.824 44.0167 120.963 45.6527 121.215C45.7537 120.088 45.0517 119.162 43.9357 118.972C42.8197 118.783 41.8627 119.416 41.5717 120.52Z" fill="#955D34"/>
<path d="M47.6354 121.784C47.8484 120.24 49.1134 119.319 50.6554 119.499C51.4914 119.597 52.1824 119.991 52.5544 120.671C52.3934 120.763 52.3124 120.809 52.1504 120.901C51.8184 120.334 51.2604 120.023 50.6034 119.946C49.3594 119.801 48.3344 120.547 48.1594 121.855C47.9844 123.163 48.8064 124.163 50.0924 124.314C50.7714 124.393 51.4064 124.21 51.8564 123.725C51.9994 123.849 52.0714 123.91 52.2144 124.033C51.7024 124.614 50.9104 124.863 50.0404 124.761C48.4344 124.573 47.4234 123.319 47.6354 121.784Z" fill="#955D34"/>
<path d="M53.7682 122.482C53.9072 120.939 55.1272 119.949 56.6432 120.055C58.1602 120.161 59.2292 121.31 59.1532 122.858C59.0772 124.405 57.8531 125.45 56.2741 125.34C54.6961 125.23 53.6282 124.025 53.7682 122.482ZM58.6261 122.831C58.6961 121.523 57.8291 120.589 56.6111 120.504C55.3941 120.419 54.4061 121.223 54.2931 122.528C54.1801 123.832 55.0462 124.803 56.3052 124.891C57.5652 124.979 58.5571 124.138 58.6261 122.831Z" fill="#955D34"/>
<path d="M63.6211 124.98C63.7201 124.822 63.7691 124.742 63.8671 124.584C64.2811 124.929 65.025 125.226 65.834 125.224C66.99 125.222 67.447 124.822 67.438 124.232C67.417 122.713 63.8341 123.834 63.8621 121.785C63.8721 120.996 64.5491 120.37 65.8851 120.367C66.5541 120.366 67.2851 120.557 67.7061 120.86C67.6151 121.021 67.5701 121.102 67.4781 121.263C67.0251 120.95 66.4451 120.805 65.8761 120.807C64.8401 120.809 64.3791 121.222 64.3741 121.781C64.3591 123.35 67.9241 122.226 67.9601 124.214C67.9751 125.063 67.2161 125.662 65.8141 125.664C64.9071 125.666 64.0451 125.366 63.6211 124.98Z" fill="#955D34"/>
<path d="M72.7022 125.107C72.4422 125.371 72.0052 125.513 71.5952 125.531C70.6262 125.574 70.0812 125.05 70.0512 124.171C70.0052 122.808 69.9822 122.127 69.9362 120.765C69.5462 120.778 69.3512 120.784 68.9602 120.794C68.9562 120.622 68.9532 120.536 68.9492 120.365C69.3382 120.355 69.5332 120.349 69.9222 120.336C69.9072 119.881 69.8992 119.653 69.8842 119.198C70.0852 119.191 70.1852 119.188 70.3862 119.18C70.4032 119.635 70.4122 119.863 70.4292 120.318C71.1012 120.293 71.4373 120.278 72.1093 120.244C72.1183 120.416 72.1222 120.501 72.1312 120.673C71.4572 120.707 71.1203 120.722 70.4453 120.747C70.4953 122.089 70.5212 122.761 70.5712 124.103C70.5962 124.772 70.9562 125.13 71.6282 125.1C71.9542 125.085 72.2532 124.97 72.4642 124.769C72.5582 124.904 72.6062 124.972 72.7022 125.107Z" fill="#955D34"/>
<path d="M73.7482 122.768C73.6522 121.222 74.7063 120.058 76.2213 119.933C77.7363 119.807 78.9683 120.781 79.1283 122.322C79.2883 123.862 78.2363 125.081 76.6593 125.212C75.0823 125.342 73.8452 124.313 73.7482 122.768ZM78.6033 122.375C78.4733 121.072 77.4743 120.281 76.2583 120.381C75.0423 120.482 74.1882 121.427 74.2742 122.734C74.3612 124.04 75.3643 124.868 76.6223 124.764C77.8803 124.659 78.7333 123.677 78.6033 122.375Z" fill="#955D34"/>
<path d="M83.4117 119.125C83.4387 119.319 83.4527 119.416 83.4797 119.61C83.4397 119.616 83.3976 119.612 83.3566 119.617C82.1866 119.78 81.5837 120.626 81.7427 121.906C81.8767 122.985 81.9436 123.525 82.0776 124.604C81.8676 124.63 81.7636 124.643 81.5536 124.668C81.3046 122.596 81.1796 121.56 80.9316 119.488C81.1246 119.465 81.2217 119.453 81.4147 119.429C81.4707 119.881 81.4986 120.108 81.5546 120.56C81.7866 119.766 82.4267 119.263 83.4117 119.125Z" fill="#955D34"/>
<path d="M90.1855 120.813C88.3525 121.162 87.4335 121.321 85.5925 121.604C85.8325 122.821 86.9095 123.507 88.2085 123.284C88.8945 123.166 89.4865 122.815 89.8095 122.257C89.9535 122.364 90.0255 122.418 90.1695 122.525C89.7975 123.164 89.0975 123.588 88.2745 123.729C86.6265 124.012 85.3025 123.094 85.0725 121.562C84.8425 120.03 85.7535 118.785 87.1855 118.541C88.6185 118.297 89.8795 119.152 90.1695 120.673C90.1775 120.714 90.1765 120.765 90.1855 120.813ZM85.5425 121.218C87.1785 120.966 87.9945 120.827 89.6235 120.523C89.3455 119.426 88.3746 118.785 87.2596 118.976C86.1446 119.166 85.4515 120.08 85.5425 121.218Z" fill="#955D34"/>
<path d="M44.3086 76.1641H80.5486" stroke="#DFBFA8" stroke-width="0.75" stroke-miterlimit="10"/>
</svg>
