<svg width="180" height="62" viewBox="0 0 180 62" fill="none" xmlns="http://www.w3.org/2000/svg">
<path d="M7.12 35.56C6.53333 35.56 5.93333 35.52 5.32 35.44C3.64 35.2267 2.4 34.7333 1.6 33.96C0.826667 33.1867 0.44 32.3467 0.44 31.44C0.44 30.4533 0.88 29.56 1.76 28.76C2.64 27.9333 3.88 27.52 5.48 27.52C6.54667 27.52 7.70667 27.7333 8.96 28.16C9.65333 28.4 10.48 28.8 11.44 29.36C12.4 29.92 13.5067 30.5067 14.76 31.12C16.0933 29.84 17.3067 28.2533 18.4 26.36C19.52 24.4667 20.6267 22.44 21.72 20.28C22.84 18.0933 24.04 15.9067 25.32 13.72C26.6267 11.5333 28.1333 9.48 29.84 7.56L32.16 4.96C31.1733 4.8 30.1467 4.68 29.08 4.6C28.0133 4.49333 26.9067 4.44 25.76 4.44C24.32 4.44 22.84 4.52 21.32 4.68C19.8 4.81333 18.28 5.04 16.76 5.36C14.2533 5.89333 12.1333 6.74667 10.4 7.92C8.66667 9.09333 7.34667 10.3733 6.44 11.76C5.56 13.12 5.12 14.4 5.12 15.6C5.12 16.4267 5.34667 17.1733 5.8 17.84C6.28 18.48 6.98667 18.9467 7.92 19.24C8.50667 19.4267 9.10667 19.52 9.72 19.52C10.6267 19.52 11.4267 19.3333 12.12 18.96C12.8133 18.5867 13.4 18.1333 13.88 17.6C14.36 17.04 14.7067 16.5067 14.92 16C15.16 15.4933 15.2667 15.12 15.24 14.88C15.24 14.6933 15.3733 14.6 15.64 14.6C15.9067 14.6 16.04 14.8 16.04 15.2V15.24C16.04 16.3333 15.7067 17.28 15.04 18.08C14.3733 18.88 13.5333 19.4933 12.52 19.92C11.5333 20.3467 10.5333 20.56 9.52 20.56C8.88 20.56 8.21333 20.4533 7.52 20.24C6.08 19.7333 5.01333 19 4.32 18.04C3.62667 17.0533 3.28 15.9733 3.28 14.8C3.28 13.7067 3.57333 12.5867 4.16 11.44C4.77333 10.2667 5.66667 9.16 6.84 8.12C8.01333 7.05333 9.46667 6.13333 11.2 5.36C12.96 4.58666 14.9867 4.04 17.28 3.72C18.5067 3.53333 19.72 3.4 20.92 3.32C22.12 3.24 23.28 3.2 24.4 3.2C25.9467 3.2 27.4533 3.28 28.92 3.44C30.4133 3.57333 31.8133 3.78666 33.12 4.08C33.4933 3.76 33.8667 3.48 34.24 3.24C34.64 3 35 2.81333 35.32 2.68C35.5067 2.6 35.6667 2.54667 35.8 2.52C35.9333 2.49333 36.04 2.48 36.12 2.48C36.28 2.48 36.36 2.53333 36.36 2.64C36.36 2.77333 36.16 2.98667 35.76 3.28C35.4933 3.46667 35.24 3.68 35 3.92C34.76 4.13333 34.6133 4.29333 34.56 4.4C37.28 5.09333 39.48 6.05333 41.16 7.28C42.8667 8.48 43.72 9.90667 43.72 11.56C43.72 12.4133 43.44 13.3467 42.88 14.36C42.2933 15.3467 41.48 16.1467 40.44 16.76C39.4 17.3467 38.2933 17.7867 37.12 18.08C35.9467 18.3467 34.8533 18.5067 33.84 18.56C34.72 18.8267 35.68 19.2267 36.72 19.76C37.7867 20.2667 38.76 20.8933 39.64 21.64C40.5467 22.3867 41.1467 23.2667 41.44 24.28C41.6267 24.92 41.72 25.5733 41.72 26.24C41.72 27.6533 41.3067 28.9333 40.48 30.08C39.68 31.2267 38.6 32.2133 37.24 33.04C35.9067 33.84 34.44 34.4533 32.84 34.88C31.24 35.3333 29.6533 35.56 28.08 35.56C27.4933 35.56 26.8933 35.52 26.28 35.44C23.72 35.12 21.6 34.72 19.92 34.24C18.2667 33.76 16.8133 33.2267 15.56 32.64C12.9733 34.5867 10.16 35.56 7.12 35.56ZM27.52 34.4C29.1733 34.4 30.68 34.1467 32.04 33.64C33.4 33.1333 34.5733 32.4667 35.56 31.64C36.5733 30.8133 37.3467 29.8933 37.88 28.88C38.44 27.8667 38.72 26.8667 38.72 25.88C38.72 24.9467 38.44 24.04 37.88 23.16C37.32 22.28 36.44 21.5467 35.24 20.96C34.2 20.4533 33.12 20.04 32 19.72C30.9067 19.3733 29.96 19.08 29.16 18.84C28.36 18.5733 27.8933 18.3067 27.76 18.04C27.76 17.72 27.8933 17.5067 28.16 17.4C28.4533 17.2667 28.8267 17.2 29.28 17.2C29.8133 17.2 30.4533 17.24 31.2 17.32C31.9467 17.4 32.7333 17.44 33.56 17.44C34.4133 17.44 35.28 17.2533 36.16 16.88C37.0667 16.48 37.8933 15.96 38.64 15.32C39.3867 14.6533 39.9867 13.9333 40.44 13.16C40.92 12.36 41.16 11.5467 41.16 10.72C41.16 9.97333 40.9067 9.24 40.4 8.52C39.8933 7.8 39.0533 7.17333 37.88 6.64C36.7067 6.10666 35.44 5.68 34.08 5.36C32.7467 7.2 31.4133 9.26667 30.08 11.56C28.7467 13.8267 27.4133 16.1333 26.08 18.48C24.7467 20.8 23.4 23 22.04 25.08C20.68 27.16 19.32 28.9467 17.96 30.44C17.64 30.7867 17.3867 31.0533 17.2 31.24C17.0133 31.4 16.76 31.6267 16.44 31.92C17.6933 32.4267 19.12 32.9067 20.72 33.36C22.32 33.8133 24.1467 34.1333 26.2 34.32C26.4133 34.3467 26.6267 34.36 26.84 34.36C27.08 34.3867 27.3067 34.4 27.52 34.4ZM6.32 34.32C7.81333 34.4 9.17333 34.2267 10.4 33.8C11.6533 33.3467 12.8133 32.72 13.88 31.92C12.9467 31.4667 11.9867 31 11 30.52C10.04 30.0133 9.01333 29.56 7.92 29.16C7.14667 28.8933 6.44 28.76 5.8 28.76C4.81333 28.76 4.06667 29.0267 3.56 29.56C3.05333 30.0667 2.8 30.6533 2.8 31.32C2.8 32.0133 3.09333 32.68 3.68 33.32C4.26667 33.9333 5.14667 34.2667 6.32 34.32ZM46.115 34.12C44.995 34.12 44.235 33.8267 43.835 33.24C43.435 32.6267 43.235 31.9067 43.235 31.08C43.235 30.2267 43.355 29.3467 43.595 28.44C43.835 27.5333 44.0483 26.7733 44.235 26.16C44.6617 24.6667 45.195 23.08 45.835 21.4C46.5017 19.6933 47.2217 18.0267 47.995 16.4C48.795 14.7467 49.5817 13.2667 50.355 11.96C50.9683 10.92 51.6217 10.1467 52.315 9.64C53.035 9.10667 53.6617 8.84 54.195 8.84C54.6217 8.84 54.955 9 55.195 9.32C55.4617 9.61333 55.595 10.0667 55.595 10.68C55.595 11.1067 55.515 11.6133 55.355 12.2C55.2217 12.7867 54.9817 13.4533 54.635 14.2C53.7017 16.28 52.5817 18.36 51.275 20.44C49.995 22.52 48.3683 24.4667 46.395 26.28C46.2883 26.6267 46.1417 27.04 45.955 27.52C45.795 27.9733 45.6483 28.44 45.515 28.92C45.355 29.64 45.275 30.2533 45.275 30.76C45.275 31.5867 45.435 32.2133 45.755 32.64C46.1017 33.04 46.515 33.24 46.995 33.24C47.4217 33.24 47.875 33.0933 48.355 32.8C48.835 32.48 49.2883 32.0267 49.715 31.44C50.355 30.5067 50.9283 29.56 51.435 28.6C51.9683 27.6133 52.3683 26.8533 52.635 26.32C52.795 26.0267 52.9683 25.88 53.155 25.88C53.2883 25.88 53.355 25.96 53.355 26.12C53.355 26.2533 53.315 26.4 53.235 26.56C52.995 27.0933 52.675 27.7867 52.275 28.64C51.9017 29.4667 51.4217 30.3067 50.835 31.16C50.275 31.9867 49.595 32.6933 48.795 33.28C48.0217 33.84 47.1283 34.12 46.115 34.12ZM46.715 25C47.675 24.0133 48.6083 22.88 49.515 21.6C50.4217 20.2933 51.2617 18.9467 52.035 17.56C52.835 16.1467 53.5017 14.8133 54.035 13.56C54.2217 13.16 54.3683 12.72 54.475 12.24C54.6083 11.76 54.675 11.36 54.675 11.04C54.675 10.6667 54.5817 10.48 54.395 10.48C54.2883 10.48 54.1283 10.5867 53.915 10.8C53.7017 10.9867 53.4217 11.32 53.075 11.8C52.5683 12.4667 52.0083 13.3733 51.395 14.52C50.8083 15.6667 50.2083 16.8933 49.595 18.2C48.9817 19.5067 48.4217 20.7733 47.915 22C47.4083 23.2 47.0083 24.2 46.715 25ZM54.5506 34C53.5373 34 52.7906 33.6667 52.3106 33C51.8306 32.3067 51.5906 31.4667 51.5906 30.48C51.5906 29.28 51.8706 28.0267 52.4306 26.72C52.964 25.4933 53.644 24.3733 54.4706 23.36C55.2973 22.3467 56.1906 21.5333 57.1506 20.92C58.1106 20.28 59.044 19.96 59.9506 19.96C60.964 19.96 61.7106 20.2933 62.1906 20.96C62.6706 21.6267 62.9106 22.4667 62.9106 23.48C62.9106 24.7067 62.6306 25.96 62.0706 27.24C61.7506 27.96 61.2973 28.76 60.7106 29.64C60.124 30.4933 59.4573 31.28 58.7106 32C58.8706 32.2933 59.0973 32.5467 59.3906 32.76C59.684 32.9467 60.084 33.04 60.5906 33.04C61.2306 33.04 61.8306 32.7733 62.3906 32.24C62.9773 31.7067 63.5106 31.0667 63.9906 30.32C64.4706 29.5467 64.8973 28.7733 65.2706 28C65.644 27.2267 65.9506 26.6 66.1906 26.12C66.2706 25.96 66.404 25.88 66.5906 25.88C66.6973 25.88 66.7773 25.9333 66.8306 26.04C66.884 26.12 66.8706 26.2533 66.7906 26.44C66.6306 26.84 66.364 27.44 65.9906 28.24C65.6173 29.0133 65.164 29.8267 64.6306 30.68C64.0973 31.5067 63.484 32.2133 62.7906 32.8C62.0973 33.3867 61.324 33.68 60.4706 33.68C59.884 33.68 59.3773 33.5867 58.9506 33.4C58.524 33.1867 58.1773 32.9333 57.9106 32.64C57.3506 33.0667 56.7906 33.4 56.2306 33.64C55.6706 33.88 55.1106 34 54.5506 34ZM55.1506 33.12C55.8706 33.12 56.644 32.7733 57.4706 32.08C57.2573 31.76 57.0973 31.4267 56.9906 31.08C56.884 30.7333 56.8306 30.4133 56.8306 30.12C56.8306 29.64 56.9373 29.2267 57.1506 28.88C57.3906 28.5333 57.7506 28.36 58.2306 28.36C58.5773 28.36 58.8573 28.4933 59.0706 28.76C59.3106 29 59.4306 29.28 59.4306 29.6C59.4306 29.68 59.4173 29.76 59.3906 29.84C59.3906 29.8933 59.3773 29.96 59.3506 30.04C59.804 29.4267 60.2306 28.7067 60.6306 27.88C61.5106 25.9867 61.9506 24.4267 61.9506 23.2C61.9506 22.5867 61.8306 22.1067 61.5906 21.76C61.3506 21.4133 60.9906 21.24 60.5106 21.24C59.9506 21.24 59.3373 21.48 58.6706 21.96C58.0306 22.44 57.404 23.08 56.7906 23.88C56.204 24.68 55.684 25.5733 55.2306 26.56C54.804 27.4667 54.4573 28.3467 54.1906 29.2C53.9506 30.0267 53.8306 30.7467 53.8306 31.36C53.8306 31.8933 53.9373 32.32 54.1506 32.64C54.364 32.96 54.6973 33.12 55.1506 33.12ZM67.9491 34C66.9357 34 66.1891 33.6667 65.7091 33C65.2291 32.3067 64.9891 31.4667 64.9891 30.48C64.9891 29.28 65.2691 28.0267 65.8291 26.72C66.3624 25.4933 67.0424 24.3733 67.8691 23.36C68.6957 22.3467 69.5891 21.5333 70.5491 20.92C71.5091 20.28 72.4424 19.96 73.3491 19.96C74.3624 19.96 75.1091 20.2933 75.5891 20.96C76.0691 21.6267 76.3091 22.4667 76.3091 23.48C76.3091 24.7067 76.0291 25.96 75.4691 27.24C75.1491 27.96 74.6957 28.76 74.1091 29.64C73.5224 30.4933 72.8557 31.28 72.1091 32C72.2691 32.2933 72.4957 32.5467 72.7891 32.76C73.0824 32.9467 73.4824 33.04 73.9891 33.04C74.6291 33.04 75.2291 32.7733 75.7891 32.24C76.3757 31.7067 76.9091 31.0667 77.3891 30.32C77.8691 29.5467 78.2957 28.7733 78.6691 28C79.0424 27.2267 79.3491 26.6 79.5891 26.12C79.6691 25.96 79.8024 25.88 79.9891 25.88C80.0957 25.88 80.1757 25.9333 80.2291 26.04C80.2824 26.12 80.2691 26.2533 80.1891 26.44C80.0291 26.84 79.7624 27.44 79.3891 28.24C79.0157 29.0133 78.5624 29.8267 78.0291 30.68C77.4957 31.5067 76.8824 32.2133 76.1891 32.8C75.4957 33.3867 74.7224 33.68 73.8691 33.68C73.2824 33.68 72.7757 33.5867 72.3491 33.4C71.9224 33.1867 71.5757 32.9333 71.3091 32.64C70.7491 33.0667 70.1891 33.4 69.6291 33.64C69.0691 33.88 68.5091 34 67.9491 34ZM68.5491 33.12C69.2691 33.12 70.0424 32.7733 70.8691 32.08C70.6557 31.76 70.4957 31.4267 70.3891 31.08C70.2824 30.7333 70.2291 30.4133 70.2291 30.12C70.2291 29.64 70.3357 29.2267 70.5491 28.88C70.7891 28.5333 71.1491 28.36 71.6291 28.36C71.9757 28.36 72.2557 28.4933 72.4691 28.76C72.7091 29 72.8291 29.28 72.8291 29.6C72.8291 29.68 72.8157 29.76 72.7891 29.84C72.7891 29.8933 72.7757 29.96 72.7491 30.04C73.2024 29.4267 73.6291 28.7067 74.0291 27.88C74.9091 25.9867 75.3491 24.4267 75.3491 23.2C75.3491 22.5867 75.2291 22.1067 74.9891 21.76C74.7491 21.4133 74.3891 21.24 73.9091 21.24C73.3491 21.24 72.7357 21.48 72.0691 21.96C71.4291 22.44 70.8024 23.08 70.1891 23.88C69.6024 24.68 69.0824 25.5733 68.6291 26.56C68.2024 27.4667 67.8557 28.3467 67.5891 29.2C67.3491 30.0267 67.2291 30.7467 67.2291 31.36C67.2291 31.8933 67.3357 32.32 67.5491 32.64C67.7624 32.96 68.0957 33.12 68.5491 33.12ZM75.6675 34.2C76.6542 32.3067 77.5875 30.4133 78.4675 28.52C79.3475 26.6 80.2408 24.7867 81.1475 23.08C81.6808 22.12 82.1208 21.4533 82.4675 21.08C82.8408 20.68 83.3342 20.48 83.9475 20.48C84.1608 20.48 84.3875 20.52 84.6275 20.6C84.8675 20.6533 85.1075 20.68 85.3475 20.68C85.5075 20.68 85.6275 20.6667 85.7075 20.64C85.3342 20.8533 84.8542 21.3867 84.2675 22.24C83.6808 23.0667 83.0808 24.0267 82.4675 25.12C81.8542 26.2133 81.3075 27.24 80.8275 28.2C81.3342 27.5867 81.8542 26.9733 82.3875 26.36C82.9475 25.7467 83.5608 25.16 84.2275 24.6C84.8142 24.0933 85.4275 23.5467 86.0675 22.96C86.7342 22.3467 87.3875 21.8267 88.0275 21.4C88.6675 20.9733 89.2275 20.76 89.7075 20.76C89.8942 20.76 90.0142 20.7733 90.0675 20.8C90.5742 21.0133 90.8275 21.36 90.8275 21.84C90.8275 22 90.7608 22.24 90.6275 22.56C90.2808 23.4667 89.8275 24.4 89.2675 25.36C88.7342 26.2933 88.2275 27.24 87.7475 28.2C88.1475 27.72 88.6408 27.1333 89.2275 26.44C89.8408 25.7467 90.4542 25.1333 91.0675 24.6C91.6542 24.0667 92.4008 23.5067 93.3075 22.92C94.2142 22.3333 95.1075 21.8267 95.9875 21.4C96.8675 20.9733 97.5742 20.76 98.1075 20.76C98.2942 20.76 98.4275 20.7733 98.5075 20.8C98.5075 20.8 98.3608 21.0667 98.0675 21.6C97.7742 22.1067 97.4008 22.7867 96.9475 23.64C96.5208 24.4667 96.0808 25.36 95.6275 26.32C95.1742 27.2533 94.7608 28.16 94.3875 29.04C94.0408 29.8933 93.8142 30.6133 93.7075 31.2C93.6275 31.5467 93.5875 31.8667 93.5875 32.16C93.5875 32.5867 93.6675 32.8667 93.8275 33C93.9875 33.1333 94.1608 33.2 94.3475 33.2C94.8808 33.2 95.4275 32.92 95.9875 32.36C96.5475 31.8 97.0808 31.1333 97.5875 30.36C98.1208 29.56 98.5875 28.7867 98.9875 28.04C99.3875 27.2667 99.6808 26.68 99.8675 26.28C100.028 25.9867 100.188 25.84 100.348 25.84C100.508 25.84 100.588 25.9467 100.588 26.16C100.588 26.2933 100.548 26.44 100.468 26.6C100.148 27.2133 99.7608 27.9467 99.3075 28.8C98.8808 29.6533 98.3875 30.4933 97.8275 31.32C97.2675 32.12 96.6408 32.8 95.9475 33.36C95.2808 33.8933 94.5608 34.16 93.7875 34.16C93.2275 34.16 92.6542 33.9733 92.0675 33.6C91.5075 33.2267 91.2275 32.5333 91.2275 31.52C91.2275 30.96 91.3475 30.28 91.5875 29.48C91.7742 28.9467 92.0542 28.3333 92.4275 27.64C92.8275 26.9467 93.3075 26.1467 93.8675 25.24C94.1342 24.7867 94.2675 24.4267 94.2675 24.16C94.2675 23.84 94.1075 23.68 93.7875 23.68C93.5208 23.68 93.1475 23.8133 92.6675 24.08C92.2142 24.3467 91.6408 24.8133 90.9475 25.48C90.5208 25.88 90.0142 26.44 89.4275 27.16C88.8675 27.8533 88.2942 28.6133 87.7075 29.44C87.1208 30.2667 86.6142 31.08 86.1875 31.88C85.7608 32.68 85.4808 33.3867 85.3475 34C84.9475 34 84.6275 33.84 84.3875 33.52C84.1475 33.1733 84.0275 32.7733 84.0275 32.32C84.0275 32.24 84.0275 32.16 84.0275 32.08C84.0275 32 84.0408 31.9067 84.0675 31.8C84.2008 30.9733 84.4142 30.2 84.7075 29.48C85.0008 28.76 85.3342 28.0133 85.7075 27.24C86.0008 26.68 86.2942 26.08 86.5875 25.44C86.8808 24.7733 87.0275 24.2667 87.0275 23.92C87.0275 23.7067 86.9475 23.6 86.7875 23.6C86.6008 23.6 86.2942 23.7467 85.8675 24.04C85.4408 24.3067 84.8542 24.7867 84.1075 25.48C83.4408 26.12 82.6275 27.04 81.6675 28.24C80.7342 29.44 79.7075 31.1467 78.5875 33.36C78.4275 33.6533 78.2408 33.84 78.0275 33.92C77.8142 33.9733 77.4808 34 77.0275 34C76.7342 34 76.4942 34 76.3075 34C76.0942 34.0267 75.8808 34.0933 75.6675 34.2ZM104.259 17.76C103.859 17.76 103.526 17.6267 103.259 17.36C103.019 17.0667 102.899 16.72 102.899 16.32C102.899 15.8133 103.099 15.3733 103.499 15C103.899 14.6267 104.339 14.44 104.819 14.44C105.246 14.44 105.592 14.5733 105.859 14.84C106.126 15.1067 106.259 15.4267 106.259 15.8C106.259 16.3067 106.059 16.76 105.659 17.16C105.259 17.56 104.792 17.76 104.259 17.76ZM101.019 34C100.032 34 99.3391 33.72 98.9391 33.16C98.5391 32.5733 98.3391 31.9067 98.3391 31.16C98.3391 30.76 98.3791 30.36 98.4591 29.96C98.5657 29.5333 98.6857 29.1467 98.8191 28.8L101.499 21.96C101.579 21.7467 101.619 21.56 101.619 21.4C101.619 21.1333 101.552 20.9067 101.419 20.72C101.286 20.5067 101.192 20.36 101.139 20.28L103.339 20.2C103.739 20.1733 104.019 20.2267 104.179 20.36C104.366 20.4667 104.459 20.6 104.459 20.76C104.459 20.92 104.366 21.2133 104.179 21.64L100.859 29.44C100.859 29.44 100.779 29.6133 100.619 29.96C100.486 30.28 100.406 30.4933 100.379 30.6C100.299 31 100.246 31.2533 100.219 31.36C100.192 31.4667 100.179 31.5333 100.179 31.56C100.179 31.5867 100.179 31.6933 100.179 31.88C100.179 32.2267 100.259 32.52 100.419 32.76C100.606 33 100.912 33.12 101.339 33.12C101.606 33.12 101.912 33.04 102.259 32.88C102.606 32.72 102.859 32.56 103.019 32.4C103.686 31.7067 104.339 30.8 104.979 29.68C105.646 28.5333 106.259 27.4 106.819 26.28C106.926 26.0133 107.059 25.88 107.219 25.88C107.352 25.88 107.419 25.9733 107.419 26.16C107.419 26.2667 107.379 26.4267 107.299 26.64C107.032 27.2 106.699 27.8933 106.299 28.72C105.899 29.5467 105.419 30.3733 104.859 31.2C104.326 32 103.739 32.6667 103.099 33.2C102.459 33.7333 101.766 34 101.019 34ZM103.01 34.32C103.97 32.3733 104.89 30.4533 105.77 28.56C106.677 26.64 107.597 24.8133 108.53 23.08C109.064 22.12 109.504 21.4533 109.85 21.08C110.224 20.68 110.717 20.48 111.33 20.48C111.544 20.48 111.77 20.52 112.01 20.6C112.25 20.6533 112.49 20.68 112.73 20.68C112.89 20.68 113.01 20.6667 113.09 20.64C112.717 20.8533 112.237 21.3867 111.65 22.24C111.064 23.0667 110.464 24.0267 109.85 25.12C109.237 26.2133 108.69 27.24 108.21 28.2C108.717 27.5867 109.237 26.9733 109.77 26.36C110.33 25.7467 110.944 25.16 111.61 24.6C112.25 24.04 113.01 23.4667 113.89 22.88C114.797 22.2667 115.677 21.76 116.53 21.36C117.384 20.96 118.064 20.76 118.57 20.76C118.757 20.76 118.89 20.7733 118.97 20.8C118.97 20.8 118.824 21.0667 118.53 21.6C118.237 22.1067 117.864 22.7867 117.41 23.64C116.984 24.4667 116.544 25.36 116.09 26.32C115.637 27.2533 115.224 28.16 114.85 29.04C114.504 29.8933 114.277 30.6133 114.17 31.2C114.09 31.5467 114.05 31.8667 114.05 32.16C114.05 32.5867 114.13 32.8667 114.29 33C114.45 33.1333 114.624 33.2 114.81 33.2C115.317 33.2 115.85 32.9333 116.41 32.4C116.97 31.84 117.504 31.16 118.01 30.36C118.544 29.56 119.01 28.7867 119.41 28.04C119.837 27.2667 120.144 26.68 120.33 26.28C120.437 26.0667 120.517 25.9467 120.57 25.92C120.624 25.8667 120.704 25.84 120.81 25.84C120.97 25.84 121.05 25.9467 121.05 26.16C121.05 26.2933 121.01 26.44 120.93 26.6C120.61 27.2133 120.224 27.9467 119.77 28.8C119.344 29.6533 118.85 30.4933 118.29 31.32C117.73 32.12 117.117 32.8 116.45 33.36C115.784 33.8933 115.064 34.16 114.29 34.16C113.757 34.16 113.197 33.9733 112.61 33.6C112.05 33.2267 111.77 32.5333 111.77 31.52C111.77 31.2267 111.797 30.92 111.85 30.6C111.904 30.2533 111.997 29.88 112.13 29.48C112.344 28.9467 112.597 28.3733 112.89 27.76C113.184 27.1467 113.664 26.3067 114.33 25.24C114.517 24.9467 114.624 24.72 114.65 24.56C114.704 24.4 114.73 24.2667 114.73 24.16C114.73 23.84 114.584 23.68 114.29 23.68C114.05 23.68 113.69 23.8133 113.21 24.08C112.757 24.3467 112.184 24.8133 111.49 25.48C110.824 26.12 110.024 27.0267 109.09 28.2C108.184 29.3733 107.13 31.1067 105.93 33.4C105.744 33.7467 105.53 33.9333 105.29 33.96C105.077 33.9867 104.77 34.0133 104.37 34.04C104.104 34.0667 103.85 34.08 103.61 34.08C103.37 34.1067 103.17 34.1867 103.01 34.32ZM117.528 46.76C114.994 46.76 113.728 45.72 113.728 43.64C113.728 42.6533 114.074 41.7733 114.768 41C115.461 40.2267 116.288 39.56 117.248 39C118.581 38.2 119.874 37.56 121.128 37.08C122.381 36.6 123.568 36.1733 124.688 35.8C125.834 35.4533 126.914 35.0667 127.928 34.64C128.408 33.2267 128.728 31.7467 128.888 30.2C128.968 29.4 129.008 28.7067 129.008 28.12C129.008 27.5067 128.968 27.1067 128.888 26.92C128.594 27.48 128.208 28.16 127.728 28.96C127.248 29.76 126.701 30.5467 126.088 31.32C125.474 32.0667 124.808 32.6933 124.088 33.2C123.394 33.7067 122.674 33.96 121.928 33.96C121.661 33.96 121.408 33.92 121.168 33.84C120.421 33.52 119.874 33.0667 119.528 32.48C119.208 31.8933 119.048 31.2267 119.048 30.48C119.048 29.28 119.394 27.9867 120.088 26.6C120.781 25.2133 121.608 23.9467 122.568 22.8C123.341 21.8667 124.248 21.12 125.288 20.56C126.328 20 127.381 19.72 128.448 19.72C129.674 19.72 130.821 20.1333 131.888 20.96C132.288 21.28 132.488 21.6267 132.488 22C132.488 22.4 132.328 22.6 132.008 22.6C131.741 22.6 131.554 22.4267 131.448 22.08C131.074 21.0933 130.474 20.6 129.648 20.6C128.981 20.6 128.221 20.8933 127.368 21.48C126.514 22.04 125.714 22.7467 124.968 23.6C124.328 24.32 123.701 25.1467 123.088 26.08C122.501 27.0133 122.008 27.9333 121.608 28.84C121.234 29.7467 121.048 30.5333 121.048 31.2C121.048 31.6533 121.154 32.04 121.368 32.36C121.581 32.68 121.914 32.84 122.368 32.84C122.981 32.84 123.621 32.5467 124.288 31.96C124.981 31.3733 125.634 30.6533 126.248 29.8C126.888 28.9467 127.434 28.08 127.888 27.2C128.368 26.32 128.701 25.5867 128.888 25C129.074 24.3867 129.328 24.0133 129.648 23.88C129.968 23.72 130.288 23.64 130.608 23.64C130.928 23.64 131.194 23.56 131.408 23.4C131.514 23.9867 131.581 24.5867 131.608 25.2C131.661 25.7867 131.688 26.3867 131.688 27C131.688 29.0533 131.421 31.12 130.888 33.2C131.368 32.8267 131.861 32.4267 132.368 32C132.901 31.5467 133.354 31.0667 133.728 30.56C134.394 29.6533 134.888 28.8267 135.208 28.08C135.554 27.3067 135.821 26.7067 136.008 26.28C136.168 26.0133 136.341 25.88 136.528 25.88C136.688 25.88 136.768 25.96 136.768 26.12C136.768 26.2533 136.714 26.4133 136.608 26.6C135.941 28.0133 135.328 29.2267 134.768 30.24C134.208 31.2267 133.594 32.0667 132.928 32.76C132.261 33.4267 131.434 34 130.448 34.48C130.021 35.76 129.381 37.1067 128.528 38.52C127.674 39.9333 126.674 41.2667 125.528 42.52C124.381 43.7733 123.128 44.7867 121.768 45.56C120.408 46.36 118.994 46.76 117.528 46.76ZM116.568 45.96C117.154 45.96 117.768 45.8267 118.408 45.56C119.074 45.32 119.701 45.0267 120.288 44.68C120.874 44.3333 121.328 44.04 121.648 43.8C122.261 43.32 122.888 42.72 123.528 42C124.168 41.28 124.728 40.5867 125.208 39.92C125.661 39.28 126.088 38.6 126.488 37.88C126.914 37.1867 127.274 36.4933 127.568 35.8C127.354 35.88 127.088 35.9733 126.768 36.08C126.474 36.1867 126.261 36.2667 126.128 36.32C125.248 36.6133 124.274 36.9467 123.208 37.32C122.168 37.72 121.128 38.1467 120.088 38.6C119.048 39.08 118.101 39.6 117.248 40.16C116.501 40.6667 115.888 41.3333 115.408 42.16C114.901 42.9867 114.648 43.7067 114.648 44.32C114.648 44.7733 114.808 45.16 115.128 45.48C115.421 45.8 115.901 45.96 116.568 45.96Z" fill="#955D34"/>
<path d="M179.994 30.8389C180.016 30.5245 179.978 30.1855 179.907 29.8492C179.825 29.5102 179.683 29.1764 179.492 28.8698C179.293 28.5697 179.05 28.3071 178.784 28.0897C178.516 27.8827 178.234 27.7029 177.948 27.5761C177.375 27.3044 176.799 27.1776 176.239 27.0974C175.679 27.025 175.13 27.012 174.594 27.0379C173.52 27.0896 172.496 27.2927 171.498 27.5502C170.501 27.8115 169.533 28.1389 168.59 28.5166C164.823 30.0394 161.433 32.3228 158.532 35.1069C157.11 36.4899 155.755 37.9014 154.429 39.3543C153.106 40.8058 151.823 42.2884 150.565 43.7866C148.045 46.7777 145.655 49.8555 143.132 52.7534C142.897 53.0213 142.652 53.2761 142.414 53.5387C143.534 51.7223 144.505 49.8063 145.257 47.7855C145.754 46.4491 146.146 45.0674 146.41 43.6533C146.671 42.2393 146.802 40.7929 146.764 39.3439C146.75 38.6194 146.689 37.8949 146.587 37.1756C146.542 36.8146 146.473 36.4589 146.408 36.1005C146.331 35.746 146.257 35.3889 146.161 35.0396C146.075 34.6864 145.963 34.341 145.858 33.993C145.739 33.6502 145.628 33.3048 145.491 32.9684L145.11 32.0019C144.988 31.6876 144.855 31.3771 144.742 31.0601C144.26 29.8013 143.837 28.527 143.462 27.2423C143.09 25.9576 142.78 24.66 142.562 23.352C142.12 20.7413 142.036 18.0891 142.473 15.5185C142.897 12.9453 143.868 10.482 145.192 8.19595C145.335 7.95014 145.495 7.71209 145.644 7.47016C145.547 7.7923 145.442 8.11186 145.349 8.43529C144.598 11.1056 144.024 13.8496 143.866 16.6777C143.79 18.0904 143.819 19.5265 144.044 20.9638C144.267 22.3973 144.685 23.8424 145.421 25.1723C145.789 25.8347 146.235 26.4635 146.755 27.0301C147.274 27.5968 147.864 28.0988 148.502 28.5218C149.139 28.9436 149.816 29.2967 150.516 29.5684C151.215 29.8375 151.931 30.0484 152.665 30.1972C154.138 30.4767 155.667 30.4947 157.13 30.2282C157.862 30.0989 158.58 29.9126 159.274 29.6758C159.967 29.4352 160.64 29.148 161.288 28.8271C161.94 28.5076 162.562 28.144 163.166 27.7598C163.771 27.3756 164.354 26.9628 164.915 26.5294C166.042 25.6652 167.088 24.7182 168.078 23.7246C170.055 21.7349 171.802 19.5614 173.397 17.2961C174.194 16.1628 174.953 15.0049 175.675 13.825C176.035 13.2351 176.388 12.6386 176.73 12.037C176.901 11.7356 177.069 11.4329 177.236 11.1275C177.403 10.8196 177.562 10.5208 177.728 10.1909C177.888 9.87262 177.884 9.48065 177.682 9.15721C177.372 8.66042 176.715 8.50905 176.217 8.81696L176.207 8.82343C176.046 8.92305 175.845 9.03818 175.661 9.14426C175.471 9.25164 175.28 9.35643 175.086 9.46122C174.698 9.66692 174.307 9.87004 173.912 10.0628C173.12 10.4509 172.313 10.8106 171.497 11.1418C169.862 11.8003 168.185 12.3501 166.48 12.7305C165.628 12.9271 164.768 13.0708 163.909 13.173C163.048 13.2816 162.186 13.3178 161.329 13.3127L160.686 13.2971L160.049 13.2493C159.836 13.2389 159.627 13.2066 159.416 13.1794L159.1 13.138L158.943 13.1173L158.787 13.0876L158.164 12.9685C157.957 12.9271 157.755 12.8663 157.551 12.8172L157.246 12.7395C157.145 12.7098 157.047 12.6749 156.946 12.6425C156.747 12.5765 156.547 12.5144 156.35 12.4446C154.792 11.8559 153.236 10.9969 152.281 9.85193C152.046 9.56602 151.853 9.26587 151.72 8.95925C151.593 8.65134 151.512 8.34086 151.507 8.03037C151.481 7.41196 151.729 6.78059 152.174 6.20876C152.616 5.63435 153.244 5.13887 153.937 4.72875C154.633 4.31605 155.408 3.99389 156.208 3.73255C157.816 3.21765 159.542 2.96409 161.278 2.90845C162.147 2.88387 163.019 2.90977 163.892 2.95635C164.763 3.00551 165.648 3.07407 166.51 3.17886C167.373 3.28495 168.225 3.43501 169.03 3.66141C169.432 3.77526 169.821 3.90852 170.179 4.06894C170.536 4.22936 170.87 4.41695 171.127 4.63171C171.388 4.84647 171.562 5.07807 171.639 5.30448C171.714 5.53088 171.707 5.78831 171.601 6.08716C171.498 6.38343 171.294 6.69523 171.047 6.98762C170.795 7.27871 170.498 7.55556 170.17 7.80655C169.519 8.3124 168.767 8.73028 167.982 9.06794C167.195 9.4069 166.365 9.66177 165.52 9.83255C165.315 9.87783 165.081 9.90886 164.861 9.95285C164.636 9.99942 164.426 10.0331 164.212 10.0654C163.784 10.1288 163.35 10.1676 162.915 10.1857C162.044 10.2219 161.165 10.1766 160.296 10.0512C159.429 9.92437 158.568 9.71867 157.757 9.41076C157.353 9.25293 156.959 9.0718 156.61 8.84669C156.434 8.73543 156.269 8.61125 156.132 8.47671C155.997 8.34345 155.883 8.19337 155.841 8.05753C155.797 7.92169 155.806 7.80913 155.888 7.67847C155.967 7.54909 156.115 7.42232 156.286 7.31753C156.628 7.10277 157.049 6.96171 157.47 6.84398C158.324 6.61499 159.221 6.49856 160.118 6.41577C161.017 6.33685 161.923 6.30193 162.828 6.28899C163.735 6.27605 164.642 6.2851 165.55 6.30968C163.741 6.14279 161.924 6.03024 160.097 6.07682C159.184 6.10657 158.266 6.16737 157.351 6.35496C157.236 6.37696 157.122 6.40413 157.008 6.43389C156.893 6.46106 156.779 6.496 156.666 6.53093C156.438 6.60338 156.21 6.68877 155.988 6.81038C155.768 6.932 155.542 7.08206 155.365 7.32787C155.274 7.4456 155.21 7.59952 155.177 7.75865C155.151 7.92037 155.156 8.08859 155.199 8.23737C155.278 8.5401 155.448 8.76392 155.62 8.95668C155.796 9.15074 155.988 9.30857 156.187 9.45218C156.584 9.74068 157.008 9.9619 157.439 10.1585C158.305 10.5428 159.209 10.8106 160.129 10.9969C161.048 11.1819 161.986 11.2828 162.931 11.2957C163.403 11.3022 163.878 11.2854 164.35 11.2427C164.586 11.2207 164.827 11.1935 165.048 11.1612C165.276 11.1275 165.493 11.112 165.735 11.0745C166.679 10.9374 167.606 10.6993 168.503 10.3655C169.401 10.0292 170.272 9.60484 171.083 9.03948C171.489 8.75744 171.878 8.43528 172.238 8.0601C172.593 7.68103 172.929 7.24634 173.159 6.70039C173.273 6.4287 173.359 6.12856 173.391 5.80901C173.425 5.48946 173.402 5.15178 173.316 4.83093C173.232 4.51009 173.087 4.21513 172.914 3.95768C172.741 3.70152 172.544 3.47253 172.332 3.28365C171.91 2.89553 171.455 2.61865 170.997 2.38319C170.54 2.15032 170.075 1.96662 169.611 1.81008C168.681 1.49829 167.749 1.28872 166.818 1.127C165.884 0.963994 164.961 0.850124 164.021 0.789318C163.082 0.728513 162.136 0.728503 161.191 0.771196C159.301 0.860464 157.399 1.11922 155.548 1.71433C154.625 2.01577 153.714 2.39227 152.847 2.90459C151.987 3.4169 151.154 4.05083 150.485 4.91116C150.154 5.34197 149.859 5.82324 149.661 6.36661C149.557 6.63441 149.487 6.92034 149.433 7.21014C149.39 7.50123 149.358 7.79748 149.373 8.09504C149.386 8.68886 149.537 9.26847 149.758 9.79243C149.984 10.3151 150.29 10.7808 150.628 11.1935C151.312 12.0189 152.128 12.6399 152.968 13.16C153.391 13.4175 153.823 13.6465 154.258 13.8586C154.69 14.0721 155.152 14.2442 155.603 14.4305C155.833 14.512 156.066 14.5844 156.298 14.662C156.413 14.6995 156.529 14.7397 156.646 14.7733L157 14.8638C157.236 14.9221 157.47 14.9906 157.708 15.0385L158.422 15.1744L158.601 15.208L158.78 15.2313L159.139 15.2779C159.378 15.3089 159.617 15.3438 159.858 15.3568L160.578 15.4111L161.298 15.4279C162.255 15.4344 163.211 15.3917 164.152 15.274C165.094 15.1614 166.029 15.0062 166.945 14.794C168.783 14.3826 170.566 13.7978 172.297 13.1005C172.908 12.8534 173.505 12.5714 174.102 12.2945C174.017 12.4355 173.936 12.5791 173.851 12.7188C173.152 13.8612 172.417 14.9816 171.646 16.0761C170.107 18.2625 168.426 20.3493 166.559 22.2278C165.625 23.1645 164.645 24.0507 163.607 24.8463C163.09 25.2474 162.558 25.6226 162.01 25.9706C161.464 26.3186 160.906 26.6446 160.331 26.9253C159.758 27.2087 159.171 27.4583 158.575 27.6666C157.976 27.8697 157.369 28.0276 156.755 28.135C155.529 28.3601 154.282 28.3394 153.069 28.113C152.464 27.9901 151.867 27.8141 151.291 27.5929C150.717 27.3717 150.179 27.0871 149.678 26.7572C148.678 26.0948 147.863 25.2034 147.279 24.1464C146.694 23.0894 146.336 21.8849 146.143 20.6365C145.946 19.3867 145.915 18.0891 145.985 16.7889C146.13 14.1833 146.669 11.5687 147.392 9.00841C147.758 7.72761 148.173 6.45718 148.629 5.20226C148.858 4.5748 149.098 3.95121 149.348 3.3328C149.474 3.0236 149.602 2.71572 149.732 2.41039C149.862 2.10766 150 1.79455 150.13 1.51381L150.134 1.50476C150.326 1.09077 150.232 0.584919 149.872 0.266661C149.431 -0.12146 148.759 -0.0813444 148.369 0.357231C146.511 2.44402 144.761 4.66922 143.335 7.13508C141.91 9.59318 140.83 12.3152 140.362 15.1614C140.123 16.5806 140.023 18.0206 140.048 19.4501C140.071 20.881 140.217 22.3015 140.452 23.6988C140.685 25.0973 141.014 26.4712 141.405 27.8206C141.798 29.1687 142.239 30.4999 142.739 31.8027C142.858 32.1313 142.993 32.4522 143.12 32.7782L143.494 33.7265C143.616 34.0254 143.715 34.3333 143.821 34.6386C143.914 34.9478 144.015 35.2544 144.089 35.5675C144.175 35.878 144.239 36.1937 144.309 36.5093C144.365 36.8263 144.429 37.1433 144.468 37.4628C144.557 38.1006 144.612 38.7449 144.625 39.3918C144.694 41.9792 144.163 44.5796 143.248 47.0481C142.33 49.5204 141.035 51.8685 139.518 54.0692C138.759 55.1688 137.941 56.2323 137.076 57.2556C136.643 57.7666 136.198 58.2686 135.742 58.7564C135.513 59.0009 135.283 59.2415 135.049 59.477L134.696 59.8263C134.581 59.9388 134.454 60.0604 134.35 60.1549L134.343 60.1613C134.004 60.4718 133.897 60.9777 134.11 61.4098C134.371 61.9338 135.01 62.1498 135.536 61.8898C137.401 60.9725 139.067 59.7525 140.569 58.4161C141.319 57.7447 142.035 57.046 142.726 56.3306C143.414 55.6126 144.078 54.8803 144.729 54.1403C146.023 52.6564 147.264 51.144 148.494 49.6342C149.724 48.1258 150.946 46.6198 152.191 45.1385C153.434 43.6572 154.698 42.1979 155.996 40.7735C157.294 39.3529 158.636 37.957 160.004 36.6245C162.712 34.0215 165.906 31.8764 169.376 30.4779C170.241 30.126 171.127 29.8401 172.02 29.615C172.912 29.3977 173.815 29.2489 174.692 29.2075C175.129 29.1881 175.559 29.1894 175.968 29.2333C176.373 29.2734 176.763 29.3537 177.079 29.4843C177.245 29.5451 177.376 29.628 177.501 29.7069C177.617 29.7923 177.71 29.8854 177.789 29.985C177.86 30.0898 177.92 30.2011 177.961 30.333C177.994 30.4702 178.029 30.6151 178.024 30.7871C178.03 31.1222 177.953 31.5103 177.819 31.9023C177.685 32.2956 177.498 32.6928 177.285 33.0848C176.857 33.8701 176.31 34.6282 175.723 35.3592C175.58 35.5429 175.421 35.7227 175.268 35.9038L174.804 36.4459C174.488 36.803 174.161 37.151 173.84 37.5029C173.505 37.8432 173.176 38.1899 172.835 38.5249L172.317 39.023C172.146 39.1899 171.973 39.3555 171.793 39.5147C170.38 40.811 168.891 42.0349 167.335 43.1785C165.781 44.3235 164.16 45.3831 162.498 46.3805C159.166 48.3612 155.677 50.1155 152.033 51.5063C153.905 50.9487 155.734 50.2552 157.539 49.5049C159.344 48.7506 161.121 47.9239 162.857 47.0131C166.326 45.1903 169.662 43.0711 172.705 40.5432C174.226 39.2792 175.666 37.9156 177 36.4291C177.669 35.6762 178.308 34.8831 178.858 33.9878C179.133 33.5389 179.386 33.068 179.593 32.5505C179.805 32.0421 179.965 31.4754 179.994 30.8389Z" fill="#955D34"/>
<path d="M85.1418 45.3523C85.3286 45.3818 85.4983 45.458 85.6507 45.581C85.808 45.7039 85.9309 45.8563 86.0194 46.0382C86.1128 46.2201 86.1596 46.4144 86.1596 46.6209C86.1596 46.8814 86.0932 47.1174 85.9604 47.3289C85.8277 47.5354 85.6335 47.7001 85.3778 47.823C85.127 47.941 84.8296 48 84.4854 48H82.5679V42.8596H84.4117C84.7607 42.8596 85.0582 42.9186 85.304 43.0366C85.5499 43.1496 85.7343 43.3045 85.8572 43.5012C85.9801 43.6979 86.0416 43.9191 86.0416 44.1649C86.0416 44.4698 85.958 44.723 85.7908 44.9246C85.6285 45.1213 85.4122 45.2638 85.1418 45.3523ZM83.239 45.0795H84.3674C84.6821 45.0795 84.9255 45.0057 85.0975 44.8582C85.2696 44.7107 85.3557 44.5067 85.3557 44.2461C85.3557 43.9855 85.2696 43.7814 85.0975 43.6339C84.9255 43.4864 84.6772 43.4127 84.3527 43.4127H83.239V45.0795ZM84.4264 47.4469C84.7607 47.4469 85.0213 47.3682 85.2082 47.2109C85.395 47.0535 85.4884 46.8347 85.4884 46.5545C85.4884 46.2693 85.3901 46.0456 85.1934 45.8833C84.9967 45.7162 84.7337 45.6326 84.4043 45.6326H83.239V47.4469H84.4264ZM87.762 43.4053V45.1237H89.6353V45.6768H87.762V47.4469H89.8566V48H87.0909V42.8522H89.8566V43.4053H87.762ZM93.9106 46.8569H91.6686L91.2556 48H90.5476L92.4061 42.8891H93.1805L95.0316 48H94.3236L93.9106 46.8569ZM93.7189 46.3111L92.7896 43.7151L91.8603 46.3111H93.7189ZM96.498 42.8596V46.112C96.498 46.5692 96.6086 46.9085 96.8299 47.1297C97.0561 47.351 97.3683 47.4616 97.7665 47.4616C98.1599 47.4616 98.4672 47.351 98.6884 47.1297C98.9146 46.9085 99.0277 46.5692 99.0277 46.112V42.8596H99.6988V46.1046C99.6988 46.5324 99.6128 46.8937 99.4407 47.1887C99.2686 47.4788 99.035 47.6952 98.74 47.8377C98.4499 47.9803 98.123 48.0516 97.7591 48.0516C97.3953 48.0516 97.0659 47.9803 96.7709 47.8377C96.4808 47.6952 96.2497 47.4788 96.0776 47.1887C95.9105 46.8937 95.8269 46.5324 95.8269 46.1046V42.8596H96.498ZM103.982 42.8596V43.4053H102.581V48H101.91V43.4053H100.501V42.8596H103.982ZM108.407 42.8596L106.733 46.0603V48H106.062V46.0603L104.381 42.8596H105.126L106.394 45.463L107.663 42.8596H108.407Z" fill="#955D34"/>
</svg>
