<svg width="64" height="64" viewBox="0 0 64 64" fill="none" xmlns="http://www.w3.org/2000/svg">
<rect width="64" height="64" fill="white"/>
<g clip-path="url(#clip0_69_36522)">
<path d="M51.7838 19.7755C51.3758 18.0523 50.3955 16.3479 49.0237 14.9761C47.6417 13.5941 45.9936 12.6424 44.2575 12.224C42.5064 11.8018 40.8009 11.9804 39.4552 12.7268C39.0983 12.9248 38.5011 13.256 36.1504 18.655C35.2014 20.8347 34.3418 22.9835 34.1088 23.5704L28.773 29.2396C28.4183 28.9058 27.8599 28.9123 27.513 29.259C27.1596 29.6124 27.1596 30.1855 27.513 30.539L27.5322 30.5581L12.9506 46.0511C11.6544 47.4285 11.688 49.6371 13.0254 50.9745C13.7079 51.657 14.6171 51.9998 15.5271 51.9998C16.4003 51.9998 17.2743 51.6839 17.9489 51.0492L33.442 36.4676L33.461 36.4867C33.8144 36.84 34.3875 36.84 34.741 36.4867C35.0878 36.1398 35.0942 35.5815 34.7604 35.2268L40.4946 29.8299C41.091 29.597 43.205 28.765 45.3511 27.8444C50.7004 25.5498 51.0394 24.9553 51.2419 24.6C52.0095 23.254 52.202 21.5406 51.7838 19.7755ZM16.7083 49.7311C16.0474 50.3532 14.947 50.3363 14.3052 49.6946C13.6635 49.0529 13.6468 47.9524 14.2687 47.2916L28.8127 31.8384L32.1614 35.1872L16.7083 49.7311ZM33.4801 33.946L30.0538 30.5197L34.9692 25.2971L35.9834 26.3114C35.9897 26.3178 35.9961 26.3243 36.0026 26.3305L37.6715 27.9993C37.6765 28.0045 37.6814 28.0094 37.6865 28.0143L38.7028 29.0307L33.4801 33.946ZM49.6931 23.6616C49.0513 24.3066 44.4146 26.3516 40.2246 27.9927L39.694 27.4621L45.0477 23.4259C45.4468 23.1249 45.5264 22.5574 45.2255 22.1583C44.9247 21.7594 44.3572 21.6797 43.958 21.9805L38.4016 26.1696L37.8302 25.5982L42.0193 20.0419C42.3202 19.6428 42.2406 19.0752 41.8415 18.7743C41.4423 18.4735 40.8748 18.5531 40.574 18.9522L36.5378 24.3057L35.9839 23.7519C37.662 19.5466 39.7302 14.9287 40.3782 14.285C42.4155 13.1921 45.5031 14.0151 47.744 16.2559C50.0061 18.5181 50.8203 21.6232 49.6931 23.6616Z" fill="#6B0606"/>
</g>
<defs>
<clipPath id="clip0_69_36522">
<rect width="40" height="40" fill="white" transform="translate(12 12)"/>
</clipPath>
</defs>
</svg>
