<svg width="112" height="112" viewBox="0 0 112 112" fill="none" xmlns="http://www.w3.org/2000/svg">
<g clip-path="url(#clip0_69_35761)">
<path d="M70.2303 71.5671C70.289 71.3442 70.282 71.1089 70.2102 70.8899C70.1384 70.6709 70.005 70.4778 69.8262 70.3341C67.7057 68.2019 65.2729 66.4112 62.6129 65.0248C58.3806 62.7964 53.6919 61.5926 48.9184 61.509L51.3027 60.6122C53.3232 59.8581 55.4045 59.0837 57.42 58.2277C59.4636 57.3705 61.4496 56.3799 63.3655 55.2621C63.5928 56.1742 64.5879 56.7907 65.9568 56.9079C67.5228 57.02 69.0837 57.0812 70.6446 57.0812C76.9664 57.0794 83.2524 56.1245 89.2944 54.2482C89.3804 54.2218 89.4604 54.1785 89.5298 54.1207C89.5991 54.063 89.6564 53.992 89.6985 53.9119C89.7973 53.7384 89.8522 53.5431 89.8583 53.3431C89.8645 53.1432 89.8218 52.9448 89.7339 52.7654C89.5407 52.4527 89.2817 52.1866 88.9753 51.9858C88.6689 51.7851 88.3227 51.6547 87.9608 51.6038C82.827 50.6809 77.5831 50.5588 72.4126 51.2419C72.0034 51.2929 71.5438 51.3388 71.0588 51.3897C70.2001 51.4814 69.2604 51.5783 68.3411 51.7311C70.4301 49.9583 72.1739 47.8088 73.4834 45.3925C75.5696 41.459 76.2516 36.8528 76.8477 32.7918C76.8651 32.6782 76.8543 32.562 76.8164 32.4535C76.7785 32.3451 76.7147 32.2478 76.6305 32.1702C76.5447 32.0944 76.4421 32.0405 76.3314 32.013C76.2206 31.9855 76.1049 31.9852 75.9941 32.0122C67.9926 34.0504 61.9965 42.5086 62.6279 50.814C62.6397 51.7963 62.95 52.7513 63.517 53.5501C61.3969 54.852 59.1794 55.9849 56.8845 56.9385C55.4752 57.5347 54.0305 58.09 52.5959 58.6301L52.6615 58.5537C53.601 57.4124 54.768 56.4647 55.6065 55.2367C57.0057 53.1986 57.3442 50.5439 57.0462 48.0727C56.7482 45.6014 55.8641 43.2423 54.9852 40.9392C54.251 38.9928 53.5168 37.043 52.7827 35.0898C51.6057 35.2325 50.843 36.4044 50.3934 37.5101C49.3225 40.1495 49.0952 43.064 49.1659 45.9174C49.255 49.4076 49.7639 52.874 50.6814 56.2405C50.8604 57.0959 51.1157 57.9332 51.4441 58.7422C51.5047 58.8594 51.5553 58.9563 51.6058 59.0378L50.8329 59.3282C47.8021 60.4645 44.6803 61.6364 41.6999 63.0885C42.9461 60.5064 43.1894 57.5473 42.3819 54.7934C41.0483 50.391 37.487 47.3186 34.734 45.5148C34.5455 45.3638 34.3273 45.2552 34.0938 45.1964C33.8603 45.1375 33.617 45.1297 33.3803 45.1735C32.9105 45.2958 32.37 45.683 32.2892 46.9721L32.0113 53.7998C31.9026 55.2053 31.9501 56.6187 32.1528 58.0136C32.4862 59.8428 34.1986 63.2822 36.4313 64.7343C36.8198 64.9871 37.2438 65.1795 37.6891 65.305C35.0226 66.9872 32.5812 69.0079 30.4251 71.3175C29.0916 72.7493 27.2326 74.9657 26.5255 77.6764C26.5028 77.7658 26.498 77.8588 26.5111 77.95C26.5243 78.0413 26.5552 78.129 26.6022 78.2081C26.6491 78.2872 26.7113 78.3562 26.7848 78.411C26.8583 78.4658 26.9418 78.5053 27.0306 78.5274C27.0893 78.5348 27.1487 78.5348 27.2074 78.5274C27.3585 78.5275 27.5054 78.4777 27.6258 78.3857C27.7462 78.2937 27.8335 78.1645 27.8743 78.0178C28.3794 76.1631 29.4603 74.3848 31.4455 72.2601C32.2461 71.396 33.089 70.573 33.9712 69.794C33.9452 69.8877 33.925 69.983 33.9107 70.0793C33.451 73.646 42.8416 72.1684 44.4227 71.4347C44.4933 71.4117 44.5539 71.3649 44.5944 71.3022C44.6651 71.1442 44.4832 71.0016 44.3317 70.9302C43.2406 70.4207 37.8204 68.1278 35.2391 68.7291C36.3552 67.8359 37.5243 67.0123 38.7399 66.2629C40.1153 65.4273 41.5351 64.6687 42.9931 63.9904C42.9639 64.3685 43.012 64.7486 43.1346 65.1071C43.2571 65.4656 43.4514 65.7948 43.7053 66.0744C45.5036 68.4131 48.4335 69.8144 50.5753 70.5787C53.6668 71.6793 56.9654 72.0563 60.077 72.3518C61.7592 72.5047 63.5019 72.6473 65.2497 72.6473C66.5635 72.655 67.876 72.5579 69.1746 72.3569C69.4089 72.3475 69.6349 72.2671 69.8232 72.1262C70.0115 71.9854 70.1534 71.7905 70.2303 71.5671ZM74.7463 33.8618C74.0492 35.4618 73.3167 37.0872 72.4782 38.6311C72.0033 39.4973 71.4679 40.3584 70.9627 41.1787C70.2303 42.3914 69.4473 43.6448 68.8412 44.9492C68.5482 45.5556 68.2552 46.1874 67.9622 46.8294C67.1104 48.8728 66.0561 50.8239 64.8152 52.6534L64.6839 52.7502C64.5461 52.6132 64.4333 52.4527 64.3505 52.2763C64.5904 50.3478 64.9738 48.4402 65.4972 46.5696C66.0493 44.4618 66.8711 42.4355 67.942 40.5418C69.1391 38.6151 70.5289 36.8173 72.0893 35.1764C72.9326 34.6602 73.8221 34.2252 74.7463 33.8772V33.8618ZM75.3171 33.6529C75.0797 35.2478 74.812 36.8528 74.4584 38.4323C71.8064 42.6767 69.1898 46.9925 66.654 51.3031C66.3307 51.5629 65.9973 51.8126 65.6437 52.0776C66.6435 50.4456 67.5248 48.7427 68.2805 46.9823C68.5735 46.3403 68.8665 45.7085 69.1595 45.1072C69.7808 43.8181 70.5334 42.5595 71.2659 41.3621C71.771 40.5265 72.2762 39.6603 72.7813 38.789C73.6855 37.1382 74.4533 35.3905 75.1959 33.6937L75.3171 33.6529ZM66.0629 55.4965C65.2143 55.4354 64.7597 55.1144 64.7091 54.9055C64.7028 54.8701 64.7028 54.8338 64.7091 54.7985C70.6021 53.9948 76.5437 53.61 82.4901 53.6469H82.8135C84.2061 53.6955 85.6003 53.624 86.9809 53.433C80.177 55.3252 73.1021 56.0283 66.0629 55.5118V55.4965ZM71.2003 52.7654C71.7054 52.7145 72.1752 52.6636 72.5894 52.6075C74.7268 52.3288 76.8798 52.1892 79.035 52.1897C81.9139 52.19 84.7873 52.4441 87.6224 52.9489C86.0435 53.2535 84.4344 53.3698 82.8285 53.2954H82.5103C76.6525 53.2621 70.7993 53.6349 64.9921 54.4112C65.1204 54.2868 65.2608 54.1759 65.4112 54.0801C66.7448 53.2444 69.2151 52.9846 71.2003 52.7807V52.7654ZM72.261 44.72C71.0332 46.974 69.4028 48.9796 67.452 50.6356C69.6544 46.9059 71.9175 43.171 74.2109 39.4871C73.7717 41.309 73.117 43.0709 72.261 44.7352V44.72ZM70.9072 36.0172C69.6916 37.3653 68.6042 38.8256 67.6592 40.3788C66.5748 42.3006 65.7411 44.3558 65.1789 46.4931C64.7171 48.1513 64.3628 49.838 64.1182 51.5426C64.0623 51.2635 64.0252 50.9809 64.0071 50.6968C63.5827 45.0919 66.4418 39.4106 70.8921 36.0325L70.9072 36.0172ZM45.2865 63.3382C52.4151 64.0301 59.3881 65.8672 65.9417 68.78C66.2043 68.9838 66.4468 69.1825 66.7196 69.3914C65.6335 69.2793 64.593 69.2437 63.5776 69.208C61.9169 69.1909 60.26 69.0427 58.6222 68.7647C54.97 68.0769 51.1915 67.3686 47.6252 66.1152C47.0068 65.9123 46.4354 65.5851 45.9458 65.1533C45.4561 64.7216 45.0583 64.1943 44.7763 63.6032C44.9392 63.5058 45.1098 63.4223 45.2865 63.3535V63.3382ZM64.5778 67.817C58.685 65.3648 52.4774 63.7677 46.1401 63.0732C46.5701 62.9762 47.0082 62.9199 47.4485 62.9051C47.7718 62.9051 48.095 62.9051 48.4234 62.9051C53.141 62.9123 57.7876 64.064 61.9713 66.2629C62.8663 66.7349 63.7363 67.2537 64.5778 67.817ZM37.9518 55.7615C38.1984 57.5241 38.2306 59.3105 38.0478 61.081C37.9972 61.9319 37.9417 62.8032 37.9366 63.6694C36.593 61.6721 35.8807 59.3231 35.3654 57.2544C34.4908 53.7476 33.9496 50.1647 33.749 46.5543C35.8201 48.6434 37.1941 51.6649 37.9518 55.7768V55.7615ZM38.2902 55.7003C37.6285 52.0827 36.4768 49.2955 34.8098 47.2217C35.6899 47.8514 36.5223 48.5463 37.3002 49.3007C39.643 53.8197 40.166 59.0766 38.76 63.9751C38.6022 63.9929 38.443 63.9929 38.2852 63.9751C38.2852 63.0223 38.3357 62.0542 38.3912 61.1116C38.5768 59.3155 38.5429 57.5033 38.2902 55.7156V55.7003ZM41.0483 55.1908C41.5494 56.8681 41.5982 58.6497 41.1897 60.3524C40.7098 62.3141 39.9521 63.6235 39.1692 63.9191C40.4355 59.3404 40.0599 54.458 38.1084 50.1312C39.4456 51.5751 40.4495 53.2994 41.0483 55.1806V55.1908ZM33.5065 57.7385C33.322 56.4461 33.2813 55.137 33.3853 53.8355L33.5823 48.9542C33.8599 51.787 34.3445 54.5954 35.0321 57.3563C35.5129 59.6171 36.3666 61.7805 37.5578 63.7561C37.4185 63.6901 37.2835 63.6152 37.1537 63.5318C35.3351 62.3395 33.7995 59.3537 33.5116 57.7385H33.5065ZM60.2134 70.9455C57.1826 70.6653 53.985 70.3035 51.045 69.2539C49.075 68.5507 46.3928 67.282 44.8016 65.2082C44.5338 64.8566 44.2459 64.3624 44.4126 64.0108C44.4378 63.9577 44.472 63.9094 44.5136 63.8681C45.1329 65.0981 46.2099 66.0306 47.5091 66.4616C51.1006 67.7202 54.8943 68.4335 58.5566 69.1265C60.2128 69.4064 61.8883 69.5547 63.5675 69.5698C64.7395 69.6105 65.9417 69.6513 67.2096 69.8093C67.6693 70.2016 68.1189 70.6042 68.5533 71.0271C65.8407 71.4143 63.0422 71.2105 60.2134 70.9455ZM68.8917 71.2716L69.3362 70.8283L68.9221 71.4092C68.8934 71.3687 68.8759 71.3212 68.8715 71.2716H68.8917Z" fill="#955D34"/>
<path d="M80.8425 39.3508C80.2835 39.1817 79.6935 39.1433 79.1176 39.2386C78.5416 39.334 77.9949 39.5605 77.5188 39.9011C77.0337 40.3207 76.6948 40.8862 76.552 41.5145C76.4093 42.1427 76.4701 42.8006 76.7257 43.3914C76.9618 43.8879 77.3312 44.3077 77.7919 44.6031C78.2527 44.8985 78.7862 45.0577 79.3321 45.0627C79.5296 45.0621 79.7263 45.0381 79.9182 44.9913C80.459 44.8357 80.9545 44.5506 81.3626 44.1603C81.7707 43.7699 82.0793 43.2859 82.262 42.7494C82.528 42.1473 82.585 41.4724 82.4237 40.8336C82.3076 40.4708 82.1013 40.1441 81.8246 39.8845C81.5478 39.6249 81.2097 39.4412 80.8425 39.3508ZM80.9688 42.2399C80.8635 42.5623 80.6856 42.8557 80.449 43.0971C80.2123 43.3384 79.9234 43.5211 79.6049 43.6309C79.2828 43.6941 78.9489 43.6479 78.6556 43.4995C78.3622 43.3511 78.1259 43.1088 77.9835 42.8106C77.8579 42.496 77.8317 42.1499 77.9086 41.8197C77.9855 41.4896 78.1615 41.1914 78.4128 40.9661C78.8073 40.7034 79.2741 40.5732 79.7464 40.5941C79.9822 40.5923 80.2169 40.6249 80.4434 40.6909C80.5854 40.7148 80.7193 40.7738 80.833 40.8627C80.9468 40.9516 81.0368 41.0677 81.0951 41.2004C81.1716 41.5489 81.1363 41.913 80.9941 42.2399H80.9688Z" fill="#955D34"/>
<path d="M85.1308 49.3326C85.6285 49.7537 86.2592 49.9815 86.9089 49.9746C87.3158 49.975 87.7183 49.8899 88.0909 49.725C88.4197 49.5806 88.7129 49.3648 88.9497 49.0931C89.1898 48.7893 89.3512 48.4299 89.4192 48.0473C89.4871 47.6648 89.4594 47.2712 89.3386 46.9021C89.2322 46.4687 89.0223 46.0681 88.7274 45.7351C88.4325 45.4021 88.0614 45.1468 87.6463 44.9914C87.2335 44.8778 86.7993 44.8682 86.3819 44.9632C85.9645 45.0583 85.5765 45.2552 85.252 45.5366C84.9829 45.741 84.755 45.9952 84.5802 46.2856C84.3149 46.781 84.2249 47.3527 84.3249 47.9066C84.425 48.4605 84.7092 48.9635 85.1308 49.3326ZM85.7774 46.999C85.8608 46.8598 85.9708 46.7386 86.1007 46.6423C86.2493 46.5018 86.4291 46.3993 86.6251 46.3435C86.8211 46.2876 87.0276 46.28 87.2272 46.3213C87.43 46.4148 87.6074 46.5563 87.7445 46.7337C87.8817 46.9111 87.9745 47.1191 88.0151 47.3403C88.0654 47.4856 88.0807 47.6409 88.0596 47.7933C88.0385 47.9457 87.9817 48.0909 87.8939 48.2168C87.7895 48.3262 87.664 48.4129 87.5251 48.4715C87.2849 48.5836 87.0188 48.6267 86.7559 48.5961C86.4931 48.5656 86.2436 48.4625 86.035 48.2982C85.8536 48.1423 85.7295 47.9294 85.6828 47.6937C85.636 47.458 85.6694 47.2133 85.7774 46.999Z" fill="#955D34"/>
<path d="M87.3441 39.3932C87.592 39.5879 87.8939 39.7001 88.2078 39.7142C88.4103 39.6942 88.6038 39.6205 88.7688 39.5006C88.9339 39.3807 89.0644 39.2188 89.1473 39.0314C89.3111 38.6551 89.3789 38.2435 89.3444 37.834C89.2888 36.2341 87.0713 36.815 86.7025 37.9665C86.638 38.1423 86.6205 38.3321 86.652 38.5168C86.7045 38.7016 86.7927 38.8741 86.9114 39.0245C87.0302 39.1749 87.1773 39.3002 87.3441 39.3932Z" fill="#955D34"/>
<path d="M12.2453 34.8899L9.71457 33.6211L10.8511 31.3028L13.3869 32.5664L14.1144 31.0786L8.05265 28.0469L7.3202 29.5347L9.6691 30.7117L8.52748 33.0301L6.17858 31.8531L5.45117 33.3358L11.5179 36.3675L12.2453 34.8899Z" fill="#955D34"/>
<path d="M19.5995 23.3772L18.5741 22.5569L16.9677 24.595L15.7907 23.6473L17.2152 21.8435L16.2454 21.0639L14.8259 22.8779L13.7146 21.9862L15.3159 19.9532L14.2955 19.1328L11.6738 22.4651L16.9829 26.7095L19.5995 23.3772Z" fill="#955D34"/>
<path d="M24.3332 18.6555L22.6865 16.6836L22.9743 16.4441L25.7375 17.4632L27.1267 16.2861L24.1817 15.2671C24.4745 14.893 24.6313 14.4291 24.6261 13.9525C24.6066 13.4944 24.4278 13.0578 24.121 12.7194C23.8777 12.4162 23.5587 12.1841 23.1967 12.0469C22.8341 11.9188 22.4418 11.9028 22.0702 12.001C21.6188 12.1257 21.202 12.3542 20.8527 12.6685L18.7109 14.4875L23.0704 19.7102L24.3332 18.6555ZM20.8628 14.4977L21.6357 13.8353C21.823 13.6532 22.0728 13.551 22.3329 13.55C22.4478 13.5638 22.5588 13.6007 22.6595 13.6584C22.7601 13.7162 22.8483 13.7937 22.9188 13.8863C23.0002 13.9707 23.063 14.0716 23.1031 14.1822C23.1431 14.2929 23.1595 14.4108 23.1512 14.5283C23.0999 14.7839 22.9535 15.0101 22.742 15.1601L21.964 15.8173L20.8628 14.4977Z" fill="#955D34"/>
<path d="M33.9459 12.0753C34.4891 11.8311 34.928 11.3992 35.1834 10.8575C35.2778 10.6168 35.316 10.3574 35.2949 10.0994C35.2739 9.84137 35.1943 9.59171 35.0622 9.36973C34.8888 9.02932 34.6029 8.76077 34.2539 8.61053C33.8943 8.45626 33.4932 8.43107 33.1174 8.53919C33.3797 8.31352 33.5579 8.00433 33.6225 7.66275C33.6811 7.29772 33.6134 6.92351 33.4306 6.60295C33.3289 6.37891 33.176 6.18229 32.9847 6.0291C32.7933 5.87592 32.5687 5.77052 32.3293 5.72147C31.7644 5.65273 31.1931 5.77838 30.7078 6.07812L27.9902 7.53537L31.1625 13.5683L33.9459 12.0753ZM32.9911 9.56335C33.1 9.5839 33.2026 9.63013 33.2904 9.69832C33.3782 9.76651 33.4487 9.85468 33.4962 9.95564C33.7286 10.404 33.5771 10.7658 33.0417 11.0511L32.0314 11.6065L31.319 10.2512L32.3293 9.70087C32.5319 9.57625 32.7716 9.5276 33.0063 9.56335H32.9911ZM30.0511 7.92772L30.9806 7.41818C31.4858 7.14304 31.8646 7.22455 32.0919 7.65765C32.3192 8.09075 32.1828 8.43726 31.6827 8.70731L30.7331 9.21684L30.0511 7.92772Z" fill="#955D34"/>
<path d="M41.7946 7.53522L44.2446 6.86777L44.972 7.95817L46.6542 7.49958L42.5019 1.60938L40.6834 2.11891L40.0469 9.31858L41.7088 8.86515L41.7946 7.53522ZM42.0472 3.56602L43.5122 5.76717L41.8755 6.21045L42.0472 3.56602Z" fill="#955D34"/>
<path d="M55.1418 6.69014L55.066 5.42141L52.8888 5.55389L52.5605 0L50.9238 0.0968109L51.3279 6.91433L55.1418 6.69014Z" fill="#955D34"/>
<path d="M68.3455 5.39725L70.8207 6.08511L70.063 8.83149L71.6491 9.27478L73.4626 2.69673L71.8714 2.25344L71.1743 4.8011L68.6991 4.10813L69.4012 1.56048L67.8201 1.11719L66.0117 7.70033L67.5928 8.13852L68.3455 5.39725Z" fill="#955D34"/>
<path d="M79.2322 12.8566C79.7587 13.158 80.3544 13.3144 80.9598 13.3101C81.5557 13.2959 82.1369 13.1199 82.6419 12.8005C83.1695 12.4625 83.6052 11.997 83.9095 11.4463C84.2138 10.8956 84.3771 10.277 84.3846 9.64652C84.3829 9.04871 84.2168 8.46313 83.9048 7.9549C83.5884 7.43042 83.1383 7.00107 82.6015 6.71161C82.0765 6.40653 81.4797 6.24986 80.8739 6.25812C80.2793 6.27038 79.6993 6.44659 79.1968 6.76765C78.6626 7.09812 78.225 7.56589 77.9289 8.12302C77.6149 8.66906 77.4526 9.29044 77.4592 9.92168C77.4634 10.5223 77.6293 11.1105 77.939 11.6235C78.2554 12.1418 78.7014 12.5671 79.2322 12.8566ZM79.3889 8.93316C79.6145 8.46303 80.0105 8.09825 80.4951 7.9141C80.9558 7.78764 81.4473 7.848 81.8645 8.08222C82.2817 8.31644 82.5915 8.70599 82.7278 9.16759C82.8281 9.67883 82.7305 10.2095 82.455 10.6503C82.226 11.118 81.8312 11.4817 81.3487 11.6694C80.8886 11.7988 80.3965 11.7404 79.9787 11.5068C79.5609 11.2732 79.2511 10.8832 79.1161 10.421C79.0143 9.90814 79.112 9.37543 79.3889 8.93316Z" fill="#955D34"/>
<path d="M88.1918 19.3243C88.5606 19.6744 89.0077 19.9297 89.4952 20.0683C89.9623 20.1956 90.4564 20.1796 90.9145 20.0224C91.4427 19.831 91.9116 19.5023 92.2734 19.0695L94.9001 16.1499L93.6877 15.0442L91.061 17.9588C90.836 18.2524 90.5128 18.4534 90.1517 18.5244C89.9885 18.539 89.824 18.517 89.6703 18.4597C89.5165 18.4024 89.3774 18.3113 89.2628 18.1932C89.1346 18.0901 89.0312 17.9591 88.9603 17.8099C88.8894 17.6608 88.853 17.4975 88.8536 17.3321C88.8871 16.9632 89.0522 16.6192 89.3183 16.364L91.945 13.4444L90.7378 12.3438L88.1111 15.2583C87.722 15.6663 87.439 16.1652 87.2876 16.7104C87.165 17.171 87.1862 17.6585 87.3483 18.1065C87.5244 18.577 87.8144 18.9957 88.1918 19.3243Z" fill="#955D34"/>
<path d="M95.1383 27.2211C95.3843 27.5947 95.715 27.9039 96.1031 28.1229C96.426 28.3006 96.7917 28.3835 97.1589 28.3624C97.5049 28.3333 97.8366 28.21 98.1186 28.0058C98.437 27.7975 98.6812 27.4923 98.8158 27.1345C98.924 26.8295 98.9587 26.5029 98.9168 26.1817C98.856 25.8 98.7665 25.4235 98.649 25.0556C98.5632 24.7447 98.5026 24.5053 98.4673 24.3321C98.431 24.1642 98.431 23.9904 98.4673 23.8225C98.4971 23.6728 98.5819 23.5399 98.7047 23.4505C98.7695 23.3972 98.8453 23.359 98.9265 23.3388C99.0078 23.3185 99.0924 23.3166 99.1744 23.3333C99.3386 23.3767 99.4809 23.4803 99.5735 23.6238C99.633 23.701 99.6767 23.7895 99.7019 23.884C99.727 23.9785 99.7332 24.0771 99.72 24.1741C99.6809 24.3707 99.5798 24.5494 99.432 24.6836L100.442 26.1358C100.664 25.9555 100.847 25.7306 100.978 25.4753C101.11 25.2201 101.187 24.9401 101.205 24.6531C101.212 24.0036 100.996 23.3717 100.594 22.8646C100.353 22.512 100.043 22.2122 99.6846 21.9831C99.3707 21.787 99.0081 21.6845 98.6389 21.6876C98.269 21.7128 97.9131 21.8403 97.6101 22.056C97.3072 22.2717 97.069 22.5673 96.9215 22.9105C96.817 23.2093 96.7858 23.5292 96.8306 23.8429C96.8926 24.2188 96.9803 24.59 97.0933 24.9537C97.1792 25.2543 97.2448 25.4938 97.2801 25.6721C97.3101 25.8406 97.3101 26.0132 97.2801 26.1817C97.2437 26.3438 97.1482 26.4862 97.0125 26.5806C96.8768 26.675 96.7109 26.7145 96.5477 26.6912C96.3686 26.6509 96.2125 26.541 96.1132 26.3854C95.98 26.2078 95.9204 25.985 95.9466 25.7638C95.9836 25.537 96.1023 25.332 96.28 25.188L95.2697 23.7563C95.0295 23.9414 94.8336 24.1785 94.6963 24.4501C94.5591 24.7217 94.484 25.0209 94.4766 25.3256C94.4791 26.0146 94.7123 26.6825 95.1383 27.2211Z" fill="#955D34"/>
<path d="M100.745 37.3831L101.942 36.8379L100.887 34.4686L102.256 33.8469L103.195 35.9513L104.322 35.4418L103.382 33.3323L104.675 32.7463L105.731 35.1157L106.918 34.5756L105.19 30.7031L99.0176 33.5055L100.745 37.3831Z" fill="#955D34"/>
<path d="M3.85947 64.6381C4.48016 64.5793 5.07437 64.3561 5.58196 63.991C6.06266 63.6407 6.43985 63.1652 6.67308 62.6153C6.90592 62.0506 6.99286 61.4355 6.92571 60.8278C6.85857 60.22 6.63953 59.6393 6.28917 59.1402C5.94384 58.6536 5.47184 58.2726 4.92531 58.0396C4.34932 57.8057 3.72474 57.7196 3.10762 57.7889C2.4905 57.8583 1.90012 58.081 1.38932 58.4371C0.906579 58.7886 0.527655 59.266 0.293142 59.818C0.0513841 60.3769 -0.0358921 60.9913 0.040571 61.5962C0.0993489 62.2049 0.317244 62.7868 0.671998 63.2827C1.02042 63.7685 1.49374 64.1491 2.04091 64.3833C2.61427 64.6283 3.24164 64.7162 3.85947 64.6381ZM1.54588 61.428C1.50869 61.1899 1.52382 60.9465 1.59016 60.715C1.6565 60.4834 1.77242 60.2693 1.9298 60.088C2.28465 59.7109 2.76897 59.4849 3.2836 59.4562C3.79563 59.3669 4.32203 59.48 4.75352 59.7721C5.11817 60.0776 5.351 60.514 5.40283 60.9893C5.45466 61.4646 5.32146 61.9416 5.03137 62.3197C4.67347 62.6954 4.18823 62.921 3.67257 62.9515C3.16316 63.0366 2.64079 62.9217 2.2127 62.6305C2.02274 62.4899 1.86489 62.3098 1.74986 62.1023C1.63483 61.8949 1.56526 61.6649 1.54588 61.428Z" fill="#955D34"/>
<path d="M7.86995 74.3473C8.2385 74.2315 8.5698 74.0187 8.82973 73.7308C9.08039 73.4451 9.24051 73.0901 9.28942 72.7118C9.34364 72.2413 9.28647 71.7646 9.12269 71.3208L8.24375 68.6406L1.81836 70.7959L2.3235 72.3653L4.7532 71.55L4.86943 71.9067L2.90443 74.1232L3.47524 75.8556L5.49581 73.471C5.73235 73.8841 6.10103 74.2039 6.54142 74.3779C6.97441 74.5233 7.44398 74.5124 7.86995 74.3473ZM6.57682 72.7627C6.35896 72.621 6.20337 72.4003 6.14234 72.1462L5.8241 71.173L7.4507 70.6278L7.76894 71.601C7.86773 71.8425 7.86773 72.1136 7.76894 72.3551C7.7171 72.4567 7.6457 72.5469 7.55898 72.6203C7.47226 72.6938 7.37194 72.7491 7.2638 72.7831C7.15467 72.8302 7.03668 72.8527 6.91806 72.8492C6.79943 72.8456 6.68301 72.8162 6.57682 72.7627Z" fill="#955D34"/>
<path d="M10.5724 81.7175L9.56204 82.3187L10.6077 84.1174C10.2475 84.2191 9.86373 84.195 9.51887 84.0488C9.17402 83.9026 8.88839 83.6431 8.70838 83.3123C8.56466 83.0963 8.46744 82.8523 8.42306 82.596C8.37869 82.3397 8.38813 82.0768 8.45075 81.8245C8.65059 81.3379 9.00109 80.9296 9.44993 80.6605C9.89877 80.3915 10.4219 80.2761 10.9411 80.3316C11.3107 80.4285 11.639 80.6439 11.8768 80.9453C12.1146 81.2467 12.2488 81.6178 12.2595 82.0028C12.2586 82.2719 12.1776 82.5346 12.0271 82.7569L12.896 84.2855C13.4211 83.8442 13.7591 83.2172 13.8406 82.5327C13.9121 81.7826 13.7344 81.0298 13.3355 80.3927C13.0344 79.8443 12.5953 79.3855 12.0625 79.0628C11.5641 78.7699 10.9918 78.63 10.4158 78.6603C9.7957 78.7029 9.19376 78.8892 8.6567 79.2047C8.11965 79.5201 7.66195 79.9563 7.31924 80.4793C7.01302 80.9741 6.8535 81.5469 6.85954 82.1302C6.87072 82.7589 7.04488 83.3737 7.36468 83.9135C7.61017 84.3671 7.95585 84.7576 8.37497 85.0549C8.75107 85.3142 9.17848 85.488 9.62771 85.5644C10.0448 85.6461 10.4735 85.6461 10.8906 85.5644L12.2898 84.739L10.5724 81.7175Z" fill="#955D34"/>
<path d="M12.2051 91.0256L13.3719 92.3046L14.564 91.795L16.2815 93.6854L15.6551 94.8369L16.8321 96.1362L20.1105 89.7059L18.8375 88.3047L12.2051 91.0256ZM16.9129 92.4981L15.7664 91.2396L18.1808 90.1747L16.9129 92.4981Z" fill="#955D34"/>
<path d="M26.0858 100.218L26.2777 95.1689L24.9441 94.2109L21.0293 99.7852L22.3629 100.738L24.7673 97.3191L24.5956 102.338L25.9342 103.291L29.8491 97.7216L28.5155 96.7637L26.0858 100.218Z" fill="#955D34"/>
<path d="M33.974 99.8979L31.0684 106.07L32.5468 106.778L35.4524 100.606L33.974 99.8979Z" fill="#955D34"/>
<path d="M41.1383 104.937C41.3185 104.808 41.5258 104.723 41.744 104.689C41.9622 104.655 42.1855 104.671 42.3961 104.739C42.7211 104.817 43.014 104.995 43.2346 105.248C43.4436 105.493 43.5724 105.798 43.6034 106.12L45.2754 106.583C45.337 105.844 45.1364 105.108 44.7096 104.504C44.2418 103.885 43.5762 103.447 42.8254 103.266C42.2435 103.093 41.6263 103.079 41.0372 103.225C40.4849 103.374 39.9868 103.68 39.6027 104.107C39.1839 104.57 38.8854 105.13 38.7339 105.737C38.5584 106.338 38.5288 106.972 38.6479 107.587C38.7621 108.152 39.0357 108.673 39.4359 109.085C39.8655 109.517 40.4033 109.823 40.9918 109.972C41.7283 110.21 42.5248 110.178 43.2397 109.88C43.9131 109.584 44.4608 109.057 44.7854 108.392L43.1134 107.928C42.9193 108.184 42.6536 108.376 42.3506 108.479C42.0314 108.578 41.6899 108.578 41.3707 108.479C41.1562 108.428 40.9563 108.328 40.7864 108.186C40.6164 108.045 40.4811 107.866 40.3907 107.663C40.1969 107.191 40.1789 106.665 40.3402 106.181C40.4535 105.685 40.736 105.245 41.1383 104.937Z" fill="#955D34"/>
<path d="M58.5914 105.048L55.9395 105.175L56.2628 111.998L57.8995 111.922L57.7884 109.527L58.7986 109.481C59.2661 109.472 59.7249 109.352 60.1372 109.129C60.4779 108.942 60.7557 108.656 60.9354 108.309C61.1099 107.954 61.1883 107.558 61.1627 107.163C61.1636 106.861 61.1011 106.563 60.9792 106.288C60.8572 106.014 60.6787 105.768 60.4555 105.568C59.9242 105.158 59.256 104.972 58.5914 105.048ZM58.5562 108.166L57.7226 108.207L57.6418 106.429L58.4702 106.393C59.1269 106.358 59.4805 106.643 59.4805 107.239C59.4805 107.835 59.2129 108.136 58.5562 108.166Z" fill="#955D34"/>
<path d="M70.8923 106.437C71.0744 106.019 71.1082 105.551 70.9882 105.112C70.9114 104.733 70.7372 104.382 70.4831 104.093C70.2084 103.812 69.8563 103.622 69.4728 103.547C69.0133 103.458 68.5396 103.477 68.0887 103.603L65.3711 104.276L66.9875 110.9L68.5787 110.503L67.9675 108.001L68.3312 107.909L70.3517 110.064L72.1096 109.626L69.9123 107.405C70.3385 107.204 70.6841 106.862 70.8923 106.437ZM69.3212 106.284C69.1622 106.49 68.9309 106.627 68.6747 106.666L67.6896 106.91L67.2805 105.234L68.2655 104.989C68.512 104.909 68.7796 104.927 69.0131 105.04C69.1124 105.102 69.1976 105.185 69.2629 105.282C69.3282 105.38 69.3722 105.49 69.392 105.606C69.4316 105.716 69.4472 105.834 69.4376 105.951C69.428 106.068 69.3935 106.181 69.3364 106.284H69.3212Z" fill="#955D34"/>
<path d="M80.8384 100.273C80.3522 99.9317 79.7828 99.7308 79.1917 99.692C78.5859 99.6615 77.9823 99.7856 77.4366 100.053C76.891 100.32 76.4209 100.722 76.0699 101.221C75.7323 101.711 75.5348 102.286 75.4992 102.882C75.4598 103.512 75.5871 104.141 75.8679 104.706C76.1338 105.279 76.545 105.771 77.06 106.133C77.5484 106.473 78.1193 106.674 78.7118 106.713C79.3155 106.754 79.9189 106.631 80.4596 106.357C81.0084 106.096 81.4789 105.693 81.8234 105.19C82.1613 104.698 82.3588 104.121 82.3943 103.524C82.4224 102.894 82.2949 102.268 82.0233 101.7C81.7518 101.133 81.3446 100.642 80.8384 100.273ZM80.7071 103.926C80.5499 104.382 80.2205 104.756 79.7908 104.967C79.3611 105.178 78.8659 105.208 78.4137 105.052C77.9409 104.841 77.5668 104.454 77.3682 103.972C77.1163 103.516 77.0476 102.98 77.1762 102.474C77.3343 102.019 77.665 101.645 78.0958 101.435C78.5266 101.225 79.0224 101.195 79.4746 101.353C79.9308 101.587 80.2985 101.965 80.5211 102.43C80.7438 102.895 80.809 103.42 80.7071 103.926Z" fill="#955D34"/>
<path d="M91.0979 95.1175C90.7244 94.624 90.2324 94.2347 89.6683 93.9863C89.1337 93.7608 88.5448 93.7005 87.9762 93.8131C87.3343 93.9436 86.7351 94.2344 86.2335 94.6589L84.2129 96.2537L88.4055 101.614L90.426 100.019C90.9495 99.6202 91.3649 99.0944 91.6334 98.4906C91.872 97.9523 91.9475 97.3549 91.8506 96.7734C91.746 96.165 91.4867 95.5944 91.0979 95.1175ZM90.2645 97.6142C90.1627 98.1542 89.8565 98.633 89.4107 98.9492L88.7995 99.4587L86.4001 96.4015L87.0113 95.892C87.4215 95.5332 87.9545 95.3504 88.4965 95.3824C89.0105 95.4842 89.4714 95.7684 89.7957 96.1834C90.12 96.5984 90.2864 97.1168 90.2645 97.6448V97.6142Z" fill="#955D34"/>
<path d="M98.7505 87.4831L95.75 84.9609L94.6993 86.2297L97.705 88.7518C98.0033 88.9685 98.2133 89.2873 98.296 89.6486C98.3201 89.9772 98.2166 90.3023 98.0073 90.5553C97.798 90.8082 97.4994 90.9691 97.1746 91.004C96.8072 90.986 96.459 90.8339 96.1946 90.576L93.194 88.0283L92.1484 89.292L95.1793 91.8396C95.5984 92.2151 96.1035 92.4795 96.6492 92.609C97.1117 92.7122 97.5943 92.6713 98.0333 92.4918C98.4903 92.2908 98.8911 91.9794 99.2002 91.5848C99.5325 91.199 99.7665 90.7373 99.8821 90.2397C99.9882 89.7641 99.9512 89.2673 99.776 88.813C99.5556 88.2867 99.2019 87.8281 98.7505 87.4831Z" fill="#955D34"/>
<path d="M105.084 77.4925L104.281 79.0211C104.488 79.2657 104.616 79.5676 104.65 79.8872C104.683 80.2232 104.612 80.5613 104.448 80.8554C104.351 81.0568 104.21 81.233 104.034 81.37C103.859 81.507 103.655 81.6012 103.437 81.6452C102.94 81.7368 102.426 81.6426 101.993 81.3802C101.531 81.1654 101.16 80.7914 100.947 80.3255C100.862 80.1207 100.825 79.8993 100.837 79.6778C100.849 79.4564 100.911 79.2406 101.018 79.0466C101.167 78.7445 101.403 78.4943 101.695 78.3281C101.979 78.1741 102.303 78.1118 102.624 78.1498L103.427 76.6212C102.723 76.4047 101.967 76.4462 101.29 76.7384C100.59 77.0663 100.026 77.6303 99.6942 78.3332C99.4021 78.8694 99.2573 79.4745 99.2749 80.086C99.2979 80.6616 99.4876 81.2178 99.8204 81.6859C100.181 82.1953 100.66 82.6081 101.215 82.8884C101.76 83.1903 102.37 83.3547 102.993 83.3674C103.564 83.3711 104.124 83.2122 104.609 82.9088C105.118 82.5752 105.53 82.1109 105.801 81.5636C106.185 80.8884 106.323 80.0988 106.19 79.3319C106.047 78.6067 105.655 77.9556 105.084 77.4925Z" fill="#955D34"/>
<path d="M105.429 66.9243L104.176 66.5625L102.701 71.6986L103.954 72.0654L104.459 70.3025L109.713 71.8361L110.172 70.2362L104.919 68.7076L105.429 66.9243Z" fill="#955D34"/>
<path d="M111.834 59.1527C111.707 58.8062 111.487 58.5026 111.197 58.2763C110.919 58.0636 110.586 57.9363 110.238 57.9095C109.861 57.853 109.476 57.9208 109.141 58.1031C108.865 58.2627 108.629 58.4862 108.454 58.7553C108.25 59.0805 108.071 59.4212 107.919 59.7743C107.783 60.0648 107.671 60.2839 107.586 60.4368C107.509 60.5823 107.405 60.7106 107.277 60.8138C107.158 60.9057 107.008 60.9476 106.858 60.931C106.774 60.9297 106.691 60.9093 106.616 60.8713C106.541 60.8334 106.475 60.779 106.424 60.7119C106.333 60.5703 106.295 60.4003 106.318 60.2329C106.323 60.1356 106.347 60.0402 106.39 59.9527C106.432 59.8651 106.492 59.7871 106.565 59.7234C106.723 59.5993 106.916 59.5312 107.116 59.5298L107.283 57.7515C106.997 57.7405 106.713 57.7897 106.448 57.8958C106.182 58.002 105.942 58.1628 105.742 58.368C105.313 58.8522 105.065 59.472 105.04 60.1208C104.991 60.5473 105.031 60.9793 105.156 61.3896C105.263 61.7439 105.468 62.0602 105.747 62.3017C106.032 62.5419 106.386 62.6846 106.757 62.7092C107.13 62.7603 107.51 62.6927 107.843 62.5156C108.116 62.3609 108.347 62.1403 108.515 61.8736C108.706 61.5456 108.874 61.2052 109.02 60.8545C109.118 60.6266 109.228 60.4039 109.348 60.1871C109.428 60.0364 109.536 59.903 109.667 59.7947C109.799 59.6961 109.964 59.6514 110.128 59.6693C110.291 59.6872 110.442 59.7665 110.551 59.8915C110.657 60.0383 110.702 60.2211 110.677 60.4011C110.663 60.6238 110.563 60.8322 110.399 60.9819C110.224 61.1296 110.001 61.206 109.773 61.196L109.611 62.9487C109.913 62.9679 110.216 62.9184 110.497 62.8037C110.777 62.6891 111.029 62.5123 111.233 62.2864C111.669 61.7743 111.925 61.1312 111.96 60.4572C112.019 60.0184 111.976 59.5718 111.834 59.1527Z" fill="#955D34"/>
<path d="M6.78421 40.8047L5.19301 40.3359C4.18568 43.8023 3.52241 47.361 3.21289 50.9597L4.86977 51.1023C5.17044 47.6146 5.81167 44.1654 6.78421 40.8047Z" fill="#955D34"/>
<path d="M104.947 41.7854C106.027 45.1127 106.777 48.54 107.185 52.0167L108.837 51.818C108.416 48.2316 107.641 44.6966 106.523 41.2656L104.947 41.7854Z" fill="#955D34"/>
</g>
<defs>
<clipPath id="clip0_69_35761">
<rect width="112" height="112" fill="white"/>
</clipPath>
</defs>
</svg>
