<svg width="88" height="68" viewBox="0 0 88 68" fill="none" xmlns="http://www.w3.org/2000/svg">
<path d="M80.7729 0L88 6.3354C83.3709 10.3713 79.5921 14.2664 76.6634 18.0207C73.8293 21.6812 72.0344 24.45 71.2786 26.3271C70.5228 28.2043 69.8143 30.4569 69.153 33.0849L69.7198 33.9296C76.0494 33.9296 80.6785 35.2905 83.6071 38.0124C86.5357 40.7343 88 44.9579 88 50.6832C88 55.0946 86.394 59.0835 83.182 62.6501C80.0644 66.2167 76.1439 68 71.4203 68C66.0354 68 61.548 66.4983 57.9581 63.4948C54.3682 60.4914 52.5733 55.6577 52.5733 48.9938C52.5733 40.1712 55.3129 31.0669 60.7923 21.6812C66.3661 12.2015 73.0263 4.97447 80.7729 0ZM28.1997 0L35.4267 6.3354C30.7976 10.3713 27.066 14.2195 24.2319 17.8799C21.3977 21.5404 19.5556 24.3561 18.7053 26.3271C17.9495 28.2981 17.241 30.5507 16.5797 33.0849L17.1465 33.9296C23.4761 33.9296 28.1052 35.2905 31.0338 38.0124C33.9624 40.7343 35.4267 44.9579 35.4267 50.6832C35.4267 55.0946 33.8207 59.0835 30.6087 62.6501C27.4911 66.2167 23.5706 68 18.847 68C13.4622 68 8.97477 66.4983 5.38486 63.4948C1.79495 60.4914 0 55.6577 0 48.9938C0 40.1712 2.73967 31.0669 8.219 21.6812C13.7928 12.2015 20.453 4.97447 28.1997 0Z" fill="#6B0606"/>
</svg>
