<svg width="88" height="68" viewBox="0 0 88 68" fill="none" xmlns="http://www.w3.org/2000/svg">
<path d="M7.22705 68L0 61.6646C4.62909 57.6287 8.40795 53.7336 11.3366 49.9793C14.1707 46.3188 15.9657 43.55 16.7214 41.6729C17.4772 39.7957 18.1857 37.5431 18.847 34.9151L18.2802 34.0704C11.9506 34.0704 7.32152 32.7095 4.39291 29.9876C1.4643 27.2657 0 23.0421 0 17.3168C0 12.9055 1.60602 8.91649 4.81804 5.3499C7.93559 1.7833 11.8561 0 16.5797 0C21.9646 0 26.452 1.50172 30.0419 4.50517C33.6318 7.50862 35.4267 12.3423 35.4267 19.0062C35.4267 27.8288 32.6871 36.9331 27.2077 46.3188C21.6339 55.7985 14.9737 63.0255 7.22705 68ZM59.8003 68L52.5733 61.6646C57.2024 57.6287 60.934 53.7805 63.7681 50.1201C66.6023 46.4596 68.4444 43.6439 69.2947 41.6729C70.0505 39.7019 70.759 37.4493 71.4203 34.9151L70.8535 34.0704C64.5239 34.0704 59.8948 32.7095 56.9662 29.9876C54.0376 27.2657 52.5733 23.0421 52.5733 17.3168C52.5733 12.9055 54.1793 8.91649 57.3913 5.3499C60.5089 1.7833 64.4294 0 69.153 0C74.5378 0 79.0252 1.50172 82.6151 4.50517C86.205 7.50862 88 12.3423 88 19.0062C88 27.8288 85.2603 36.9331 79.781 46.3188C74.2072 55.7985 67.547 63.0255 59.8003 68Z" fill="#6B0606"/>
</svg>
