<svg width="64" height="64" viewBox="0 0 64 64" fill="none" xmlns="http://www.w3.org/2000/svg">
<rect width="64" height="64" fill="white"/>
<path d="M51.7419 23.6137L45.8506 17.7223C45.8499 17.7216 45.8492 17.7209 45.8486 17.7203L43.8733 15.7451C43.4987 15.3706 43.0007 15.1642 42.471 15.1641C42.4709 15.1641 42.4706 15.1641 42.4704 15.1641C41.9407 15.1641 41.4427 15.3702 41.0681 15.7449L12.8287 43.9994C11.7238 45.1044 11.7238 46.9024 12.8287 48.0074C13.364 48.5427 14.0757 48.8375 14.8328 48.8375C15.5898 48.8375 16.3015 48.5427 16.8371 48.0072L27.5481 37.2868L32.8084 42.5472C33.1526 42.8912 33.7103 42.8912 34.0545 42.5472C34.3986 42.2031 34.3986 41.6452 34.0545 41.3011L28.7937 36.0403L30.4948 34.3376L35.7564 39.5992C36.1006 39.9433 36.6583 39.9433 37.0026 39.5992C37.3466 39.2552 37.3466 38.6973 37.0026 38.3532L31.7404 33.091L33.4415 31.3884L38.7043 36.6513C39.0485 36.9954 39.6064 36.9954 39.9504 36.6513C40.2945 36.3072 40.2945 35.7493 39.9504 35.4053L34.687 30.1418L36.3881 28.4392L41.6523 33.7034C41.9965 34.0474 42.5542 34.0474 42.8984 33.7034C43.2425 33.3593 43.2425 32.8014 42.8984 32.4573L37.6336 27.1926L39.3348 25.49L44.6003 30.7554C44.9444 31.0995 45.5021 31.0995 45.8464 30.7554C46.1905 30.4113 46.1905 29.8534 45.8464 29.5094L40.5803 24.2434L42.2814 22.5408L47.5482 27.8076C47.8924 28.1516 48.4501 28.1516 48.7943 27.8076C49.1384 27.4635 49.1384 26.9056 48.7943 26.5615L43.527 21.2942L45.2281 19.5916L50.4961 24.8596C50.8402 25.2037 51.3981 25.2038 51.7423 24.8596C52.086 24.5156 52.086 23.9577 51.7419 23.6137ZM41.6982 20.6312C41.684 20.6437 41.6702 20.6567 41.6566 20.6702C41.6429 20.684 41.6297 20.6981 41.6171 20.7124L38.7679 23.5641C38.7475 23.5811 38.7278 23.5991 38.7087 23.6182C38.6894 23.6375 38.6713 23.6574 38.6542 23.6779L35.8342 26.5004C35.8088 26.5206 35.7843 26.5426 35.7608 26.5661C35.7372 26.5898 35.7149 26.6145 35.6946 26.6401L32.8981 29.4391C32.8685 29.462 32.8401 29.4869 32.8129 29.5141C32.7856 29.5414 32.7605 29.57 32.7376 29.5998L29.9609 32.3788C29.9275 32.4038 29.8955 32.4315 29.8651 32.4619C29.8345 32.4925 29.8066 32.5247 29.7815 32.5584L27.0228 35.3195C26.9858 35.3464 26.9505 35.3765 26.9172 35.4098C26.8837 35.4432 26.8534 35.4788 26.8265 35.5159L15.5908 46.7613C15.3883 46.9638 15.1191 47.0752 14.8328 47.0752C14.5464 47.0752 14.2772 46.9637 14.0748 46.7613C13.6568 46.3433 13.6568 45.6632 14.0748 45.2451L42.3144 16.9908C42.3677 16.9374 42.4287 16.9262 42.4704 16.9262H42.4705C42.5124 16.9262 42.5736 16.9375 42.6272 16.9912L43.9817 18.3456L41.6982 20.6312Z" fill="#6B0606"/>
</svg>
