<svg width="48" height="48" viewBox="0 0 48 48" fill="none" xmlns="http://www.w3.org/2000/svg">
<g clip-path="url(#clip0_69_36593)">
<path d="M47.8286 15.9224C47.5331 15.4505 46.937 15.2661 46.4262 15.488C43.3338 16.8345 42.3294 18.7283 40.3281 22.5015C39.5128 24.0387 38.498 25.9519 37.0776 28.3545C36.9435 28.5814 36.8022 28.8048 36.6573 29.027C36.7196 27.0142 36.5524 24.9249 36.1517 22.7774C35.5769 19.6965 35.0226 17.3533 34.5771 15.4704C33.5536 11.1447 33.1706 9.52605 34.3783 6.96028C34.6154 6.45652 34.4483 5.85503 33.9851 5.54585C33.5221 5.2369 32.9023 5.31304 32.5281 5.72524C30.082 8.41912 29.9412 10.5933 29.6324 15.3572C29.6253 15.467 29.618 15.5787 29.6107 15.6918C29.1466 14.2006 28.6785 12.7344 28.236 11.3488C26.8901 7.13382 25.7277 3.49362 25.3321 1.30731C25.2353 0.772071 24.7694 0.382812 24.2254 0.382812C23.6815 0.382812 23.2156 0.772071 23.1187 1.30731C22.7232 3.49373 21.5607 7.13404 20.2149 11.3491C19.6519 13.1124 19.0512 14.9939 18.4694 16.8923C18.4318 16.3486 18.3987 15.8377 18.3675 15.3572C18.0587 10.5934 17.9179 8.41912 15.4718 5.72524C15.0974 5.31315 14.478 5.2369 14.0148 5.54585C13.5516 5.85503 13.3845 6.45652 13.6216 6.96028C14.8293 9.52616 14.4463 11.1447 13.4228 15.4704C12.9774 17.3533 12.423 19.6965 11.8482 22.7774C11.4476 24.9249 11.2804 27.0143 11.3427 29.027C11.1979 28.805 11.0565 28.5814 10.9224 28.3545C9.50202 25.9519 8.48731 24.0387 7.67191 22.5015C5.67062 18.7282 4.66604 16.8343 1.57379 15.488C1.06329 15.2657 0.466974 15.4504 0.171403 15.9224C-0.124055 16.3944 -0.0295803 17.0116 0.393419 17.3735C2.3468 19.0456 2.61301 20.4251 3.40322 24.5201C3.73996 26.2652 4.15902 28.4368 4.83924 31.2346C6.10318 36.4332 8.62857 40.7166 12.1424 43.622C15.2606 46.2001 19.0888 47.62 22.9219 47.62C23.2815 47.62 23.6432 47.6056 23.9999 47.5805C24.3564 47.6055 24.7181 47.6199 25.0779 47.62C25.0783 47.62 25.0783 47.62 25.0788 47.62C28.9114 47.62 32.7396 46.2001 35.8575 43.6221C39.3713 40.7168 41.8967 36.4333 43.1606 31.2346C43.8409 28.4368 44.2599 26.2651 44.5967 24.5201C45.3869 20.4251 45.6531 19.0456 47.6065 17.3735C48.0296 17.0116 48.1241 16.3945 47.8286 15.9224ZM31.9654 14.1738C32.0918 14.7354 32.2341 15.3369 32.3882 15.9885C32.8282 17.8479 33.3757 20.162 33.9405 23.1899C34.5425 26.4167 34.5789 29.4869 34.0526 32.3222C32.7595 33.7326 31.3359 35.0702 29.9361 36.3833C28.4693 37.7594 27.0375 39.1035 25.8477 40.4662C26.4251 38.0897 27.2814 35.9258 28.1655 33.6919C29.4556 30.4325 30.7896 27.062 31.2558 22.8779C31.2919 22.5535 31.3256 22.2385 31.3577 21.9292C31.3582 21.9261 31.3583 21.9229 31.3587 21.9199C31.6307 19.3013 31.7662 17.2142 31.8772 15.5025C31.9078 15.0298 31.9364 14.5879 31.9654 14.1738ZM22.3577 12.0332C23.0536 9.85367 23.7013 7.82528 24.2254 6.05118C24.7497 7.82506 25.3973 9.85345 26.0931 12.0329C27.0807 15.1255 28.1966 18.6217 29.1015 21.876C29.0755 22.1228 29.0487 22.3725 29.0201 22.6287C28.5873 26.5138 27.3664 29.5984 26.0739 32.864C25.3366 34.7267 24.5876 36.6191 23.9998 38.6715C23.4121 36.6193 22.663 34.7267 21.9258 32.864C20.6796 29.7155 19.5023 26.7332 19.0314 23.0416C19.9885 19.4533 21.2469 15.5118 22.3577 12.0332ZM14.0595 23.1899C14.6243 20.162 15.172 17.8479 15.6118 15.9885C15.766 15.3369 15.9083 14.7354 16.0346 14.1738C16.0635 14.588 16.0922 15.0298 16.1228 15.5026C16.2469 17.4183 16.4015 19.8023 16.7441 22.878C17.2103 27.0621 18.5443 30.4326 19.8344 33.692C20.7185 35.9259 21.5748 38.0898 22.1522 40.4663C20.9624 39.1036 19.5306 37.7595 18.0638 36.3834C16.664 35.0702 15.2403 33.7327 13.9473 32.3223C13.4211 29.4869 13.4575 26.4167 14.0595 23.1899ZM7.02498 30.7033C6.35747 27.9578 5.94403 25.8154 5.61191 24.0939C5.54026 23.7226 5.47177 23.3677 5.40463 23.0278C5.49505 23.1979 5.5884 23.3737 5.68468 23.5553C6.51088 25.1131 7.53908 27.0517 8.98589 29.4991C9.8338 30.9335 10.8857 32.2777 12.0218 33.5439C12.0533 33.5834 12.0871 33.6207 12.1235 33.6553C13.5426 35.2245 15.0858 36.6738 16.5247 38.0238C19.2435 40.5741 21.8329 43.003 22.6487 45.3676C16.9937 45.2465 9.61527 41.3568 7.02498 30.7033ZM42.3881 24.094C42.0559 25.8155 41.6425 27.9578 40.975 30.7035C38.3845 41.3581 31.0064 45.2473 25.3512 45.3678C26.167 43.0034 28.7564 40.5744 31.4751 38.024C32.9143 36.6739 34.4577 35.2243 35.877 33.655C35.9131 33.6205 35.9466 33.5835 35.978 33.5443C37.1142 32.2781 38.1661 30.9338 39.0141 29.4993C40.4609 27.0519 41.4891 25.1134 42.3154 23.5555C42.4117 23.3739 42.5051 23.198 42.5955 23.0281C42.5282 23.3678 42.4597 23.7227 42.3881 24.094Z" fill="black" fill-opacity="0.5"/>
</g>
<defs>
<clipPath id="clip0_69_36593">
<rect width="48" height="48" fill="white"/>
</clipPath>
</defs>
</svg>
