<svg width="48" height="48" viewBox="0 0 48 48" fill="none" xmlns="http://www.w3.org/2000/svg">
<g clip-path="url(#clip0_69_36587)">
<path d="M38.4562 1.05978C38.4562 0.474462 37.9817 0 37.3965 0H10.6047C10.0195 0 9.54492 0.474462 9.54492 1.05978V5.56838C9.54492 5.56902 9.54503 5.56955 9.54503 5.57018C9.54503 5.58036 9.5463 5.59064 9.54662 5.60081C9.54747 5.62783 9.54831 5.65475 9.55118 5.68125C9.55128 5.68209 9.55128 5.68305 9.55139 5.6839L12.7024 34.4137V40.1919C12.7024 40.1954 12.7019 40.1987 12.7019 40.2022V44.9792C12.7019 46.6449 14.057 47.9999 15.7227 47.9999H32.2788C33.9445 47.9999 35.2996 46.6448 35.2996 44.9792V40.2022C35.2996 40.1987 35.2991 40.1954 35.2991 40.1919V34.4569L38.4501 5.68368C38.4502 5.68284 38.4501 5.68209 38.4502 5.68125C38.4531 5.65422 38.454 5.62677 38.4549 5.59922C38.4552 5.58947 38.4563 5.57972 38.4563 5.56997C38.4563 5.56944 38.4565 5.56891 38.4565 5.56827V1.05978H38.4562ZM11.6645 2.11955H36.3368V4.5086H11.6645V2.11955ZM33.1793 39.1424H28.3854H19.6158H14.8219V35.4372H33.1794V39.1424H33.1793ZM20.6755 41.2619H27.3256V42.2469H20.6755V41.2619ZM33.1798 44.9792C33.1798 45.4761 32.7756 45.8803 32.2786 45.8803H15.7226C15.2256 45.8803 14.8213 45.476 14.8213 44.9792V41.2619H18.556V42.4669C18.556 43.5143 19.4081 44.3665 20.4555 44.3665H27.5457C28.5931 44.3665 29.4452 43.5144 29.4452 42.4669V41.2619H33.1798V44.9792ZM33.2914 33.3177H14.7143L11.7871 6.62816H36.2143L33.2914 33.3177Z" fill="black" fill-opacity="0.5"/>
</g>
<defs>
<clipPath id="clip0_69_36587">
<rect width="48" height="48" fill="white"/>
</clipPath>
</defs>
</svg>
