<svg width="64" height="64" viewBox="0 0 64 64" fill="none" xmlns="http://www.w3.org/2000/svg">
<rect width="64" height="64" fill="white"/>
<path d="M23.9165 44.7902C18.1548 43.9658 13.81 38.948 13.81 33.1182C13.81 26.6157 19.1001 21.3257 25.6024 21.3257C26.3825 21.3257 27.1644 21.4029 27.9265 21.5551C28.4168 21.6531 28.8934 21.3349 28.9912 20.8449C29.0891 20.3547 28.7711 19.878 28.2811 19.7801C27.4025 19.6047 26.5014 19.5156 25.6024 19.5156C18.1021 19.5157 12 25.6178 12 33.1182C12 36.4117 13.1925 39.5897 15.3579 42.0664C17.5023 44.5192 20.4507 46.1227 23.6601 46.582C23.7036 46.5881 23.7468 46.5912 23.7894 46.5912C24.2324 46.5912 24.6195 46.2656 24.6842 45.8143C24.7549 45.3194 24.4112 44.861 23.9165 44.7902Z" fill="#6B0606"/>
<path d="M51.7621 29.5096C51.5907 29.3226 51.3486 29.216 51.0949 29.216H50.0464V28.0848H50.1181C50.6179 28.0848 51.0231 27.6795 51.0231 27.1798C51.0231 26.68 50.6179 26.2748 50.1181 26.2748H50.0464V24.2386C50.0464 23.7389 49.6413 23.3336 49.1415 23.3336H45.1507C44.8736 22.6624 44.4854 22.0273 43.9905 21.4392C42.923 20.1706 41.4712 19.3119 39.6756 18.8869C37.8193 18.4477 37.1129 17.0601 36.8953 16.484C36.7325 16.0527 36.2718 15.8124 35.8249 15.9268C34.0543 16.3786 32.5271 17.7029 31.7394 19.4695C31.169 20.7488 31.0484 22.1139 31.3672 23.3336H27.6533C27.1535 23.3336 26.7483 23.7389 26.7483 24.2386V26.2748H26.6767C26.1768 26.2748 25.7717 26.68 25.7717 27.1798C25.7717 27.6795 26.1768 28.0848 26.6767 28.0848H26.7483V29.216H25.6999C25.4462 29.216 25.204 29.3226 25.0326 29.5096C24.8612 29.6967 24.7762 29.9472 24.7984 30.2L25.9791 43.6647C26.1934 46.1085 28.3636 48.0967 30.8168 48.0967H45.9779C48.4311 48.0967 50.6013 46.1085 50.8156 43.6647L51.9963 30.2C52.0185 29.9472 51.9336 29.6968 51.7621 29.5096ZM33.3925 20.2066C33.8489 19.183 34.6405 18.3696 35.582 17.9287C36.359 19.2838 37.6825 20.2753 39.2587 20.6484C40.6876 20.9866 41.7824 21.6266 42.6056 22.6048C42.803 22.8393 42.9765 23.0829 43.1277 23.3337H33.2757C32.8794 22.412 32.9149 21.2776 33.3925 20.2066ZM28.5584 25.1436H44.5062C44.5083 25.1436 44.5105 25.1439 44.5127 25.1439C44.5139 25.1439 44.5151 25.1436 44.5164 25.1436H48.2365V26.2748H28.5584V25.1436ZM28.5584 28.0848H48.2365V29.216H28.5584V28.0848ZM49.0126 43.5065C48.8805 45.0135 47.4908 46.2867 45.978 46.2867H30.8168C29.3041 46.2867 27.9144 45.0136 27.7823 43.5065L26.6878 31.0259H50.1071L49.0126 43.5065Z" fill="#6B0606"/>
</svg>
