<svg width="97" height="142" viewBox="0 0 97 142" fill="none" xmlns="http://www.w3.org/2000/svg">
<path d="M29.8555 120.492H20.1758V119.426C20.9414 119.426 21.543 119.371 21.9805 119.262C22.7461 119.016 23.1289 118.332 23.1289 117.211V95.4727C21.8164 94.9531 20.3809 94.6934 18.8223 94.6934C17.6465 94.6934 16.7305 94.9805 16.0742 95.5547C14.9531 96.5391 14.3926 98.9453 14.3926 102.773V103.02H18.8223V104.086H14.3926V119.426H16.5254C16.6895 119.426 16.8398 119.439 16.9766 119.467C17.332 119.521 17.5098 119.863 17.5098 120.492H7.78906V119.426C9.8125 119.426 10.8516 118.715 10.9062 117.293V104.086H7.91211V103.02H10.9062V102.404C10.9062 100.463 11.248 98.7949 11.9316 97.4004C13.1621 94.8848 15.2812 93.627 18.2891 93.627C19.1914 93.627 20.2852 93.6953 21.5703 93.832H26.6562V119.426H28.8711C29.0352 119.426 29.1855 119.439 29.3223 119.467C29.6777 119.521 29.8555 119.863 29.8555 120.492ZM36.2539 111.715C36.2812 117.102 38.0039 119.822 41.4219 119.877C44.7305 119.85 46.3984 117.074 46.4258 111.551C46.3984 106.301 44.7031 103.648 41.3398 103.594C37.9766 103.621 36.2812 106.328 36.2539 111.715ZM41.4629 102.568C43.4043 102.568 45.1406 103.088 46.6719 104.127C49.1328 105.822 50.3633 108.338 50.3633 111.674C50.3633 114.189 49.5703 116.309 47.9844 118.031C46.2344 119.945 44.0059 120.902 41.2988 120.902C39.3301 120.902 37.5527 120.328 35.9668 119.18C33.5605 117.43 32.3574 114.887 32.3574 111.551C32.3574 109.117 33.123 107.066 34.6543 105.398C36.4316 103.512 38.7012 102.568 41.4629 102.568ZM62.5449 119.467C62.709 119.467 62.8457 119.48 62.9551 119.508C63.3652 119.562 63.5703 119.891 63.5703 120.492H53.1523V119.467C53.9727 119.467 54.5742 119.412 54.957 119.303C55.6953 119.057 56.0645 118.305 56.0645 117.047V104.045H53.1523V103.02H59.3457L59.5098 106.957C59.8379 106.191 60.2754 105.508 60.8223 104.906C62.1348 103.484 63.6387 102.773 65.334 102.773C65.6348 102.773 65.9219 102.801 66.1953 102.855C67.4531 103.129 68.082 103.895 68.082 105.152C68.082 105.344 68.0547 105.549 68 105.768C67.7266 106.615 67.1387 107.039 66.2363 107.039C66.0449 107.039 65.8535 107.012 65.6621 106.957C65.2246 106.82 64.7871 106.369 64.3496 105.604C63.9668 104.92 63.5703 104.578 63.1602 104.578C62.832 104.578 62.4355 104.77 61.9707 105.152C60.5762 106.328 59.7832 108.092 59.5918 110.443V119.467H62.5449ZM84.2832 120.902C82.3145 120.875 81.1523 119.631 80.7969 117.17C80.5508 117.771 80.1816 118.332 79.6895 118.852C78.377 120.219 76.7227 120.902 74.7266 120.902C73.9062 120.902 73.1406 120.766 72.4297 120.492C70.543 119.754 69.5996 118.305 69.5996 116.145C69.5996 115.789 69.627 115.461 69.6816 115.16C70.2559 112.043 73.9473 110.471 80.7559 110.443V107.859C80.7285 105.07 79.498 103.648 77.0645 103.594C76.0254 103.594 75.2461 103.949 74.7266 104.66C74.6445 104.797 74.4121 105.398 74.0293 106.465C73.7012 107.34 73.168 107.777 72.4297 107.777C72.2656 107.777 72.0879 107.764 71.8965 107.736C71.0762 107.545 70.666 107.012 70.666 106.137C70.666 105.672 70.8301 105.207 71.1582 104.742C72.1973 103.293 74.3027 102.568 77.4746 102.568C81.9316 102.596 84.1875 104.688 84.2422 108.844V117.498C84.2695 118.838 84.625 119.535 85.3086 119.59C86.1562 119.562 86.6758 118.564 86.8672 116.596L87.9336 116.637C87.9062 117.102 87.8652 117.539 87.8105 117.949C87.4277 119.918 86.252 120.902 84.2832 120.902ZM76.2441 119.221C76.7363 119.221 77.2559 119.111 77.8027 118.893C79.3066 118.182 80.291 116.883 80.7559 114.996V111.592C78.8418 111.619 77.3516 111.756 76.2852 112.002C74.2617 112.494 73.25 113.656 73.25 115.488C73.25 115.789 73.2637 116.076 73.291 116.35C73.5371 118.264 74.5215 119.221 76.2441 119.221Z" fill="#955D34"/>
<path d="M30.3416 139.125V131.852H31.1797V134.537H31.2507C31.3123 134.442 31.3975 134.321 31.5064 134.175C31.6177 134.026 31.7763 133.893 31.9822 133.777C32.1906 133.659 32.4723 133.599 32.8274 133.599C33.2867 133.599 33.6915 133.714 34.0419 133.944C34.3923 134.174 34.6657 134.499 34.8622 134.92C35.0587 135.342 35.157 135.839 35.157 136.412C35.157 136.99 35.0587 137.49 34.8622 137.914C34.6657 138.335 34.3935 138.662 34.0455 138.894C33.6974 139.124 33.2962 139.239 32.8416 139.239C32.4912 139.239 32.2107 139.181 32 139.065C31.7893 138.946 31.6271 138.812 31.5135 138.663C31.3999 138.512 31.3123 138.386 31.2507 138.287H31.1513V139.125H30.3416ZM31.1655 136.398C31.1655 136.81 31.2259 137.173 31.3466 137.488C31.4673 137.8 31.6437 138.045 31.8757 138.223C32.1077 138.398 32.3918 138.486 32.728 138.486C33.0784 138.486 33.3707 138.393 33.6051 138.209C33.8419 138.022 34.0194 137.771 34.1378 137.456C34.2585 137.139 34.3189 136.786 34.3189 136.398C34.3189 136.014 34.2597 135.669 34.1413 135.361C34.0253 135.051 33.849 134.806 33.6122 134.626C33.3778 134.443 33.0831 134.352 32.728 134.352C32.3871 134.352 32.1006 134.439 31.8686 134.612C31.6366 134.782 31.4614 135.021 31.343 135.329C31.2247 135.634 31.1655 135.991 31.1655 136.398ZM38.7259 139.239C38.2003 139.239 37.7469 139.123 37.3658 138.891C36.987 138.656 36.6946 138.33 36.4886 137.911C36.285 137.489 36.1832 136.999 36.1832 136.44C36.1832 135.882 36.285 135.389 36.4886 134.963C36.6946 134.535 36.9811 134.201 37.348 133.962C37.7173 133.72 38.1482 133.599 38.6406 133.599C38.9247 133.599 39.2053 133.647 39.4822 133.741C39.7592 133.836 40.0114 133.99 40.2386 134.203C40.4659 134.414 40.647 134.693 40.782 135.041C40.9169 135.389 40.9844 135.818 40.9844 136.327V136.682H36.7798V135.957H40.1321C40.1321 135.65 40.0705 135.375 39.9474 135.134C39.8267 134.892 39.6539 134.701 39.429 134.562C39.2064 134.422 38.9437 134.352 38.6406 134.352C38.3068 134.352 38.018 134.435 37.7741 134.601C37.5327 134.764 37.3468 134.977 37.2166 135.24C37.0864 135.503 37.0213 135.785 37.0213 136.085V136.568C37.0213 136.98 37.0923 137.329 37.2344 137.616C37.3788 137.9 37.5788 138.116 37.8345 138.266C38.0902 138.412 38.3873 138.486 38.7259 138.486C38.946 138.486 39.1449 138.455 39.3224 138.393C39.5024 138.33 39.6574 138.235 39.7876 138.109C39.9179 137.982 40.0185 137.823 40.0895 137.634L40.8991 137.861C40.8139 138.135 40.6707 138.377 40.4695 138.585C40.2682 138.791 40.0196 138.952 39.7237 139.068C39.4278 139.182 39.0952 139.239 38.7259 139.239ZM43.8643 139.253C43.5187 139.253 43.205 139.188 42.9233 139.058C42.6416 138.925 42.4179 138.734 42.2521 138.486C42.0864 138.235 42.0036 137.932 42.0036 137.577C42.0036 137.264 42.0651 137.011 42.1882 136.817C42.3113 136.62 42.4759 136.466 42.6818 136.355C42.8878 136.244 43.1151 136.161 43.3636 136.107C43.6146 136.05 43.8667 136.005 44.12 135.972C44.4515 135.929 44.7202 135.897 44.9261 135.876C45.1345 135.852 45.286 135.813 45.3807 135.759C45.4777 135.704 45.5263 135.609 45.5263 135.474V135.446C45.5263 135.096 45.4304 134.823 45.2386 134.629C45.0492 134.435 44.7616 134.338 44.3757 134.338C43.9756 134.338 43.6619 134.426 43.4347 134.601C43.2074 134.776 43.0476 134.963 42.9553 135.162L42.1598 134.878C42.3018 134.546 42.4912 134.288 42.728 134.104C42.9671 133.917 43.2275 133.786 43.5092 133.713C43.7933 133.637 44.0727 133.599 44.3473 133.599C44.5225 133.599 44.7237 133.621 44.951 133.663C45.1806 133.704 45.402 133.788 45.6151 133.915C45.8305 134.043 46.0092 134.236 46.1513 134.494C46.2933 134.752 46.3643 135.098 46.3643 135.531V139.125H45.5263V138.386H45.4837C45.4268 138.505 45.3321 138.631 45.1996 138.766C45.067 138.901 44.8906 139.016 44.6705 139.111C44.4503 139.205 44.1816 139.253 43.8643 139.253ZM43.9922 138.5C44.3236 138.5 44.603 138.435 44.8303 138.305C45.0599 138.174 45.2327 138.006 45.3487 137.8C45.4671 137.594 45.5263 137.378 45.5263 137.151V136.384C45.4908 136.426 45.4126 136.465 45.2919 136.501C45.1735 136.534 45.0362 136.563 44.88 136.589C44.7261 136.613 44.5758 136.634 44.429 136.653C44.2846 136.67 44.1674 136.684 44.0774 136.696C43.8596 136.724 43.656 136.771 43.4666 136.835C43.2796 136.896 43.1281 136.99 43.0121 137.115C42.8984 137.238 42.8416 137.406 42.8416 137.619C42.8416 137.911 42.9493 138.131 43.1648 138.28C43.3826 138.427 43.6584 138.5 43.9922 138.5ZM51.3315 136.895V133.67H52.1696V139.125H51.3315V138.202H51.2747C51.1468 138.479 50.948 138.714 50.6781 138.908C50.4082 139.1 50.0673 139.196 49.6554 139.196C49.3145 139.196 49.0114 139.121 48.7463 138.972C48.4811 138.821 48.2728 138.594 48.1213 138.29C47.9698 137.985 47.894 137.6 47.894 137.136V133.67H48.7321V137.08C48.7321 137.477 48.8433 137.795 49.0659 138.031C49.2908 138.268 49.5772 138.386 49.9252 138.386C50.1336 138.386 50.3455 138.333 50.5609 138.227C50.7787 138.12 50.961 137.957 51.1078 137.737C51.2569 137.516 51.3315 137.236 51.3315 136.895ZM56.0767 133.67V134.381H53.25V133.67H56.0767ZM54.0739 132.364H54.9119V137.562C54.9119 137.799 54.9463 137.977 55.0149 138.095C55.0859 138.211 55.1759 138.289 55.2848 138.33C55.3961 138.367 55.5133 138.386 55.6364 138.386C55.7287 138.386 55.8045 138.382 55.8636 138.372C55.9228 138.36 55.9702 138.351 56.0057 138.344L56.1761 139.097C56.1193 139.118 56.04 139.139 55.9382 139.161C55.8364 139.184 55.7074 139.196 55.5511 139.196C55.3144 139.196 55.0824 139.145 54.8551 139.043C54.6302 138.942 54.4432 138.786 54.294 138.578C54.1473 138.37 54.0739 138.107 54.0739 137.79V132.364ZM57.8771 141.17C57.7351 141.17 57.6084 141.159 57.4972 141.135C57.3859 141.114 57.3089 141.092 57.2663 141.071L57.4794 140.332C57.683 140.384 57.8629 140.403 58.0192 140.389C58.1754 140.375 58.3139 140.305 58.4347 140.18C58.5578 140.057 58.6702 139.857 58.772 139.58L58.9283 139.153L56.9112 133.67H57.8203L59.326 138.017H59.3828L60.8885 133.67H61.7976L59.4822 139.92C59.3781 140.202 59.2491 140.435 59.0952 140.62C58.9413 140.807 58.7625 140.946 58.5589 141.036C58.3577 141.125 58.1304 141.17 57.8771 141.17Z" fill="#955D34"/>
<path d="M36.8195 63.468C36.9555 63.164 37.0455 62.896 37.1865 62.658C37.9865 61.309 38.5055 59.866 38.7035 58.306C38.8625 57.046 39.0395 55.789 39.2125 54.531C39.3925 53.222 39.9405 52.109 40.9505 51.231C41.2625 50.96 41.5525 50.653 41.7975 50.322C41.9715 50.087 42.0985 49.794 42.1675 49.508C42.3225 48.869 42.4275 48.219 42.5695 47.49C42.1625 47.452 41.7115 47.404 41.2605 47.37C37.9895 47.123 35.0285 45.951 32.2095 44.348C31.5365 43.965 30.8465 43.609 30.1835 43.211C28.3445 42.106 26.4045 41.258 24.3105 40.765C23.8565 40.658 23.3895 40.512 22.9945 40.275C22.5545 40.011 22.1185 39.676 21.8085 39.273C21.2575 38.558 21.4405 37.872 22.2815 37.541C22.9405 37.282 23.6545 37.116 24.3585 37.031C25.3685 36.909 26.3915 36.899 27.6105 36.829C27.2955 36.485 27.1085 36.267 26.9075 36.063C25.4125 34.554 24.2065 32.844 23.3245 30.911C22.7915 29.743 22.4565 28.523 22.4335 27.229C22.3875 24.551 24.7355 22.798 27.5045 24.197C28.1645 24.53 28.7395 25.032 29.3525 25.458C29.5065 25.565 29.6565 25.678 29.9445 25.888C29.8705 25.533 29.8365 25.331 29.7875 25.134C28.6505 20.573 28.9615 16.185 31.4325 12.089C31.9285 11.266 32.5325 10.488 33.1935 9.791C34.3435 8.578 35.7935 8.03501 37.4765 8.25001C38.5195 8.38301 39.4555 8.27199 40.4055 7.69999C42.2805 6.57099 44.3235 6.45499 46.4145 7.06099C46.5985 7.11399 46.7875 7.14999 46.9225 7.18199C47.0335 7.15299 47.0955 7.152 47.1395 7.124C49.4055 5.684 51.7635 5.912 54.1595 6.723C55.6435 7.226 56.8875 8.05999 57.8055 9.34199C58.3425 10.091 59.0285 10.514 59.9735 10.503C60.4425 10.498 60.9125 10.592 61.3805 10.585C62.5495 10.568 63.3815 11.109 63.9855 12.071C65.1955 14 65.6265 16.103 65.3435 18.347C65.1785 19.656 64.9395 20.956 64.7335 22.263C64.7655 22.275 64.8175 22.315 64.8615 22.307C66.3225 22.028 67.1595 22.377 67.9725 23.606C68.9245 25.046 68.9365 26.625 68.6605 28.245C68.3385 30.137 67.5875 31.839 66.3785 33.336C66.2795 33.458 66.2055 33.601 66.0135 33.901C66.7575 33.862 67.3455 33.824 67.9345 33.8C68.9005 33.762 69.8725 33.656 70.8315 33.72C71.9735 33.796 72.9555 34.275 73.6465 35.257C74.0785 35.87 74.1795 36.55 74.0095 37.233C73.9265 37.569 73.6465 37.962 73.3465 38.115C72.8205 38.385 72.2205 38.583 71.6335 38.647C69.8475 38.84 68.0495 38.914 66.2635 39.11C63.8215 39.378 61.6285 40.338 59.6095 41.71C58.8545 42.223 58.1235 42.771 57.3855 43.309C55.9485 44.355 54.4145 45.23 52.7895 45.948C52.6405 46.014 52.4965 46.091 52.2485 46.212C52.6475 46.384 52.9565 46.526 53.2725 46.652C54.5185 47.148 55.3175 48.033 55.6275 49.346C55.6845 49.588 55.7555 49.827 55.7995 50.071C56.0465 51.42 56.5425 52.65 57.3085 53.806C58.2435 55.217 58.9695 56.749 59.1965 58.456C59.3685 59.755 59.3295 61.052 58.9285 62.314C58.8415 62.587 58.6735 62.835 58.5425 63.094C58.4755 63.092 58.4085 63.089 58.3415 63.087C58.2795 62.817 58.1795 62.55 58.1635 62.278C58.0885 61.06 57.7265 59.949 57.0035 58.96C56.4155 58.156 55.8505 57.334 55.2375 56.551C53.9385 54.892 53.1165 53.077 53.1305 50.916C53.1345 50.265 52.9835 49.593 52.7915 48.964C52.3645 47.565 51.5885 46.99 50.1325 46.886C49.8855 46.868 49.6365 46.884 49.3745 46.884C48.8315 47.184 48.6695 47.707 48.6435 48.275C48.6085 49.049 48.5675 49.828 48.6195 50.598C48.7865 53.064 48.3705 55.445 47.7095 57.805C47.0795 60.057 46.6785 62.353 47.0055 64.693C47.2235 66.25 47.4885 67.818 47.9345 69.322C48.9785 72.842 49.3075 76.427 49.2055 80.071C49.1245 82.948 48.9805 85.823 48.9305 88.7C48.8945 90.719 48.9695 92.739 48.9935 94.759C48.9965 95.008 49.0265 95.265 48.9745 95.503C48.9375 95.673 48.7845 95.818 48.6825 95.975C48.6105 95.96 48.5375 95.946 48.4655 95.931C48.4085 95.709 48.3035 95.487 48.3025 95.265C48.2835 91.752 48.2285 88.238 48.2825 84.726C48.3285 81.795 48.5975 78.87 48.3745 75.932C48.2315 74.047 47.8975 72.209 47.4375 70.379C47.0135 68.692 46.6515 66.986 46.3485 65.273C45.9325 62.916 46.2445 60.587 46.8045 58.284C47.0265 57.371 47.2665 56.462 47.5035 55.552C48.0405 53.482 47.9455 51.378 47.8085 49.278C47.7355 48.154 47.1695 47.335 46.3425 47.194C45.3625 47.027 44.5415 47.393 43.9895 48.24C43.5225 48.958 43.0595 49.683 42.6655 50.442C42.5115 50.738 42.5025 51.136 42.5095 51.485C42.5465 53.124 42.4315 54.744 42.0345 56.34C41.6285 57.969 41.0185 59.492 39.8715 60.764C39.1885 61.522 38.5645 62.332 37.8805 63.089C37.6555 63.336 37.3715 63.602 36.8195 63.468ZM48.9325 38.217C48.9915 38.207 49.0505 38.196 49.1095 38.186C49.2435 37.4 49.3725 36.613 49.5125 35.828C49.9195 33.543 50.3405 31.273 51.3345 29.134C52.3265 27 53.9765 25.801 56.1835 25.224C57.7405 24.817 59.2895 24.816 60.8645 25.13C62.3865 25.433 62.7475 25.253 63.3725 23.82C64.4615 21.323 64.9155 18.691 64.7615 15.977C64.6865 14.662 64.1775 13.455 63.4625 12.345C62.9785 11.594 62.3235 11.158 61.3965 11.196C61.0375 11.211 60.6775 11.187 60.3185 11.189C58.9895 11.196 57.9175 10.749 57.1385 9.59901C56.2425 8.27701 54.8785 7.596 53.3915 7.154C52.0285 6.749 50.6445 6.53399 49.2265 6.88499C46.1015 7.65899 43.7985 11.381 43.6675 13.797C43.5895 15.227 43.6155 16.669 43.6955 18.1C43.7695 19.42 43.4955 20.548 42.7315 21.677C41.2445 23.877 40.9815 26.343 41.6425 28.906C41.8695 29.787 42.3385 30.438 43.1265 30.992C45.5835 32.719 47.6015 34.85 48.6735 37.737C48.7365 37.904 48.8455 38.057 48.9325 38.217ZM41.2295 29.775C41.2215 29.637 41.2295 29.578 41.2145 29.528C40.2405 26.397 40.6215 23.468 42.5435 20.782C42.9325 20.238 43.1125 19.661 43.0815 18.999C43.0315 17.95 42.9625 16.899 42.9675 15.85C42.9725 14.942 42.9955 14.022 43.1425 13.129C43.4495 11.27 44.4565 9.75102 45.6665 8.35402C45.8355 8.15902 46.0075 7.96599 46.2485 7.69099C44.3515 7.19099 42.6145 7.22001 41.0475 8.14601C39.8095 8.87901 38.5855 9.11201 37.1815 8.90101C35.8385 8.69901 34.6785 9.22799 33.7265 10.169C33.2965 10.594 32.8875 11.057 32.5465 11.556C29.4205 16.123 29.1525 21.061 30.7085 26.216C30.7885 26.483 31.0235 26.726 31.2375 26.925C32.0985 27.723 33.2005 27.939 34.3025 28.028C36.6145 28.216 38.8165 28.778 40.9285 29.723C41.0005 29.753 41.0865 29.751 41.2295 29.775ZM65.0525 33.879C67.1035 31.93 68.4085 28.475 68.1165 25.819C68.0045 24.799 67.6135 23.876 66.8095 23.212C65.9735 22.523 65.0825 22.539 64.5685 23.62C64.3795 24.018 64.1525 24.401 63.9205 24.777C63.4815 25.487 62.8475 25.89 61.9985 25.873C61.4205 25.861 60.8335 25.855 60.2675 25.752C58.8175 25.488 57.3995 25.604 56.0055 26.031C54.3595 26.535 53.0065 27.412 52.2245 29.03C51.6815 30.153 51.1555 31.277 50.9155 32.511C50.5985 34.138 50.2815 35.765 49.9705 37.393C49.5315 39.692 49.3755 42.074 47.9155 44.135C48.3275 44.613 47.8625 45.48 48.7385 45.826C49.9645 45.184 51.1475 44.467 51.9985 43.339C52.6635 42.458 53.2875 41.541 53.8645 40.6C54.8495 38.992 55.8575 37.412 57.2835 36.14C59.1745 34.453 61.2825 33.378 63.9075 33.699C64.2875 33.749 64.6655 33.819 65.0525 33.879ZM22.0785 38.421C22.2835 39.12 22.7275 39.481 23.2805 39.702C23.7655 39.896 24.2705 40.055 24.7785 40.175C26.5665 40.598 28.2485 41.262 29.8445 42.181C31.5445 43.159 33.2575 44.122 35.0155 44.989C38.0335 46.478 41.2385 47.056 44.5905 46.638C45.2955 46.55 46.0025 46.359 46.6675 46.107C47.4725 45.801 47.6445 45.344 47.4005 44.527C47.3135 44.237 47.2045 43.951 47.0785 43.676C45.5675 40.347 43.0035 37.935 40.1515 35.786C39.5625 35.342 38.8585 35.183 38.0655 35.502C37.9555 35.863 37.8395 36.227 37.7345 36.595C37.4875 37.465 37.2555 37.582 36.4285 37.231C35.7675 36.95 35.1225 36.626 34.4485 36.385C32.7165 35.766 31.0275 35.853 29.4215 36.807C28.4625 37.376 27.4115 37.547 26.3185 37.569C25.5725 37.584 24.8235 37.588 24.0815 37.652C23.3695 37.713 22.6655 37.851 22.0785 38.421ZM47.6835 43.306C48.4195 41.82 49.0115 40.493 48.4925 38.974C48.2795 38.349 48.0195 37.724 47.6725 37.166C47.2825 36.539 46.8575 35.883 46.2965 35.424C44.6185 34.048 42.6315 33.253 40.5195 32.87C39.1405 32.62 37.7185 32.591 36.3135 32.504C33.8455 32.351 31.8295 31.398 30.4585 29.274C30.0535 28.647 29.6875 27.995 29.2815 27.369C28.8605 26.72 28.4495 26.06 27.9695 25.456C27.1615 24.44 25.7185 24.076 24.6035 24.545C23.6075 24.964 22.9035 26.251 23.1195 27.527C23.2885 28.526 23.5415 29.531 23.9155 30.471C24.5415 32.047 25.4755 33.459 26.5945 34.737C27.1375 35.357 27.7155 35.947 28.2995 36.574C28.6365 36.405 28.9125 36.283 29.1715 36.133C30.1295 35.583 31.1595 35.327 32.2615 35.319C33.5945 35.309 34.8205 35.7 36.0055 36.267C36.3155 36.416 36.6295 36.557 36.9985 36.728C37.1205 36.295 37.1985 35.976 37.2995 35.665C37.5325 34.948 37.8105 34.745 38.5645 34.7C39.5025 34.643 40.3035 34.974 40.9995 35.572C41.9645 36.401 42.9615 37.201 43.8545 38.102C44.6855 38.941 45.4405 39.866 46.1485 40.814C46.6905 41.539 47.1065 42.357 47.6835 43.306ZM49.8295 46.03C50.5915 46.132 51.3715 45.995 52.4055 45.557C54.0175 44.875 55.5155 43.99 56.9335 42.967C57.7415 42.384 58.5325 41.777 59.3535 41.214C61.2235 39.933 63.2505 38.968 65.5055 38.661C67.3645 38.407 69.2495 38.351 71.1195 38.173C71.6885 38.119 72.2725 38.017 72.8035 37.816C73.5315 37.541 73.7595 36.92 73.5125 36.193C73.1305 35.069 71.6065 33.97 70.2385 34.574C69.7085 34.808 69.1815 35.056 68.6815 35.347C67.6525 35.946 66.5475 36.251 65.3655 36.277C64.7295 36.291 64.0915 36.23 63.4565 36.26C62.2445 36.318 61.0135 36.304 59.8285 36.523C57.8895 36.881 56.2275 37.749 55.2465 39.606C54.8595 40.338 54.3855 41.025 53.9435 41.727C52.9455 43.31 51.8025 44.757 50.1555 45.726C50.0665 45.777 50.0005 45.868 49.8295 46.03ZM45.6635 34.405C45.6225 34.22 45.6225 34.189 45.6095 34.167C45.5675 34.096 45.5265 34.023 45.4735 33.961C42.9555 30.982 39.6205 29.535 35.8795 28.865C35.0935 28.724 34.2965 28.633 33.5005 28.554C32.3885 28.443 31.4315 28.004 30.5805 27.295C30.2325 27.006 29.8635 26.743 29.5035 26.467C29.4545 26.515 29.4065 26.562 29.3585 26.61C30.0675 27.652 30.7235 28.737 31.5005 29.726C32.4785 30.97 33.8185 31.667 35.3875 31.885C36.3155 32.014 37.2465 32.138 38.1805 32.201C40.4955 32.357 42.6985 32.899 44.7575 33.988C45.0165 34.124 45.2905 34.234 45.6635 34.405ZM37.6855 62.616C40.5025 60.214 42.6965 54.231 41.8905 51.368C41.2875 51.793 41.2665 52.452 41.1625 53.056C40.9765 54.143 40.8525 55.242 40.6475 56.326C40.5235 56.984 40.4155 57.665 39.9265 58.411C40.3105 56.271 40.6595 54.324 41.0345 52.231C40.3975 52.702 40.1535 53.233 40.0185 53.792C39.7595 54.864 39.5045 55.943 39.3485 57.033C39.0925 58.816 38.8885 60.602 37.8405 62.148C37.7855 62.231 37.7745 62.343 37.6855 62.616ZM58.1115 36.454C58.1885 36.449 58.2705 36.462 58.3405 36.437C60.1685 35.8 62.0565 35.681 63.9735 35.749C64.7165 35.775 65.4645 35.746 66.2075 35.697C67.1255 35.636 68.6665 34.922 69.2155 34.32C68.8075 34.355 68.4535 34.387 68.0995 34.416C66.8085 34.522 65.5215 34.712 64.2255 34.429C61.8165 33.901 59.8665 34.859 58.1115 36.454ZM53.6415 47.602C54.0555 48.889 54.5015 50.103 54.8315 51.348C55.2105 52.777 55.7665 54.104 56.5865 55.339C57.3655 56.512 58.0685 57.739 58.3635 59.143C58.4905 59.746 58.5715 60.358 58.6735 60.966C58.9105 59.564 58.7955 58.196 58.2135 56.918C57.7235 55.841 57.1755 54.782 56.5555 53.775C55.9665 52.819 55.5485 51.823 55.3195 50.729C55.1845 50.084 55.0025 49.443 54.7735 48.825C54.5715 48.276 54.2065 47.831 53.6415 47.602ZM57.8105 59.086C57.6505 57.689 56.9335 56.538 56.2015 55.412C55.3445 54.094 54.8025 52.68 54.4785 51.143C54.2585 50.1 53.8635 49.091 53.5055 48.081C53.4065 47.803 53.1565 47.578 52.9755 47.329C52.9135 47.357 52.8525 47.385 52.7905 47.413C53.7185 48.803 53.7315 50.373 53.8325 51.939C53.8965 52.939 54.2175 53.899 54.7845 54.737C55.7735 56.2 56.7995 57.638 57.8105 59.086Z" fill="#955D34"/>
<path d="M45.4282 96.1364C45.2962 95.8924 45.1592 95.6984 45.0812 95.4834C44.5652 94.0584 43.6662 92.8844 42.4502 92.0404C40.7662 90.8714 39.5162 89.3684 38.5172 87.6174C37.9962 86.7044 37.4722 85.7934 36.9732 84.8684C36.3852 83.7804 35.5642 82.9054 34.6562 82.0754C33.0052 80.5634 31.3392 79.0574 29.8062 77.4294C27.3282 74.7954 25.5742 71.7014 24.4312 68.2664C23.9682 66.8764 23.5312 65.4784 23.0582 64.0914C22.1262 61.3594 20.8942 58.7684 19.3932 56.3014C18.8762 55.4514 18.4092 54.5714 17.9282 53.6994C17.7982 53.4644 17.7032 53.2104 17.5742 52.9264C18.0882 52.7094 18.2952 53.0704 18.5402 53.2874C19.8042 54.4054 21.0182 55.5844 22.3252 56.6494C25.2202 59.0084 28.1812 61.2854 31.0752 63.6444C34.3482 66.3134 36.7882 69.6384 38.5522 73.4644C39.6672 75.8824 40.1832 78.4474 40.3422 81.0914C40.4762 83.3074 40.7802 85.4904 41.4802 87.6094C41.7782 88.5114 42.1802 89.3424 42.7262 90.1224C43.5352 91.2764 44.3142 92.4534 45.0552 93.6524C45.3562 94.1404 45.5452 94.7024 45.7462 95.2454C45.8492 95.5204 45.9472 95.8444 45.4282 96.1364ZM19.2352 54.6734C19.1972 54.6994 19.1602 54.7264 19.1222 54.7524C19.2882 55.0224 19.4462 55.2974 19.6212 55.5614C21.2952 58.0854 22.6612 60.7644 23.6472 63.6314C24.1322 65.0424 24.5862 66.4654 25.0552 67.8814C26.1662 71.2354 27.8632 74.2644 30.2662 76.8554C31.6182 78.3124 33.0422 79.7174 34.5512 81.0104C36.0942 82.3334 37.3062 83.8584 38.2402 85.6494C38.8142 86.7504 39.4992 87.7944 40.1462 88.8564C40.2952 89.1004 40.4942 89.3134 40.6702 89.5414C39.8932 88.0514 39.3892 86.4854 38.8722 84.9184C38.0752 82.5034 36.8762 80.3304 35.1232 78.4384C34.1742 77.4144 33.3952 76.2064 32.6832 74.9964C31.5622 73.0914 30.5572 71.1164 29.5132 69.1664C27.6412 65.6714 25.5762 62.3044 22.9262 59.3304C22.8632 59.2604 22.8202 59.1724 22.7682 59.0934C22.8172 59.0504 22.8672 59.0074 22.9162 58.9644C23.0092 59.1034 23.0822 59.2614 23.1972 59.3774C25.9652 62.1754 28.1432 65.3964 30.0072 68.8444C31.0462 70.7664 32.0742 72.6944 33.1172 74.6134C33.8732 76.0044 34.7632 77.3004 35.8472 78.4614C36.9312 79.6234 37.8342 80.9124 38.4382 82.3894C38.8772 83.4624 39.2772 84.5514 39.6912 85.6344C39.9622 86.3444 40.1502 87.0924 40.6732 87.8384C40.6732 87.5994 40.7002 87.4854 40.6692 87.3904C39.8812 85.0004 39.7462 82.5114 39.5272 80.0314C39.3512 78.0394 38.9072 76.0964 38.1172 74.2514C36.0972 69.5354 32.9782 65.6774 28.8452 62.6614C25.6192 60.3074 22.6052 57.7094 19.6662 55.0164C19.5302 54.8944 19.3782 54.7884 19.2352 54.6734Z" fill="#955D34"/>
<path d="M52.3008 96.19C52.3578 95.922 52.3808 95.679 52.4618 95.457C53.8418 91.685 54.4148 87.749 54.8398 83.783C55.1538 80.855 56.2178 78.217 57.9138 75.821C59.5988 73.44 61.5448 71.287 63.6138 69.239C64.6758 68.188 65.7348 67.132 66.8208 66.106C69.5048 63.568 71.6248 60.619 73.3128 57.345C73.4518 57.074 73.5018 56.699 73.8708 56.625C73.9408 56.688 74.0098 56.72 74.0108 56.755C74.1188 60.693 74.0098 64.622 72.8978 68.43C71.4098 73.525 68.5378 77.646 64.0098 80.531C63.2858 80.992 62.5868 81.491 61.8538 81.936C60.1058 82.999 59.0398 84.638 58.3838 86.469C57.5048 88.918 56.0228 90.969 54.5088 93.008C53.8968 93.833 53.5008 94.706 53.2238 95.669C53.1198 96.033 53.0278 96.275 52.3008 96.19ZM73.6318 58.157C73.4288 58.298 73.3698 58.318 73.3448 58.359C73.0858 58.784 72.8208 59.205 72.5798 59.64C71.2448 62.054 69.6008 64.233 67.6458 66.179C66.4108 67.41 65.1728 68.638 63.9448 69.876C61.9928 71.843 60.1418 73.898 58.5388 76.166C56.9648 78.394 55.9258 80.827 55.5698 83.557C55.2448 86.051 54.8208 88.532 54.4408 91.018C54.4028 91.267 54.3598 91.516 54.3188 91.765C54.6198 91.552 54.8178 91.314 54.9228 91.04C55.3478 89.933 55.8408 88.839 56.1258 87.695C56.4578 86.358 56.6168 84.977 56.8178 83.61C57.2038 80.995 58.1508 78.643 60.0428 76.75C60.8228 75.97 61.6598 75.24 62.5208 74.549C63.8158 73.509 65.1428 72.514 66.2428 71.252C68.9608 68.135 71.0258 64.623 72.6098 60.816C72.7188 60.554 72.8298 60.293 72.9998 59.887C72.9998 60.11 73.0118 60.166 72.9978 60.214C71.9698 63.826 70.1648 67.048 67.9728 70.06C66.8128 71.654 65.4388 73.058 63.8638 74.261C63.0068 74.916 62.1558 75.585 61.3518 76.303C59.3548 78.089 57.9838 80.244 57.5648 82.94C57.3058 84.605 57.0248 86.268 56.7558 87.931C56.7298 88.093 56.7098 88.256 56.6878 88.418C57.0848 87.814 57.3538 87.181 57.6118 86.545C58.5618 84.208 59.9088 82.196 62.1688 80.916C62.6018 80.671 63.0008 80.368 63.4228 80.104C68.0898 77.183 70.9238 72.93 72.4458 67.718C73.0388 65.688 73.2268 63.595 73.4188 61.504C73.5178 60.433 73.5578 59.359 73.6318 58.157Z" fill="#955D34"/>
<path d="M31.5746 40.9099C31.7756 41.0739 31.9776 41.2359 32.1776 41.4019C34.5976 43.4099 37.1886 45.1339 40.2286 46.0569C42.3066 46.6889 44.4236 46.9679 46.6876 46.4559C45.7276 43.8299 43.6476 42.1359 41.8616 40.1719C44.1706 41.8999 47.1756 45.1919 47.0876 46.5729C46.7186 46.6709 46.3696 46.8009 46.0106 46.8499C45.2506 46.9529 44.4766 47.1279 43.7236 47.0729C38.9116 46.7219 35.0386 44.4069 31.6246 41.1699C31.5726 41.1209 31.5516 41.0399 31.5156 40.9739C31.5356 40.9519 31.5556 40.9309 31.5746 40.9099Z" fill="#955D34"/>
<path d="M47.3046 12.3906C46.7436 16.1806 46.7045 19.9926 46.8185 23.8066C46.9325 27.6096 47.5765 31.3606 48.0765 35.1246C46.4015 32.3006 45.8666 16.2746 47.3046 12.3906Z" fill="#955D34"/>
<path d="M47.8926 46.5497C52.2156 42.3297 54.3006 36.9617 55.8316 31.3047C55.6406 36.1067 51.0466 44.9757 47.8926 46.5497Z" fill="#955D34"/>
<path d="M48.0212 30.4932C47.0452 25.5212 47.0512 20.5142 47.7272 15.4922C47.5732 20.4942 47.3962 25.4962 48.0212 30.4932Z" fill="#955D34"/>
<path d="M34.385 16.2734C34.202 20.4794 34.545 24.5884 36.57 28.4154C36.118 28.1964 35.938 27.7754 35.749 27.3724C34.996 25.7584 34.506 24.0614 34.282 22.2994C34.027 20.2964 33.954 18.2864 34.385 16.2734Z" fill="#955D34"/>
<path d="M40.5508 11.3594C41.6958 14.9764 41.9918 18.6914 41.9648 22.4434C41.9038 22.4504 41.8438 22.4574 41.7828 22.4644C41.6458 20.5984 41.5618 18.7263 41.3558 16.8683C41.1518 15.0243 40.8248 13.1944 40.5508 11.3594Z" fill="#955D34"/>
<path d="M53.002 45.3765C55.736 43.4045 58.235 41.1785 60.501 38.6875C58.527 41.5065 56.121 43.8435 53.002 45.3765Z" fill="#955D34"/>
<path d="M54.6484 7.33594C55.5874 10.4969 55.3424 13.705 54.9364 16.92C55.0374 13.722 55.2114 10.5209 54.6484 7.33594Z" fill="#955D34"/>
<path d="M35.1367 19.5078C35.4127 21.1488 35.6507 22.7968 35.9757 24.4278C36.2997 26.0538 36.9767 27.5578 37.7287 29.0608C37.5957 28.9148 37.4437 28.7828 37.3327 28.6218C36.5697 27.5148 36.1547 26.2608 35.8097 24.9788C35.3277 23.1868 35.1707 21.3548 35.1367 19.5078Z" fill="#955D34"/>
<path d="M41.819 45.7548C38.938 45.2888 36.539 43.8578 34.377 41.9688C36.654 43.6267 39.184 44.7828 41.819 45.7548Z" fill="#955D34"/>
<path d="M32.1801 35.8875C29.8811 34.3115 28.4421 32.0796 27.3281 29.6016C28.6931 31.8926 30.1981 34.0745 32.1801 35.8875Z" fill="#955D34"/>
<path d="M56.068 33.5C55.599 36.558 54.412 39.319 52.582 41.81C54.079 39.179 55.409 36.48 56.068 33.5Z" fill="#955D34"/>
<path d="M60.894 18.5156C60.982 20.4366 60.198 24.0866 59.459 25.0416C59.947 22.8256 60.434 20.6086 60.894 18.5156Z" fill="#955D34"/>
<path d="M61.3008 33.808C61.9678 31.75 62.5968 29.811 63.1828 28C63.3418 29.065 62.2018 32.852 61.3008 33.808Z" fill="#955D34"/>
<path d="M52.9297 44.8605C54.6687 43.2315 56.2717 41.7305 57.9197 40.1875C56.5697 42.0415 55.0607 43.6425 52.9297 44.8605Z" fill="#955D34"/>
<path d="M58.416 24.9375C58.454 23.6385 58.909 22.4285 59.219 21.1875C59.082 22.4655 59.03 23.7615 58.416 24.9375Z" fill="#955D34"/>
<path d="M30.4528 35.8014C29.5728 35.2044 28.9828 34.3514 28.5488 33.3594C29.2268 34.1354 29.9048 34.9104 30.5818 35.6864C30.5388 35.7254 30.4958 35.7634 30.4528 35.8014Z" fill="#955D34"/>
<path d="M48.21 96.42C21.627 96.42 0 74.793 0 48.21C0 21.627 21.627 0 48.21 0C74.793 0 96.42 21.627 96.42 48.21C96.42 74.794 74.793 96.42 48.21 96.42ZM48.21 0.830017C22.085 0.830017 0.830002 22.085 0.830002 48.21C0.830002 74.335 22.084 95.59 48.21 95.59C74.335 95.59 95.59 74.335 95.59 48.21C95.59 22.085 74.335 0.830017 48.21 0.830017Z" fill="#955D34"/>
</svg>
