<svg width="48" height="51" viewBox="0 0 48 51" fill="none" xmlns="http://www.w3.org/2000/svg">
<path d="M46.8571 16H45.6831C45.6608 15.5774 45.627 15.1536 45.5802 14.7315C45.511 14.1043 44.9463 13.6518 44.3187 13.7211C43.6914 13.7904 43.239 14.3553 43.3083 14.9826C43.3458 15.3211 43.3737 15.661 43.3937 15.9999H41.1038C40.5136 7.0784 33.0685 0 24 0C14.9315 0 7.4864 7.0784 6.89611 16H4.60617C4.62617 15.661 4.65417 15.3213 4.69154 14.9827C4.76091 14.3554 4.30846 13.7905 3.68114 13.7213C3.05349 13.6522 2.48903 14.1043 2.41966 14.7317C2.37303 15.1536 2.3392 15.5775 2.3168 16.0001H1.14286C0.511657 16.0001 0 16.5118 0 17.143C0 17.7742 0.511657 18.2858 1.14286 18.2858H2.31577C2.86023 28.7346 10.8258 37.2505 21.0286 38.6529V48.2286H12.0736C11.4424 48.2286 10.9307 48.7403 10.9307 49.3714C10.9307 50.0025 11.4424 50.5143 12.0736 50.5143H35.4693C36.1005 50.5143 36.6121 50.0025 36.6121 49.3714C36.6121 48.7403 36.1005 48.2286 35.4693 48.2286H26.9714V38.6529C37.1742 37.2505 45.1398 28.7346 45.6842 18.2857H46.8571C47.4883 18.2857 48 17.7741 48 17.1429C48 16.5117 47.4883 16 46.8571 16ZM24 2.28571C32.1922 2.28571 38.8571 8.95051 38.8571 17.1429C38.8571 25.3352 32.1922 32 24 32C15.8078 32 9.14286 25.3352 9.14286 17.1429C9.14286 8.95051 15.8078 2.28571 24 2.28571ZM24.6857 48.2286H23.3143V38.8453C23.5421 38.8525 23.7705 38.8571 24 38.8571C24.2295 38.8571 24.4579 38.8523 24.6857 38.8453V48.2286ZM25.7137 36.495C25.7127 36.4951 25.7115 36.4951 25.7104 36.4952C25.1466 36.5447 24.5765 36.5714 24 36.5714C23.4235 36.5714 22.8534 36.5447 22.2895 36.4952C22.2883 36.4951 22.2873 36.4951 22.2862 36.495C12.7483 35.6573 5.1664 27.8993 4.60594 18.2857H6.89611C7.4864 27.2073 14.9315 34.2857 24 34.2857C33.0685 34.2857 40.5136 27.2073 41.1039 18.2857H43.3941C42.8335 27.8993 35.2517 35.6573 25.7137 36.495Z" fill="black" fill-opacity="0.5"/>
<path d="M21.9305 16.964C22.1536 17.1871 22.4462 17.2988 22.7386 17.2988C23.0311 17.2988 23.3237 17.1871 23.5467 16.964L31.6848 8.82597C32.1311 8.37969 32.1311 7.65603 31.6848 7.20963C31.2385 6.76346 30.5149 6.76346 30.0685 7.20963L21.9304 15.3477C21.4841 15.7941 21.4841 16.5177 21.9305 16.964Z" fill="black" fill-opacity="0.5"/>
<path d="M18.6974 18.5847L14.0691 23.2128C13.6229 23.6591 13.6227 24.3827 14.069 24.8291C14.2922 25.0522 14.5847 25.1639 14.8771 25.1639C15.1696 25.1639 15.4622 25.0522 15.6853 24.8291L20.3135 20.201C20.7598 19.7547 20.7599 19.0311 20.3135 18.5847C19.8673 18.1385 19.1438 18.1384 18.6974 18.5847Z" fill="black" fill-opacity="0.5"/>
<path d="M25.8604 4.95182C25.4141 4.50564 24.6905 4.50564 24.2441 4.95182L11.8113 17.3847C11.365 17.831 11.365 18.5547 11.8113 19.0011C12.0345 19.2242 12.3269 19.3358 12.6194 19.3358C12.9118 19.3358 13.2044 19.2242 13.4275 19.0011L25.8604 6.56816C26.3067 6.12187 26.3067 5.39822 25.8604 4.95182Z" fill="black" fill-opacity="0.5"/>
</svg>
