<svg width="24" height="24" viewBox="0 0 24 24" fill="none" xmlns="http://www.w3.org/2000/svg">
<rect width="24" height="24" rx="12" fill="white"/>
<rect x="3" y="3" width="18" height="18" rx="9" fill="white"/>
<path d="M11.999 3C14.4431 3 14.7491 3.01101 15.709 3.05469C16.6668 3.09857 17.3209 3.25018 17.8945 3.47266C18.487 3.70234 18.9877 4.01012 19.4883 4.51074C19.9889 5.01094 20.2967 5.51263 20.5273 6.10449C20.7486 6.67675 20.9003 7.33093 20.9453 8.28906C20.9884 9.24906 21 9.55581 21 12C21 14.4439 20.9884 14.7503 20.9453 15.71C20.9003 16.6676 20.7486 17.3221 20.5273 17.8945C20.2967 18.4863 19.9889 18.989 19.4883 19.4893C18.9884 19.9896 18.4871 20.2975 17.8955 20.5273C17.3229 20.7499 16.6681 20.9024 15.71 20.9463C14.75 20.99 14.4441 21 12 21C9.55594 21 9.24905 20.99 8.28906 20.9463C7.33115 20.9024 6.67711 20.7499 6.10449 20.5273C5.51303 20.2975 5.01072 19.9897 4.51074 19.4893C4.0103 18.989 3.70272 18.4865 3.47266 17.8945C3.25028 17.3223 3.09875 16.6681 3.05469 15.71C3.0112 14.7501 3 14.4441 3 12C3 9.55599 3.01078 9.24889 3.05371 8.28906C3.09684 7.3313 3.24953 6.67694 3.47266 6.10449C3.70322 5.51293 4.01036 5.01085 4.51074 4.51074C5.011 4.0103 5.51353 3.70253 6.10547 3.47266C6.67772 3.25009 7.33191 3.09856 8.29004 3.05469C9.24964 3.01102 9.5566 3.00001 11.999 3Z" fill="black"/>
<path d="M11.1963 4.62695C11.4357 4.62658 11.7029 4.62695 12.0029 4.62695C14.4057 4.62695 14.691 4.6356 15.6396 4.67871C16.5169 4.71882 16.9933 4.86609 17.3105 4.98926C17.7306 5.15238 18.0309 5.34711 18.3457 5.66211C18.6606 5.97703 18.8551 6.27737 19.0186 6.69727C19.1417 7.01414 19.2892 7.49073 19.3291 8.36816C19.3722 9.3165 19.3809 9.60184 19.3809 12.0029C19.3809 14.4045 19.3722 14.6902 19.3291 15.6387C19.289 16.5162 19.1417 16.9927 19.0186 17.3096C18.8555 17.7295 18.6606 18.029 18.3457 18.3438C18.0307 18.6588 17.7307 18.8535 17.3105 19.0166C16.9937 19.1403 16.5168 19.287 15.6396 19.3271C14.6912 19.3703 14.4057 19.3789 12.0029 19.3789C9.59997 19.3789 9.31494 19.3703 8.36621 19.3271C7.48893 19.2866 7.01273 19.1398 6.69531 19.0166C6.27538 18.8535 5.9751 18.6587 5.66016 18.3438C5.34515 18.0287 5.14983 17.7288 4.98633 17.3086C4.86319 16.9918 4.7167 16.5156 4.67676 15.6387C4.63363 14.6899 4.625 14.4044 4.625 12.001C4.625 9.59773 4.63363 9.31397 4.67676 8.36523C4.7169 7.48789 4.86315 7.01156 4.98633 6.69434C5.14945 6.27433 5.34515 5.97418 5.66016 5.65918C5.97511 5.34425 6.27538 5.14981 6.69531 4.98633C7.01254 4.86259 7.48884 4.71611 8.36621 4.67578C9.19647 4.63828 9.5189 4.62688 11.1963 4.625V4.62695ZM11.7676 7.38867C9.32541 7.51222 7.38284 9.53204 7.38281 12.0049C7.38281 14.5573 9.45244 16.626 12.0049 16.626C14.5573 16.626 16.626 14.5573 16.626 12.0049C16.626 9.45249 14.5573 7.38289 12.0049 7.38281L11.7676 7.38867ZM16.8057 6.12305C16.2094 6.12305 15.7256 6.60668 15.7256 7.20312C15.7258 7.79917 16.2096 8.28223 16.8057 8.28223C17.4017 8.28219 17.8855 7.79915 17.8857 7.20312C17.8857 6.60689 17.4019 6.12308 16.8057 6.12305Z" fill="white"/>
<path d="M12.002 9C13.6588 9 15.002 10.3431 15.002 12C15.002 13.6568 13.6588 15.0001 12.002 15.0001C10.345 15.0001 9.00195 13.6568 9.00195 12C9.00195 10.3431 10.345 9 12.002 9Z" fill="white"/>
</svg>
