<svg width="178" height="75" viewBox="0 0 178 75" fill="none" xmlns="http://www.w3.org/2000/svg">
<path d="M13.3767 37.1018C14.3908 35.398 16.3721 34.7499 17.7945 35.6569C18.8086 36.305 19.2571 37.5712 19.0697 38.8641C22.9821 39.8446 26.6268 41.7805 29.7009 43.8685C26.7657 39.9531 24.0314 35.7388 21.5078 31.2622C21.4309 31.2488 21.3522 31.2338 21.2786 31.1987C21.2317 31.177 16.4725 28.932 11.551 25.7383C4.80041 21.3569 0.958237 17.3346 0.131567 13.7851C-0.171322 12.4855 0.0495737 11.6236 0.785879 11.2227C1.84515 10.6481 3.75285 10.8035 13.0403 19.9955C14.3105 21.2517 15.5572 22.5228 16.7118 23.7138C15.758 22.1035 14.6535 20.1392 13.5993 18.0312C9.95455 10.7366 8.64259 5.28621 9.70353 1.83354C10.0918 0.569072 10.7143 -0.0472844 11.5527 0.00282685C12.7575 0.0746529 14.3289 1.21718 17.7611 13.9404C19.0513 18.721 20.1557 23.525 20.6577 25.77L20.6594 25.7717C21.4325 27.285 22.2358 28.7616 23.0558 30.2182C22.3362 26.0473 22.0316 20.221 23.7318 13.765C23.2214 13.5078 22.7679 13.1604 22.4249 12.7244C21.8509 11.9928 21.6233 11.0941 21.8007 10.2589C21.9781 9.42373 22.5454 8.71549 23.3586 8.31293C24.1134 7.94044 25.017 7.85191 25.9056 8.06404C26.7942 8.27451 27.5757 8.76559 28.1078 9.44377C28.6818 10.1754 28.9094 11.0741 28.732 11.9092C28.5563 12.7444 27.9873 13.4527 27.174 13.8552C26.9431 13.9688 26.6971 14.0557 26.4428 14.1175C26.1533 14.186 25.8537 14.2194 25.5475 14.2177C22.4416 25.9337 26.4377 35.7989 26.498 35.9442C26.5063 35.9643 26.5047 35.986 26.5114 36.0077C28.1798 38.6152 29.9352 41.1007 31.7575 43.486C29.4499 35.9426 25.8002 21.3819 29.6942 15.0262C30.4724 13.7567 31.3107 13.2589 32.1876 13.5479C33.4209 13.9538 34.1238 15.8363 34.6124 20.0456C34.9437 22.8936 35.1546 26.7706 35.2383 31.5712C35.3688 38.971 35.1579 46.3223 35.1161 47.6686C35.9628 48.6625 36.8213 49.638 37.6948 50.5851C38.1467 51.0478 38.483 51.4086 38.6905 51.6374C42.6649 55.8117 46.9171 59.5099 51.3801 62.6786C48.6959 59.1842 45.5013 53.5567 44.8889 46.1068C43.5953 45.9063 42.5227 45.0595 42.2348 43.8468C41.8382 42.1814 43.0598 40.4593 44.9592 40.0083C46.8585 39.5573 48.726 40.5461 49.1226 42.2132C49.4941 43.7733 48.4365 45.3685 46.7413 45.9364C47.3153 53.0272 50.3994 58.3724 52.9313 61.6329C55.6406 65.124 58.2645 67.0149 58.5306 67.202C67.0483 71.9325 73.1462 73.0867 73.2165 73.0984C73.7236 73.1902 74.07 73.6864 73.988 74.2075C73.9277 74.5984 73.6433 74.8923 73.2902 74.9759C73.173 75.0043 73.0475 75.0076 72.9203 74.9859C72.6576 74.9391 67.6139 73.987 60.2191 70.242C59.4778 70.2086 52.9614 69.8896 45.9582 68.6568C35.8256 66.8729 29.5386 64.0967 27.2728 60.4052C26.7523 59.5567 26.2905 58.359 27.0502 57.4687C27.6744 56.7337 29.0081 56.1808 34.1656 57.6541C37.0054 58.4659 40.7622 59.8172 45.3323 61.673C46.482 62.139 47.6232 62.6151 48.7394 63.0862C44.8554 60.1897 41.1404 56.8957 37.6363 53.2426C37.6078 53.2176 37.576 53.1975 37.5509 53.1675C37.5426 53.1574 37.4589 53.0622 37.3083 52.9002C37.0556 52.6346 36.7979 52.3757 36.5486 52.1068C36.5301 52.0867 36.5117 52.065 36.4933 52.045C33.8543 49.3523 26.5883 42.6074 18.3417 40.658C17.7862 41.4448 17.0247 41.981 16.2215 42.1714C15.4986 42.3435 14.7506 42.2482 14.1147 41.8423C13.4018 41.388 12.9249 40.5946 12.8094 39.6675C12.7056 38.8039 12.9048 37.8936 13.3767 37.1018ZM26.3491 12.1247C26.5264 12.0379 26.836 11.8357 26.913 11.4749C26.99 11.1141 26.7908 10.7918 26.6653 10.6314C26.4026 10.2973 25.9826 10.0401 25.5123 9.92818C25.1777 9.848 24.8346 9.84633 24.5317 9.91816C24.4096 9.94656 24.2924 9.98831 24.187 10.0418C24.0096 10.1303 23.7 10.3307 23.623 10.6915C23.5461 11.0523 23.7452 11.3747 23.8707 11.5351C24.1334 11.8692 24.5535 12.1264 25.0237 12.2383C25.4923 12.3502 25.9759 12.3085 26.3491 12.1247ZM32.8402 20.9176C32.4436 17.0891 31.9349 15.863 31.7006 15.4872C31.6053 15.5857 31.4614 15.7595 31.2773 16.0601C29.3361 19.2272 29.3562 25.633 31.3342 34.5846C31.9701 37.4593 32.7164 40.1753 33.3741 42.3702C33.4193 39.5188 33.446 35.8557 33.3875 32.1475C33.3172 27.5289 33.1331 23.7505 32.8402 20.9176ZM47.3187 42.6358C47.1697 42.0094 46.2946 41.6586 45.4076 41.8691C44.5207 42.0795 43.8982 42.7861 44.0471 43.4125C44.1961 44.0389 45.0713 44.3896 45.9582 44.1809C46.8451 43.9687 47.4676 43.2622 47.3187 42.6358ZM12.2036 21.8062C5.19199 14.8241 2.6986 13.3341 1.87862 13.0317C1.89034 13.1203 1.91041 13.2305 1.94221 13.3641C2.64003 16.3574 6.29478 20.0724 12.5115 24.1113C14.1532 25.177 15.7764 26.1358 17.2055 26.9359C15.7513 25.4075 14.0059 23.6019 12.2036 21.8062ZM16.1295 15.0362C13.5591 5.39312 12.1484 2.80905 11.5912 2.11752C11.5577 2.19937 11.5192 2.30292 11.479 2.43321C10.5838 5.34467 11.8857 10.436 15.2426 17.1576C16.1295 18.9315 17.0532 20.6052 17.8882 22.0417C17.3963 19.9738 16.7905 17.515 16.1295 15.0362ZM45.0261 63.5906C32.5541 58.5043 29.3964 58.4976 28.65 58.6747C28.5998 58.6864 28.5613 58.6997 28.5295 58.7114C28.5546 58.82 28.6299 59.0372 28.8491 59.398C30.787 62.5533 36.7979 65.1006 46.2326 66.7643C49.4908 67.3389 52.6452 67.7114 55.1419 67.9486C52.3858 66.7058 48.7428 65.1073 45.0261 63.5906ZM15.0836 40.2137C15.6174 40.5545 16.4692 40.172 16.9428 39.3752C17.4163 38.5801 17.3628 37.6196 16.829 37.2789C16.5897 37.1269 16.3219 37.1419 16.1261 37.1887C16.0692 37.202 16.0174 37.2187 15.9755 37.2338C15.5856 37.3758 15.2191 37.6965 14.9698 38.1174C14.4962 38.9142 14.5481 39.873 15.0836 40.2137Z" fill="#955D34"/>
<path d="M61.3646 50.0405C61.3646 49.4638 61.4947 48.9466 61.7547 48.4886C62.0148 48.0251 62.3681 47.6633 62.8147 47.4032C63.267 47.1431 63.7673 47.0131 64.3157 47.0131C64.9602 47.0131 65.5227 47.1686 66.0032 47.4795C66.4837 47.7905 66.8342 48.2314 67.0547 48.8024H66.1304C65.9665 48.4462 65.729 48.1721 65.4181 47.9798C65.1128 47.7876 64.7453 47.6915 64.3157 47.6915C63.903 47.6915 63.5327 47.7876 63.2048 47.9798C62.8769 48.1721 62.6197 48.4462 62.4331 48.8024C62.2466 49.1529 62.1533 49.5656 62.1533 50.0405C62.1533 50.5097 62.2466 50.9224 62.4331 51.2786C62.6197 51.6291 62.8769 51.9004 63.2048 52.0926C63.5327 52.2849 63.903 52.381 64.3157 52.381C64.7453 52.381 65.1128 52.2877 65.4181 52.1011C65.729 51.9089 65.9665 51.6347 66.1304 51.2786H67.0547C66.8342 51.8439 66.4837 52.282 66.0032 52.593C65.5227 52.8982 64.9602 53.0509 64.3157 53.0509C63.7673 53.0509 63.267 52.9237 62.8147 52.6693C62.3681 52.4092 62.0148 52.0502 61.7547 51.5923C61.4947 51.1344 61.3646 50.6171 61.3646 50.0405ZM70.8831 53.0594C70.3347 53.0594 69.8344 52.9322 69.3821 52.6778C68.9299 52.4177 68.5709 52.0587 68.3052 51.6008C68.0451 51.1372 67.9151 50.6171 67.9151 50.0405C67.9151 49.4638 68.0451 48.9466 68.3052 48.4886C68.5709 48.0251 68.9299 47.6661 69.3821 47.4117C69.8344 47.1516 70.3347 47.0216 70.8831 47.0216C71.4371 47.0216 71.9403 47.1516 72.3925 47.4117C72.8448 47.6661 73.201 48.0222 73.461 48.4802C73.7211 48.9381 73.8511 49.4582 73.8511 50.0405C73.8511 50.6228 73.7211 51.1429 73.461 51.6008C73.201 52.0587 72.8448 52.4177 72.3925 52.6778C71.9403 52.9322 71.4371 53.0594 70.8831 53.0594ZM70.8831 52.3894C71.2958 52.3894 71.6661 52.2933 71.994 52.1011C72.3275 51.9089 72.5876 51.6347 72.7741 51.2786C72.9664 50.9224 73.0625 50.5097 73.0625 50.0405C73.0625 49.5656 72.9664 49.1529 72.7741 48.8024C72.5876 48.4462 72.3304 48.1721 72.0025 47.9798C71.6746 47.7876 71.3015 47.6915 70.8831 47.6915C70.4648 47.6915 70.0916 47.7876 69.7637 47.9798C69.4359 48.1721 69.1758 48.4462 68.9836 48.8024C68.797 49.1529 68.7037 49.5656 68.7037 50.0405C68.7037 50.5097 68.797 50.9224 68.9836 51.2786C69.1758 51.6347 69.4359 51.9089 69.7637 52.1011C70.0973 52.2933 70.4704 52.3894 70.8831 52.3894ZM76.7439 53.0594C76.3538 53.0594 76.0033 52.9915 75.6924 52.8558C75.3871 52.7145 75.1468 52.5223 74.9716 52.2792C74.7963 52.0305 74.7059 51.745 74.7002 51.4227H75.5228C75.5511 51.6997 75.6641 51.9343 75.862 52.1266C76.0655 52.3131 76.3595 52.4064 76.7439 52.4064C77.1114 52.4064 77.3997 52.3159 77.6089 52.135C77.8237 51.9485 77.9311 51.711 77.9311 51.4227C77.9311 51.1966 77.8689 51.0129 77.7446 50.8715C77.6202 50.7302 77.4647 50.6228 77.2782 50.5493C77.0916 50.4758 76.84 50.3966 76.5234 50.3118C76.1334 50.2101 75.8196 50.1083 75.5822 50.0066C75.3504 49.9048 75.1497 49.7465 74.9801 49.5317C74.8161 49.3112 74.7342 49.0172 74.7342 48.6498C74.7342 48.3275 74.8161 48.042 74.9801 47.7933C75.144 47.5445 75.373 47.3523 75.667 47.2166C75.9666 47.081 76.3086 47.0131 76.693 47.0131C77.2471 47.0131 77.6993 47.1516 78.0498 47.4286C78.406 47.7057 78.6067 48.0731 78.6519 48.531H77.8039C77.7756 48.3049 77.6569 48.107 77.4478 47.9374C77.2386 47.7622 76.9616 47.6746 76.6167 47.6746C76.2945 47.6746 76.0316 47.7594 75.8281 47.929C75.6246 48.0929 75.5228 48.3247 75.5228 48.6243C75.5228 48.8391 75.5822 49.0144 75.7009 49.1501C75.8252 49.2858 75.9751 49.3903 76.1503 49.4638C76.3312 49.5317 76.5828 49.6108 76.905 49.7013C77.2951 49.8087 77.6089 49.9161 77.8463 50.0235C78.0838 50.1253 78.2873 50.2864 78.4569 50.5069C78.6265 50.7217 78.7113 51.0157 78.7113 51.3888C78.7113 51.6771 78.635 51.9485 78.4823 52.2029C78.3297 52.4573 78.1035 52.6636 77.8039 52.8219C77.5043 52.9802 77.151 53.0594 76.7439 53.0594ZM85.8422 47.1318V53H85.0705V48.6243L83.1201 53H82.5774L80.6185 48.6158V53H79.8469V47.1318H80.6779L82.8488 51.9824L85.0197 47.1318H85.8422ZM87.9226 47.717V49.6928H90.0765V50.3288H87.9226V52.364H90.3309V53H87.1509V47.081H90.3309V47.717H87.9226ZM95.1365 47.0894V47.717H93.5253V53H92.7536V47.717H91.1339V47.0894H95.1365ZM95.7981 50.0405C95.7981 49.4638 95.9281 48.9466 96.1882 48.4886C96.4482 48.0251 96.8015 47.6633 97.2482 47.4032C97.7004 47.1431 98.2007 47.0131 98.7491 47.0131C99.3936 47.0131 99.9561 47.1686 100.437 47.4795C100.917 47.7905 101.268 48.2314 101.488 48.8024H100.564C100.4 48.4462 100.162 48.1721 99.8515 47.9798C99.5462 47.7876 99.1788 47.6915 98.7491 47.6915C98.3364 47.6915 97.9661 47.7876 97.6382 47.9798C97.3103 48.1721 97.0531 48.4462 96.8666 48.8024C96.68 49.1529 96.5867 49.5656 96.5867 50.0405C96.5867 50.5097 96.68 50.9224 96.8666 51.2786C97.0531 51.6291 97.3103 51.9004 97.6382 52.0926C97.9661 52.2849 98.3364 52.381 98.7491 52.381C99.1788 52.381 99.5462 52.2877 99.8515 52.1011C100.162 51.9089 100.4 51.6347 100.564 51.2786H101.488C101.268 51.8439 100.917 52.282 100.437 52.593C99.9561 52.8982 99.3936 53.0509 98.7491 53.0509C98.2007 53.0509 97.7004 52.9237 97.2482 52.6693C96.8015 52.4092 96.4482 52.0502 96.1882 51.5923C95.9281 51.1344 95.7981 50.6171 95.7981 50.0405ZM103.409 47.0894V53H102.637V47.0894H103.409ZM104.435 50.0405C104.435 49.4638 104.565 48.9466 104.825 48.4886C105.086 48.0251 105.439 47.6633 105.885 47.4032C106.338 47.1431 106.838 47.0131 107.386 47.0131C108.031 47.0131 108.593 47.1686 109.074 47.4795C109.555 47.7905 109.905 48.2314 110.125 48.8024H109.201C109.037 48.4462 108.8 48.1721 108.489 47.9798C108.184 47.7876 107.816 47.6915 107.386 47.6915C106.974 47.6915 106.603 47.7876 106.276 47.9798C105.948 48.1721 105.69 48.4462 105.504 48.8024C105.317 49.1529 105.224 49.5656 105.224 50.0405C105.224 50.5097 105.317 50.9224 105.504 51.2786C105.69 51.6291 105.948 51.9004 106.276 52.0926C106.603 52.2849 106.974 52.381 107.386 52.381C107.816 52.381 108.184 52.2877 108.489 52.1011C108.8 51.9089 109.037 51.6347 109.201 51.2786H110.125C109.905 51.8439 109.555 52.282 109.074 52.593C108.593 52.8982 108.031 53.0509 107.386 53.0509C106.838 53.0509 106.338 52.9237 105.885 52.6693C105.439 52.4092 105.086 52.0502 104.825 51.5923C104.565 51.1344 104.435 50.6171 104.435 50.0405Z" fill="#955D34"/>
<path d="M98.6511 39.6886C98.2434 39.6342 97.6862 39.5255 96.9795 39.3624C96.2728 39.2265 95.5525 38.9411 94.8187 38.5062C94.0848 38.0713 93.4597 37.4054 92.9433 36.5085C92.4268 35.6387 92.1686 34.47 92.1686 33.0023C92.1686 31.3171 92.5084 29.4689 93.1879 27.4575C93.8946 25.419 94.7507 23.299 95.7564 21.0974C96.762 18.8958 97.7269 16.7214 98.6511 14.5742C99.3849 12.8619 99.7518 11.5572 99.7518 10.6603C99.7518 9.76337 99.4121 9.3149 98.7326 9.3149C97.9716 9.3149 96.83 9.92645 95.3079 11.1495C93.813 12.3455 92.0735 14.1665 90.0894 16.6127C89.5729 17.265 88.907 18.1756 88.0916 19.3443C87.2762 20.4859 86.4065 21.7633 85.4823 23.1767C84.5582 24.5629 83.6477 25.9762 82.7508 27.4168C81.881 28.8301 81.1064 30.1348 80.4269 31.3307C79.7745 32.5266 79.2989 33.4779 78.9999 34.1846C78.6466 35.0272 78.2389 35.598 77.7768 35.8969C77.3148 36.2231 76.8799 36.3862 76.4722 36.3862C76.1188 36.3862 75.8063 36.2911 75.5345 36.1008C75.2898 35.9105 75.1675 35.6795 75.1675 35.4077C75.1675 35.2446 75.2083 35.1087 75.2898 35C75.4529 34.6738 75.8878 33.8856 76.5945 32.6353C77.3012 31.3851 78.103 29.7271 78.9999 27.6614C79.8969 25.5685 80.753 23.1495 81.5684 20.4043C82.411 17.632 83.0361 14.5742 83.4438 11.2311C83.4982 10.8506 83.5254 10.4429 83.5254 10.008C83.5254 9.05669 83.3623 8.3636 83.0361 7.92872C82.71 7.46666 82.2751 7.23563 81.7315 7.23563C81.1335 7.23563 80.454 7.49384 79.693 8.01026C78.932 8.52668 78.1573 9.27413 77.3691 10.2526C76.0101 11.9649 74.8142 13.555 73.7814 15.0227C72.7485 16.4632 71.7972 17.9038 70.9275 19.3443C70.0849 20.7849 69.2423 22.3205 68.3997 23.9513C67.5843 25.5821 66.7146 27.4168 65.7904 29.4553C64.8663 31.4666 63.8063 33.8041 62.6104 36.4677C62.4201 36.9026 62.094 37.2152 61.6319 37.4054C61.197 37.5957 60.7893 37.6908 60.4088 37.6908C60.0283 37.6908 59.7157 37.6093 59.4711 37.4462C59.2265 37.2831 59.1449 37.0521 59.2265 36.7531C59.9331 35.6659 60.6942 34.2933 61.5096 32.6353C62.325 30.9774 63.1404 29.1699 63.9558 27.2129C64.7984 25.2288 65.573 23.2311 66.2797 21.2197C67.0135 19.1812 67.6387 17.265 68.1551 15.4712C68.6715 13.6501 69.0249 12.0737 69.2151 10.7418C69.2695 10.307 69.3102 9.89927 69.3374 9.51875C69.3646 9.13823 69.3782 8.7713 69.3782 8.41796C69.3782 6.3251 68.9297 4.8302 68.0328 3.93326C67.163 3.03632 66.0351 2.58785 64.6489 2.58785C63.4801 2.58785 62.2027 2.85965 60.8165 3.40325C59.4575 3.91967 58.0713 4.63994 56.658 5.56406C55.2718 6.48818 53.94 7.56179 52.6625 8.78489C51.385 9.98081 50.2571 11.2719 49.2786 12.658C48.3001 14.017 47.5527 15.4032 47.0362 16.8166C46.6829 17.8222 46.4111 18.7871 46.2208 19.7112C46.0578 20.6082 45.9762 21.4508 45.9762 22.239C45.9762 23.7611 46.248 25.0521 46.7916 26.1121C47.3624 27.1722 48.1098 27.974 49.034 28.5176C49.9853 29.0612 51.0045 29.333 52.0917 29.333C52.4722 29.333 52.8935 29.2922 53.3556 29.2107C53.8448 29.1019 54.2525 28.9932 54.5787 28.8845C55.3669 28.5855 56.1279 28.1235 56.8618 27.4983C57.5957 26.846 58.248 26.0985 58.8188 25.256C59.3895 24.4134 59.838 23.5572 60.1642 22.6875C60.4903 21.8177 60.6534 21.0023 60.6534 20.2413C60.6534 19.453 60.436 18.8007 60.0011 18.2843C59.5662 17.7679 58.8731 17.5097 57.9218 17.5097C57.8131 17.5097 57.6908 17.5233 57.5549 17.5504C57.4462 17.5504 57.3239 17.5504 57.188 17.5504H57.0657C56.8754 17.5504 56.6987 17.5233 56.5356 17.4689C56.3726 17.3874 56.291 17.2922 56.291 17.1835C56.291 17.0748 56.4269 16.9525 56.6987 16.8166C56.9977 16.6807 57.5277 16.6127 58.2888 16.6127C59.5119 16.6127 60.4224 16.9797 61.0203 17.7135C61.6455 18.4202 61.9581 19.3307 61.9581 20.4451C61.9581 21.4508 61.6863 22.538 61.1427 23.7067C60.5991 24.8754 59.7837 25.9898 58.6965 27.0498C57.6093 28.1099 56.2367 28.9796 54.5787 29.6591C53.6002 30.0396 52.6489 30.2299 51.7248 30.2299C50.3658 30.2299 49.0747 29.8902 47.8516 29.2107C46.6285 28.504 45.6365 27.5119 44.8754 26.2344C44.1144 24.9298 43.7339 23.3941 43.7339 21.6274C43.7339 20.8392 43.8154 20.0102 43.9785 19.1405C44.1687 18.2435 44.4677 17.3194 44.8754 16.3681C45.7724 14.2752 46.9819 12.3455 48.504 10.5788C50.0532 8.78489 51.7656 7.23563 53.641 5.93099C55.5164 4.59917 57.419 3.56633 59.3488 2.83247C61.2786 2.09861 63.0724 1.73168 64.7304 1.73168C66.7417 1.73168 68.3997 2.32964 69.7044 3.52556C71.0362 4.72148 71.7021 6.65126 71.7021 9.3149C71.7021 9.50516 71.6885 9.76337 71.6613 10.0895C71.6613 10.3885 71.6477 10.6195 71.6205 10.7826C71.4575 12.1688 71.1721 13.555 70.7644 14.9412C70.3839 16.3273 69.9626 17.6592 69.5005 18.9366C69.419 19.1541 69.351 19.3851 69.2967 19.6297C69.2695 19.8471 69.2559 19.9966 69.2559 20.0782C69.2559 20.2141 69.2831 20.282 69.3374 20.282C69.4461 20.282 69.6636 19.9966 69.9897 19.4259C70.6149 18.2843 71.1721 17.2922 71.6613 16.4496C72.1777 15.5799 72.6806 14.7917 73.1698 14.085C73.659 13.3783 74.1891 12.658 74.7598 11.9242C75.3306 11.1903 75.9829 10.3749 76.7168 9.47798C77.5594 8.47232 78.5243 7.67051 79.6115 7.07255C80.6987 6.47459 81.7451 6.17561 82.7508 6.17561C83.6477 6.17561 84.4087 6.47459 85.0339 7.07255C85.659 7.67051 85.9716 8.68976 85.9716 10.1303C85.9716 10.2934 85.9716 10.4293 85.9716 10.538C85.9716 10.6467 85.958 10.8098 85.9308 11.0272C85.6862 13.6365 85.1698 16.205 84.3816 18.7328C83.5933 21.2333 82.7779 23.7611 81.9354 26.316C82.7779 25.0113 83.9195 23.3534 85.36 21.342C86.8006 19.3307 88.377 17.2515 90.0894 15.1042C92.1822 12.495 94.1256 10.538 95.9195 9.23336C97.7133 7.92872 99.1947 7.2764 100.363 7.2764C101.831 7.2764 102.565 8.17334 102.565 9.96722C102.565 10.6467 102.429 11.4621 102.157 12.4134C101.913 13.3647 101.519 14.3704 100.975 15.4304C100.377 16.6263 99.7111 18.0125 98.9772 19.5889C98.2705 21.1382 97.591 22.769 96.9387 24.4813C96.2864 26.1937 95.7428 27.8788 95.3079 29.5368C94.9002 31.1676 94.6964 32.6761 94.6964 34.0623C94.6964 35.5572 95.0361 36.7667 95.7156 37.6908C96.4223 38.6421 97.6318 39.0906 99.3441 39.0362H99.5888C99.9965 39.0362 100.2 39.1178 100.2 39.2809C100.2 39.3896 100.064 39.4983 99.7926 39.607C99.5208 39.7157 99.1403 39.7429 98.6511 39.6886ZM104.316 18.4474C103.908 18.4474 103.568 18.3115 103.296 18.0397C103.052 17.7407 102.929 17.3874 102.929 16.9797C102.929 16.4632 103.133 16.0148 103.541 15.6342C103.949 15.2537 104.397 15.0635 104.886 15.0635C105.321 15.0635 105.675 15.1994 105.946 15.4712C106.218 15.743 106.354 16.0691 106.354 16.4496C106.354 16.9661 106.15 17.4281 105.742 17.8358C105.335 18.2435 104.859 18.4474 104.316 18.4474ZM101.013 35C100.008 35 99.3008 34.7146 98.8931 34.1438C98.4854 33.5459 98.2816 32.8664 98.2816 32.1053C98.2816 31.6976 98.3223 31.2899 98.4039 30.8822C98.5126 30.4473 98.6349 30.0532 98.7708 29.6999L101.502 22.7282C101.584 22.5108 101.625 22.3205 101.625 22.1574C101.625 21.8856 101.557 21.6546 101.421 21.4644C101.285 21.2469 101.19 21.0974 101.135 21.0159L103.378 20.9343C103.786 20.9072 104.071 20.9615 104.234 21.0974C104.424 21.2061 104.519 21.342 104.519 21.5051C104.519 21.6682 104.424 21.9672 104.234 22.4021L100.85 30.3522C100.85 30.3522 100.769 30.5289 100.605 30.8822C100.47 31.2084 100.388 31.4258 100.361 31.5345C100.279 31.9422 100.225 32.2005 100.198 32.3092C100.171 32.4179 100.157 32.4858 100.157 32.513C100.157 32.5402 100.157 32.6489 100.157 32.8392C100.157 33.1925 100.239 33.4915 100.402 33.7361C100.592 33.9807 100.904 34.1031 101.339 34.1031C101.611 34.1031 101.924 34.0215 102.277 33.8584C102.63 33.6954 102.889 33.5323 103.052 33.3692C103.731 32.6625 104.397 31.7384 105.049 30.5968C105.729 29.4281 106.354 28.2729 106.925 27.1314C107.034 26.8596 107.169 26.7237 107.333 26.7237C107.468 26.7237 107.536 26.8188 107.536 27.0091C107.536 27.1178 107.496 27.2809 107.414 27.4983C107.142 28.0691 106.803 28.7758 106.395 29.6184C105.987 30.4609 105.498 31.3035 104.927 32.1461C104.383 32.9615 103.786 33.641 103.133 34.1846C102.481 34.7282 101.774 35 101.013 35ZM107.854 35.1631C106.522 35.1631 105.57 34.8233 105 34.1438C104.456 33.4371 104.184 32.7033 104.184 31.9422C104.184 31.3171 104.334 30.7463 104.633 30.2299C104.959 29.7135 105.339 29.4417 105.774 29.4145C106.318 28.3545 106.902 27.1993 107.527 25.9491C108.18 24.6988 108.778 23.4893 109.321 22.3205C109.702 21.5323 110.177 20.7713 110.748 20.0374C111.346 19.3035 111.999 18.8823 112.705 18.7735H113.113C113.33 18.7735 113.521 18.7871 113.684 18.8143C113.874 18.8415 114.064 18.8958 114.254 18.9774C114.553 19.1133 114.703 19.3171 114.703 19.5889C114.703 19.752 114.608 19.8336 114.418 19.8336C114.336 19.8336 114.227 19.7928 114.091 19.7112C113.765 19.5753 113.48 19.5074 113.235 19.5074C113.072 19.5074 112.923 19.5482 112.787 19.6297C112.27 19.9015 111.903 20.282 111.686 20.7713C111.496 21.2605 111.401 21.7769 111.401 22.3205C111.401 22.7554 111.441 23.2039 111.523 23.6659C111.632 24.1008 111.754 24.4949 111.89 24.8483C112.189 25.6093 112.501 26.3568 112.828 27.0906C113.181 27.8245 113.358 28.6127 113.358 29.4553C113.358 30.2707 113.086 31.1404 112.542 32.0646C111.999 32.9615 111.305 33.6818 110.463 34.2254L110.748 34.2661C110.884 34.2933 110.979 34.3069 111.034 34.3069C111.088 34.3069 111.129 34.3069 111.156 34.3069C111.781 34.3069 112.365 34.1302 112.909 33.7769C113.48 33.3964 113.983 32.9343 114.418 32.3907C114.852 31.8471 115.342 31.0861 115.885 30.1076C116.456 29.1291 117 28.0963 117.516 27.0091C117.598 26.8732 117.693 26.8052 117.801 26.8052C117.937 26.8052 118.033 26.8596 118.087 26.9683C118.168 27.0498 118.182 27.1586 118.128 27.2945C117.774 28.0555 117.367 28.8845 116.905 29.7814C116.47 30.6512 115.967 31.4938 115.396 32.3092C114.825 33.0974 114.159 33.7497 113.398 34.2661C112.664 34.7554 111.835 35 110.911 35C110.694 35 110.463 34.9864 110.218 34.9592C109.974 34.932 109.729 34.8777 109.484 34.7961C109.213 34.9049 108.927 34.9864 108.628 35.0408C108.356 35.1223 108.098 35.1631 107.854 35.1631ZM109.077 33.94C109.539 33.5595 109.946 33.0023 110.3 32.2684C110.68 31.5345 110.871 30.5697 110.871 29.3737C110.871 28.3137 110.762 27.1857 110.544 25.9898C110.327 24.7939 110.218 23.7339 110.218 22.8098C110.218 22.6195 110.218 22.4564 110.218 22.3205C110.245 22.1574 110.273 22.008 110.3 21.8721C109.946 22.6059 109.539 23.4621 109.077 24.4406C108.615 25.3919 108.153 26.316 107.691 27.2129C107.228 28.1099 106.834 28.8709 106.508 29.496C106.508 29.496 106.576 29.5096 106.712 29.5368C106.875 29.5368 107.025 29.6319 107.161 29.8222C107.296 29.9853 107.351 30.325 107.324 30.8415C107.296 31.521 107.446 32.1597 107.772 32.7576C108.125 33.3284 108.56 33.7225 109.077 33.94ZM107.527 34.5108C107.691 34.5108 107.84 34.4972 107.976 34.47C108.112 34.4156 108.234 34.3749 108.343 34.3477C107.935 34.0487 107.568 33.6546 107.242 33.1653C106.943 32.6489 106.766 31.9966 106.712 31.2084C106.223 31.7248 105.978 32.282 105.978 32.88C105.978 33.3148 106.114 33.6954 106.386 34.0215C106.658 34.3477 107.038 34.5108 107.527 34.5108ZM119.385 35C118.624 35 117.944 34.7418 117.346 34.2254C116.748 33.6818 116.449 32.8392 116.449 31.6976C116.449 30.8007 116.612 29.6999 116.939 28.3953C117.292 27.0634 117.713 25.6908 118.202 24.2775C118.719 22.8369 119.222 21.5323 119.711 20.3636H117.55C117.36 20.3636 117.265 20.2277 117.265 19.9559C117.265 19.82 117.292 19.6977 117.346 19.5889C117.428 19.4802 117.537 19.4259 117.672 19.4259H120.119C120.581 18.393 121.07 17.3874 121.586 16.4089C122.103 15.4304 122.606 14.5063 123.095 13.6365C123.72 12.5493 124.386 11.7339 125.093 11.1903C125.799 10.6467 126.411 10.3749 126.927 10.3749C127.335 10.3749 127.675 10.538 127.947 10.8642C128.218 11.1631 128.354 11.6252 128.354 12.2503C128.354 12.6309 128.273 13.1609 128.11 13.8404C127.947 14.4927 127.688 15.1858 127.335 15.9196C127.145 16.3002 126.873 16.8438 126.52 17.5504C126.193 18.2571 125.867 18.8823 125.541 19.4259H127.498C127.688 19.4259 127.783 19.5618 127.783 19.8336C127.783 19.9423 127.756 20.0646 127.702 20.2005C127.648 20.3092 127.566 20.3636 127.457 20.3636H125.052C124.372 21.5323 123.598 22.6739 122.728 23.7882C121.858 24.9026 120.825 26.017 119.629 27.1314C119.548 27.376 119.439 27.7293 119.303 28.1914C119.195 28.6535 119.086 29.1291 118.977 29.6184C118.896 30.0804 118.814 30.4745 118.733 30.8007C118.678 31.1268 118.651 31.2899 118.651 31.2899C118.569 31.6433 118.529 31.9694 118.529 32.2684C118.529 32.8392 118.665 33.2605 118.936 33.5323C119.208 33.7769 119.521 33.8992 119.874 33.8992C120.092 33.8992 120.309 33.872 120.526 33.8177C120.744 33.7361 120.988 33.6002 121.26 33.41C122.212 32.7305 123.041 31.8063 123.747 30.6376C124.481 29.4689 125.12 28.3409 125.663 27.2537C125.826 26.9275 125.99 26.7645 126.153 26.7645C126.261 26.7645 126.316 26.846 126.316 27.0091C126.316 27.0906 126.275 27.2401 126.193 27.4575C125.595 28.7078 125.093 29.7135 124.685 30.4745C124.277 31.2356 123.883 31.8743 123.503 32.3907C123.122 32.88 122.674 33.3692 122.157 33.8584C121.777 34.239 121.342 34.5243 120.853 34.7146C120.363 34.9049 119.874 35 119.385 35ZM122.606 19.4259H124.685C125.065 18.7192 125.419 18.0261 125.745 17.3466C126.098 16.6671 126.411 15.9876 126.683 15.3081C126.873 14.8732 127.036 14.384 127.172 13.8404C127.308 13.2968 127.376 12.8755 127.376 12.5765C127.376 12.1688 127.281 11.9649 127.09 11.9649C126.954 11.9649 126.751 12.0873 126.479 12.3319C126.234 12.5493 125.922 12.9298 125.541 13.4734C125.052 14.1529 124.563 15.0363 124.073 16.1235C123.611 17.1835 123.122 18.2843 122.606 19.4259ZM119.956 25.8267C120.744 25.0113 121.478 24.1416 122.157 23.2175C122.864 22.2933 123.516 21.342 124.114 20.3636H122.198C121.763 21.3692 121.355 22.3477 120.975 23.299C120.594 24.2503 120.255 25.0929 119.956 25.8267ZM127.627 35.1223C126.486 35.1223 125.711 34.8233 125.303 34.2254C124.896 33.6002 124.692 32.8664 124.692 32.0238C124.692 31.154 124.814 30.2571 125.059 29.333C125.303 28.4088 125.521 27.6342 125.711 27.0091C126.146 25.487 126.69 23.8698 127.342 22.1574C128.021 20.4179 128.755 18.7192 129.544 17.0612C130.359 15.376 131.161 13.8675 131.949 12.5357C132.574 11.4757 133.24 10.6875 133.947 10.1711C134.681 9.62747 135.319 9.35567 135.863 9.35567C136.298 9.35567 136.638 9.51875 136.882 9.84491C137.154 10.1439 137.29 10.6059 137.29 11.2311C137.29 11.666 137.208 12.1824 137.045 12.7803C136.909 13.3783 136.665 14.0578 136.311 14.8188C135.36 16.9389 134.219 19.0589 132.887 21.179C131.582 23.299 129.924 25.2831 127.913 27.1314C127.804 27.4847 127.655 27.906 127.464 28.3953C127.301 28.8573 127.152 29.333 127.016 29.8222C126.853 30.5561 126.771 31.1812 126.771 31.6976C126.771 32.5402 126.934 33.1789 127.26 33.6138C127.614 34.0215 128.035 34.2254 128.524 34.2254C128.959 34.2254 129.421 34.0759 129.91 33.7769C130.4 33.4507 130.862 32.9887 131.297 32.3907C131.949 31.4394 132.533 30.4745 133.05 29.496C133.593 28.4904 134.001 27.7158 134.273 27.1722C134.436 26.8732 134.613 26.7237 134.803 26.7237C134.939 26.7237 135.007 26.8052 135.007 26.9683C135.007 27.1042 134.966 27.2537 134.884 27.4168C134.64 27.9604 134.314 28.6671 133.906 29.5368C133.525 30.3794 133.036 31.2356 132.438 32.1053C131.867 32.9479 131.174 33.6682 130.359 34.2661C129.571 34.8369 128.66 35.1223 127.627 35.1223ZM128.239 25.8267C129.217 24.8211 130.169 23.6659 131.093 22.3613C132.017 21.0295 132.873 19.6569 133.661 18.2435C134.477 16.803 135.156 15.444 135.7 14.1665C135.89 13.7588 136.04 13.3104 136.148 12.8211C136.284 12.3319 136.352 11.9242 136.352 11.598C136.352 11.2175 136.257 11.0272 136.067 11.0272C135.958 11.0272 135.795 11.136 135.578 11.3534C135.36 11.5437 135.075 11.8834 134.721 12.3726C134.205 13.0521 133.634 13.9763 133.009 15.145C132.411 16.3137 131.799 17.564 131.174 18.8958C130.549 20.2277 129.978 21.5187 129.462 22.769C128.946 23.9921 128.538 25.0113 128.239 25.8267ZM137.163 35.1631C136.157 35.1631 135.247 34.8369 134.432 34.1846C133.643 33.5323 133.249 32.5402 133.249 31.2084C133.249 29.9853 133.548 28.6806 134.146 27.2945C134.744 25.8811 135.505 24.6444 136.429 23.5844C137.217 22.6603 138.101 21.8992 139.079 21.3013C140.058 20.7033 140.982 20.4043 141.852 20.4043C142.45 20.4043 142.966 20.5674 143.401 20.8936C143.863 21.2469 144.094 21.7497 144.094 22.4021C144.094 23.0816 143.836 23.829 143.319 24.6444C142.803 25.4598 142.069 26.2209 141.118 26.9275C140.71 27.2265 140.194 27.5119 139.569 27.7837C138.943 28.0555 138.318 28.2865 137.693 28.4768C137.068 28.6399 136.552 28.7214 136.144 28.7214C136.008 29.0476 135.872 29.4825 135.736 30.0261C135.627 30.5697 135.573 31.1268 135.573 31.6976C135.573 32.3771 135.709 32.9887 135.981 33.5323C136.253 34.0759 136.755 34.3477 137.489 34.3477C138.386 34.3477 139.202 34.0895 139.935 33.573C140.669 33.0566 141.322 32.4179 141.892 31.6569C142.463 30.8686 142.939 30.0804 143.319 29.2922C143.727 28.504 144.053 27.8381 144.298 27.2945C144.461 26.9139 144.678 26.7237 144.95 26.7237C145.086 26.7237 145.154 26.7916 145.154 26.9275C145.154 27.0363 145.113 27.1722 145.032 27.3352C144.651 28.1506 144.243 29.0204 143.809 29.9445C143.374 30.8415 142.857 31.6976 142.259 32.513C141.661 33.3012 140.941 33.94 140.099 34.4292C139.283 34.9185 138.305 35.1631 137.163 35.1631ZM136.429 27.9876C136.81 27.9876 137.448 27.8517 138.345 27.5799C139.242 27.2809 140.058 26.8188 140.792 26.1937C141.498 25.5685 142.042 24.889 142.422 24.1552C142.803 23.3941 142.993 22.7554 142.993 22.239C142.993 21.641 142.776 21.342 142.341 21.342C142.015 21.342 141.566 21.5595 140.995 21.9944C140.425 22.4292 139.718 23.1631 138.875 24.1959C138.359 24.8483 137.87 25.5549 137.408 26.316C136.946 27.077 136.619 27.6342 136.429 27.9876ZM146.379 35C145.618 35 144.938 34.7418 144.341 34.2254C143.743 33.6818 143.444 32.8392 143.444 31.6976C143.444 30.8007 143.607 29.6999 143.933 28.3953C144.286 27.0634 144.707 25.6908 145.197 24.2775C145.713 22.8369 146.216 21.5323 146.705 20.3636H144.544C144.354 20.3636 144.259 20.2277 144.259 19.9559C144.259 19.82 144.286 19.6977 144.341 19.5889C144.422 19.4802 144.531 19.4259 144.667 19.4259H147.113C147.575 18.393 148.064 17.3874 148.581 16.4089C149.097 15.4304 149.6 14.5063 150.089 13.6365C150.714 12.5493 151.38 11.7339 152.087 11.1903C152.794 10.6467 153.405 10.3749 153.921 10.3749C154.329 10.3749 154.669 10.538 154.941 10.8642C155.213 11.1631 155.348 11.6252 155.348 12.2503C155.348 12.6309 155.267 13.1609 155.104 13.8404C154.941 14.4927 154.683 15.1858 154.329 15.9196C154.139 16.3002 153.867 16.8438 153.514 17.5504C153.188 18.2571 152.861 18.8823 152.535 19.4259H154.492C154.683 19.4259 154.778 19.5618 154.778 19.8336C154.778 19.9423 154.75 20.0646 154.696 20.2005C154.642 20.3092 154.56 20.3636 154.451 20.3636H152.046C151.367 21.5323 150.592 22.6739 149.722 23.7882C148.852 24.9026 147.82 26.017 146.624 27.1314C146.542 27.376 146.433 27.7293 146.297 28.1914C146.189 28.6535 146.08 29.1291 145.971 29.6184C145.89 30.0804 145.808 30.4745 145.727 30.8007C145.672 31.1268 145.645 31.2899 145.645 31.2899C145.564 31.6433 145.523 31.9694 145.523 32.2684C145.523 32.8392 145.659 33.2605 145.931 33.5323C146.202 33.7769 146.515 33.8992 146.868 33.8992C147.086 33.8992 147.303 33.872 147.521 33.8177C147.738 33.7361 147.983 33.6002 148.254 33.41C149.206 32.7305 150.035 31.8063 150.741 30.6376C151.475 29.4689 152.114 28.3409 152.658 27.2537C152.821 26.9275 152.984 26.7645 153.147 26.7645C153.256 26.7645 153.31 26.846 153.31 27.0091C153.31 27.0906 153.269 27.2401 153.188 27.4575C152.59 28.7078 152.087 29.7135 151.679 30.4745C151.271 31.2356 150.877 31.8743 150.497 32.3907C150.116 32.88 149.668 33.3692 149.151 33.8584C148.771 34.239 148.336 34.5243 147.847 34.7146C147.358 34.9049 146.868 35 146.379 35ZM149.6 19.4259H151.679C152.06 18.7192 152.413 18.0261 152.739 17.3466C153.092 16.6671 153.405 15.9876 153.677 15.3081C153.867 14.8732 154.03 14.384 154.166 13.8404C154.302 13.2968 154.37 12.8755 154.37 12.5765C154.37 12.1688 154.275 11.9649 154.085 11.9649C153.949 11.9649 153.745 12.0873 153.473 12.3319C153.228 12.5493 152.916 12.9298 152.535 13.4734C152.046 14.1529 151.557 15.0363 151.068 16.1235C150.606 17.1835 150.116 18.2843 149.6 19.4259ZM146.95 25.8267C147.738 25.0113 148.472 24.1416 149.151 23.2175C149.858 22.2933 150.51 21.342 151.108 20.3636H149.192C148.757 21.3692 148.35 22.3477 147.969 23.299C147.589 24.2503 147.249 25.0929 146.95 25.8267ZM154.54 35C153.507 35 152.746 34.6602 152.257 33.9807C151.768 33.2741 151.523 32.4179 151.523 31.4122C151.523 30.1891 151.808 28.9117 152.379 27.5799C152.923 26.3296 153.616 25.188 154.458 24.1552C155.301 23.1223 156.212 22.2933 157.19 21.6682C158.169 21.0159 159.12 20.6897 160.044 20.6897C161.077 20.6897 161.838 21.0295 162.327 21.709C162.816 22.3885 163.061 23.2446 163.061 24.2775C163.061 25.5278 162.776 26.8052 162.205 28.1099C161.879 28.8437 161.417 29.6591 160.819 30.5561C160.221 31.4258 159.541 32.2276 158.78 32.9615C158.943 33.2605 159.174 33.5187 159.473 33.7361C159.772 33.9264 160.18 34.0215 160.696 34.0215C161.349 34.0215 161.96 33.7497 162.531 33.2061C163.129 32.6625 163.673 32.0102 164.162 31.2492C164.651 30.4609 165.086 29.6727 165.466 28.8845C165.847 28.0963 166.159 27.4575 166.404 26.9683C166.486 26.8052 166.622 26.7237 166.812 26.7237C166.921 26.7237 167.002 26.778 167.056 26.8868C167.111 26.9683 167.097 27.1042 167.016 27.2945C166.853 27.7022 166.581 28.3137 166.2 29.1291C165.82 29.9173 165.358 30.7463 164.814 31.6161C164.27 32.4587 163.645 33.1789 162.939 33.7769C162.232 34.3749 161.444 34.6738 160.574 34.6738C159.976 34.6738 159.46 34.5787 159.025 34.3884C158.59 34.171 158.237 33.9128 157.965 33.6138C157.394 34.0487 156.823 34.3884 156.252 34.6331C155.682 34.8777 155.111 35 154.54 35ZM155.152 34.1031C155.885 34.1031 156.674 33.7497 157.516 33.043C157.299 32.7169 157.136 32.3771 157.027 32.0238C156.918 31.6704 156.864 31.3443 156.864 31.0453C156.864 30.5561 156.973 30.1348 157.19 29.7814C157.435 29.4281 157.802 29.2514 158.291 29.2514C158.644 29.2514 158.93 29.3873 159.147 29.6591C159.392 29.9037 159.514 30.1891 159.514 30.5153C159.514 30.5968 159.5 30.6784 159.473 30.7599C159.473 30.8143 159.46 30.8822 159.432 30.9638C159.894 30.3386 160.329 29.6048 160.737 28.7622C161.634 26.8324 162.082 25.2424 162.082 23.9921C162.082 23.367 161.96 22.8777 161.716 22.5244C161.471 22.171 161.104 21.9944 160.615 21.9944C160.044 21.9944 159.419 22.239 158.739 22.7282C158.087 23.2175 157.448 23.8698 156.823 24.6852C156.225 25.5006 155.695 26.4111 155.233 27.4168C154.798 28.3409 154.445 29.2378 154.173 30.1076C153.928 30.9502 153.806 31.684 153.806 32.3092C153.806 32.8528 153.915 33.2877 154.132 33.6138C154.35 33.94 154.69 34.1031 155.152 34.1031ZM169.134 35.1631C168.128 35.1631 167.218 34.8369 166.403 34.1846C165.614 33.5323 165.22 32.5402 165.22 31.2084C165.22 29.9853 165.519 28.6806 166.117 27.2945C166.715 25.8811 167.476 24.6444 168.4 23.5844C169.188 22.6603 170.072 21.8992 171.05 21.3013C172.029 20.7033 172.953 20.4043 173.823 20.4043C174.421 20.4043 174.937 20.5674 175.372 20.8936C175.834 21.2469 176.065 21.7497 176.065 22.4021C176.065 23.0816 175.807 23.829 175.29 24.6444C174.774 25.4598 174.04 26.2209 173.089 26.9275C172.681 27.2265 172.165 27.5119 171.54 27.7837C170.914 28.0555 170.289 28.2865 169.664 28.4768C169.039 28.6399 168.523 28.7214 168.115 28.7214C167.979 29.0476 167.843 29.4825 167.707 30.0261C167.598 30.5697 167.544 31.1268 167.544 31.6976C167.544 32.3771 167.68 32.9887 167.952 33.5323C168.224 34.0759 168.726 34.3477 169.46 34.3477C170.357 34.3477 171.173 34.0895 171.906 33.573C172.64 33.0566 173.293 32.4179 173.863 31.6569C174.434 30.8686 174.91 30.0804 175.29 29.2922C175.698 28.504 176.024 27.8381 176.269 27.2945C176.432 26.9139 176.649 26.7237 176.921 26.7237C177.057 26.7237 177.125 26.7916 177.125 26.9275C177.125 27.0363 177.084 27.1722 177.003 27.3352C176.622 28.1506 176.214 29.0204 175.78 29.9445C175.345 30.8415 174.828 31.6976 174.23 32.513C173.632 33.3012 172.912 33.94 172.07 34.4292C171.254 34.9185 170.276 35.1631 169.134 35.1631ZM168.4 27.9876C168.781 27.9876 169.419 27.8517 170.316 27.5799C171.213 27.2809 172.029 26.8188 172.763 26.1937C173.469 25.5685 174.013 24.889 174.393 24.1552C174.774 23.3941 174.964 22.7554 174.964 22.239C174.964 21.641 174.747 21.342 174.312 21.342C173.986 21.342 173.537 21.5595 172.966 21.9944C172.396 22.4292 171.689 23.1631 170.846 24.1959C170.33 24.8483 169.841 25.5549 169.379 26.316C168.917 27.077 168.59 27.6342 168.4 27.9876Z" fill="#955D34"/>
</svg>
