<svg width="1296" height="25" viewBox="0 0 1296 25" fill="none" xmlns="http://www.w3.org/2000/svg">
<path d="M4.11719 9.18182C4.11719 8.56061 4.2687 7.99432 4.57173 7.48295C4.87476 6.97159 5.28196 6.56439 5.79332 6.26136C6.30469 5.95833 6.87098 5.80682 7.49219 5.80682C8.03007 5.80682 8.52628 5.92235 8.98082 6.15341C9.43916 6.38447 9.81795 6.70076 10.1172 7.10227C10.4164 7.5 10.602 7.95076 10.674 8.45455H9.29901C9.22325 8.06439 9.01302 7.74621 8.66832 7.5C8.32363 7.25 7.93158 7.125 7.49219 7.125C7.1134 7.125 6.7687 7.2178 6.4581 7.40341C6.14749 7.58902 5.89938 7.83712 5.71378 8.14773C5.52817 8.45833 5.43537 8.80303 5.43537 9.18182C5.43537 9.56061 5.52817 9.9053 5.71378 10.2159C5.89938 10.5265 6.14749 10.7746 6.4581 10.9602C6.7687 11.1458 7.1134 11.2386 7.49219 11.2386C7.93158 11.2386 8.30279 11.1155 8.60582 10.8693C8.91264 10.6193 9.10582 10.2992 9.18537 9.90909H10.5604C10.4884 10.4129 10.3123 10.8655 10.032 11.267C9.75166 11.6648 9.39181 11.9792 8.95242 12.2102C8.51681 12.4413 8.03007 12.5568 7.49219 12.5568C6.87098 12.5568 6.30469 12.4053 5.79332 12.1023C5.28196 11.7992 4.87476 11.392 4.57173 10.8807C4.2687 10.3693 4.11719 9.80303 4.11719 9.18182ZM7.43537 15.1818C6.60961 15.1818 5.8331 15.0265 5.10582 14.7159C4.38234 14.4053 3.74408 13.9754 3.19105 13.4261C2.64181 12.8731 2.20999 12.2348 1.8956 11.5114C1.58499 10.7879 1.43158 10.0114 1.43537 9.18182C1.43916 8.35227 1.59635 7.57576 1.90696 6.85227C2.22135 6.12879 2.65317 5.49242 3.20241 4.94318C3.75166 4.39015 4.38802 3.95833 5.11151 3.64773C5.83499 3.33712 6.60961 3.18182 7.43537 3.18182C8.26491 3.18182 9.04143 3.33712 9.76492 3.64773C10.4922 3.95833 11.1286 4.39015 11.674 4.94318C12.2232 5.49242 12.6532 6.12879 12.9638 6.85227C13.2744 7.57576 13.4316 8.35227 13.4354 9.18182C13.4392 10.0114 13.2857 10.7879 12.9751 11.5114C12.6645 12.2348 12.2346 12.8731 11.6854 13.4261C11.1361 13.9754 10.4979 14.4053 9.7706 14.7159C9.04332 15.0265 8.26491 15.1818 7.43537 15.1818ZM7.43537 13.8636C8.0831 13.8636 8.69105 13.7424 9.25923 13.5C9.82741 13.2576 10.3255 12.9223 10.7536 12.4943C11.1816 12.0663 11.5168 11.5701 11.7592 11.0057C12.0017 10.4375 12.121 9.83144 12.1172 9.1875C12.1134 8.53977 11.9903 7.93182 11.7479 7.36364C11.5054 6.79545 11.1702 6.29735 10.7422 5.86932C10.3142 5.44129 9.81795 5.10606 9.25355 4.86364C8.68916 4.62121 8.0831 4.5 7.43537 4.5C6.79143 4.5 6.18726 4.62121 5.62287 4.86364C5.05848 5.10606 4.56226 5.44318 4.13423 5.875C3.7062 6.30303 3.36908 6.80114 3.12287 7.36932C2.88045 7.93371 2.75734 8.53977 2.75355 9.1875C2.74976 9.82765 2.86908 10.4318 3.11151 11C3.35393 11.5644 3.68916 12.0606 4.11719 12.4886C4.54901 12.9167 5.04711 13.2538 5.61151 13.5C6.17969 13.7424 6.78764 13.8636 7.43537 13.8636ZM25.5305 7H24.1214C24.0381 6.5947 23.8923 6.23864 23.6839 5.93182C23.4794 5.625 23.2294 5.36742 22.9339 5.15909C22.6423 4.94697 22.3184 4.78788 21.9624 4.68182C21.6063 4.57576 21.2351 4.52273 20.8487 4.52273C20.1442 4.52273 19.5059 4.70076 18.9339 5.05682C18.3658 5.41288 17.9131 5.9375 17.576 6.63068C17.2427 7.32386 17.076 8.17424 17.076 9.18182C17.076 10.1894 17.2427 11.0398 17.576 11.733C17.9131 12.4261 18.3658 12.9508 18.9339 13.3068C19.5059 13.6629 20.1442 13.8409 20.8487 13.8409C21.2351 13.8409 21.6063 13.7879 21.9624 13.6818C22.3184 13.5758 22.6423 13.4186 22.9339 13.2102C23.2294 12.9981 23.4794 12.7386 23.6839 12.4318C23.8923 12.1212 24.0381 11.7652 24.1214 11.3636H25.5305C25.4245 11.9583 25.2313 12.4905 24.951 12.9602C24.6707 13.4299 24.3222 13.8295 23.9055 14.1591C23.4889 14.4848 23.0211 14.733 22.5021 14.9034C21.987 15.0739 21.4358 15.1591 20.8487 15.1591C19.8563 15.1591 18.9737 14.9167 18.201 14.4318C17.4283 13.947 16.8203 13.2576 16.3771 12.3636C15.9339 11.4697 15.7124 10.4091 15.7124 9.18182C15.7124 7.95455 15.9339 6.89394 16.3771 6C16.8203 5.10606 17.4283 4.41667 18.201 3.93182C18.9737 3.44697 19.8563 3.20455 20.8487 3.20455C21.4358 3.20455 21.987 3.28977 22.5021 3.46023C23.0211 3.63068 23.4889 3.88068 23.9055 4.21023C24.3222 4.53598 24.6707 4.93371 24.951 5.40341C25.2313 5.86932 25.4245 6.40151 25.5305 7ZM31.1712 15.1818C30.3833 15.1818 29.692 14.9943 29.0973 14.6193C28.5064 14.2443 28.0443 13.7197 27.7109 13.0455C27.3814 12.3712 27.2166 11.5833 27.2166 10.6818C27.2166 9.77273 27.3814 8.97917 27.7109 8.30114C28.0443 7.62311 28.5064 7.09659 29.0973 6.72159C29.692 6.34659 30.3833 6.15909 31.1712 6.15909C31.959 6.15909 32.6484 6.34659 33.2393 6.72159C33.834 7.09659 34.2962 7.62311 34.6257 8.30114C34.959 8.97917 35.1257 9.77273 35.1257 10.6818C35.1257 11.5833 34.959 12.3712 34.6257 13.0455C34.2962 13.7197 33.834 14.2443 33.2393 14.6193C32.6484 14.9943 31.959 15.1818 31.1712 15.1818ZM31.1712 13.9773C31.7696 13.9773 32.2621 13.8239 32.6484 13.517C33.0348 13.2102 33.3208 12.8068 33.5064 12.3068C33.692 11.8068 33.7848 11.2652 33.7848 10.6818C33.7848 10.0985 33.692 9.55492 33.5064 9.05114C33.3208 8.54735 33.0348 8.14015 32.6484 7.82955C32.2621 7.51894 31.7696 7.36364 31.1712 7.36364C30.5727 7.36364 30.0803 7.51894 29.6939 7.82955C29.3075 8.14015 29.0215 8.54735 28.8359 9.05114C28.6503 9.55492 28.5575 10.0985 28.5575 10.6818C28.5575 11.2652 28.6503 11.8068 28.8359 12.3068C29.0215 12.8068 29.3075 13.2102 29.6939 13.517C30.0803 13.8239 30.5727 13.9773 31.1712 13.9773ZM37.1726 18.2727V6.27273H38.468V7.65909H38.6271C38.7256 7.50758 38.862 7.31439 39.0362 7.07955C39.2143 6.84091 39.468 6.62879 39.7976 6.44318C40.1309 6.25379 40.5817 6.15909 41.1499 6.15909C41.8847 6.15909 42.5324 6.3428 43.093 6.71023C43.6536 7.07765 44.0911 7.59848 44.4055 8.27273C44.7199 8.94697 44.8771 9.74242 44.8771 10.6591C44.8771 11.5833 44.7199 12.3845 44.4055 13.0625C44.0911 13.7367 43.6555 14.2595 43.0987 14.6307C42.5419 14.9981 41.8999 15.1818 41.1726 15.1818C40.612 15.1818 40.1631 15.089 39.826 14.9034C39.4889 14.714 39.2294 14.5 39.0476 14.2614C38.8658 14.0189 38.7256 13.8182 38.6271 13.6591H38.5135V18.2727H37.1726ZM38.4908 10.6364C38.4908 11.2955 38.5874 11.8769 38.7805 12.3807C38.9737 12.8807 39.2559 13.2727 39.6271 13.5568C39.9983 13.8371 40.4529 13.9773 40.9908 13.9773C41.5514 13.9773 42.0192 13.8295 42.3942 13.5341C42.773 13.2348 43.0571 12.8333 43.2464 12.3295C43.4396 11.822 43.5362 11.2576 43.5362 10.6364C43.5362 10.0227 43.4415 9.4697 43.2521 8.97727C43.0665 8.48106 42.7843 8.08902 42.4055 7.80114C42.0305 7.50947 41.5589 7.36364 40.9908 7.36364C40.4453 7.36364 39.987 7.50189 39.6158 7.77841C39.2446 8.05114 38.9643 8.43371 38.7749 8.92614C38.5855 9.41477 38.4908 9.98485 38.4908 10.6364ZM47.4737 18.2727C47.2464 18.2727 47.0438 18.2538 46.8658 18.2159C46.6877 18.1818 46.5646 18.1477 46.4964 18.1136L46.8374 16.9318C47.1631 17.0152 47.451 17.0455 47.701 17.0227C47.951 17 48.1726 16.8883 48.3658 16.6875C48.5627 16.4905 48.7427 16.1705 48.9055 15.7273L49.1555 15.0455L45.9283 6.27273H47.3828L49.7919 13.2273H49.8828L52.2919 6.27273H53.7464L50.0419 16.2727C49.8752 16.7235 49.6688 17.0966 49.4226 17.392C49.1764 17.6913 48.8904 17.9129 48.5646 18.0568C48.2427 18.2008 47.879 18.2727 47.4737 18.2727ZM55.5163 15V6.27273H56.8118V7.59091H56.9027C57.0618 7.15909 57.3497 6.80871 57.7663 6.53977C58.183 6.27083 58.6527 6.13636 59.1754 6.13636C59.2739 6.13636 59.397 6.13826 59.5447 6.14205C59.6925 6.14583 59.8042 6.15152 59.88 6.15909V7.52273C59.8345 7.51136 59.7304 7.49432 59.5675 7.47159C59.4084 7.44508 59.2398 7.43182 59.0618 7.43182C58.6375 7.43182 58.2588 7.52083 57.9254 7.69886C57.5959 7.87311 57.3345 8.11553 57.1413 8.42614C56.9519 8.73295 56.8572 9.08333 56.8572 9.47727V15H55.5163ZM61.4695 15V6.27273H62.8104V15H61.4695ZM62.1513 4.81818C61.8899 4.81818 61.6645 4.72917 61.4751 4.55114C61.2895 4.37311 61.1967 4.15909 61.1967 3.90909C61.1967 3.65909 61.2895 3.44508 61.4751 3.26705C61.6645 3.08902 61.8899 3 62.1513 3C62.4126 3 62.6361 3.08902 62.8217 3.26705C63.0111 3.44508 63.1058 3.65909 63.1058 3.90909C63.1058 4.15909 63.0111 4.37311 62.8217 4.55114C62.6361 4.72917 62.4126 4.81818 62.1513 4.81818ZM68.7891 18.4545C68.1413 18.4545 67.5845 18.3712 67.1186 18.2045C66.6527 18.0417 66.2644 17.8258 65.9538 17.5568C65.647 17.2917 65.4027 17.0076 65.2209 16.7045L66.2891 15.9545C66.4103 16.1136 66.5637 16.2955 66.7493 16.5C66.9349 16.7083 67.1887 16.8883 67.5107 17.0398C67.8364 17.1951 68.2625 17.2727 68.7891 17.2727C69.4936 17.2727 70.075 17.1023 70.5334 16.7614C70.9917 16.4205 71.2209 15.8864 71.2209 15.1591V13.3864H71.1072C71.0088 13.5455 70.8686 13.7424 70.6868 13.9773C70.5088 14.2083 70.2512 14.4148 69.9141 14.5966C69.5807 14.7746 69.13 14.8636 68.5618 14.8636C67.8572 14.8636 67.2247 14.697 66.6641 14.3636C66.1072 14.0303 65.666 13.5455 65.3402 12.9091C65.0182 12.2727 64.8572 11.5 64.8572 10.5909C64.8572 9.69697 65.0144 8.91856 65.3288 8.25568C65.6432 7.58901 66.0807 7.07386 66.6413 6.71023C67.2019 6.3428 67.8497 6.15909 68.5845 6.15909C69.1527 6.15909 69.6035 6.25379 69.9368 6.44318C70.2739 6.62879 70.5315 6.84091 70.7095 7.07955C70.8913 7.31439 71.0315 7.50758 71.13 7.65909H71.2663V6.27273H72.5618V15.25C72.5618 16 72.3913 16.6098 72.0504 17.0795C71.7133 17.553 71.2588 17.8996 70.6868 18.1193C70.1186 18.3428 69.486 18.4545 68.7891 18.4545ZM68.7436 13.6591C69.2815 13.6591 69.736 13.536 70.1072 13.2898C70.4785 13.0436 70.7607 12.6894 70.9538 12.2273C71.147 11.7652 71.2436 11.2121 71.2436 10.5682C71.2436 9.93939 71.1489 9.38447 70.9595 8.90341C70.7701 8.42235 70.4898 8.04545 70.1186 7.77273C69.7474 7.5 69.2891 7.36364 68.7436 7.36364C68.1754 7.36364 67.7019 7.50758 67.3232 7.79545C66.9482 8.08333 66.666 8.4697 66.4766 8.95455C66.291 9.43939 66.1982 9.97727 66.1982 10.5682C66.1982 11.1742 66.2929 11.7102 66.4822 12.1761C66.6754 12.6383 66.9595 13.0019 67.3345 13.267C67.7133 13.5284 68.183 13.6591 68.7436 13.6591ZM76.3572 9.75V15H75.0163V3.36364H76.3572V7.63636H76.4709C76.6754 7.18561 76.9822 6.82765 77.3913 6.5625C77.8042 6.29356 78.3535 6.15909 79.0391 6.15909C79.6338 6.15909 80.1546 6.27841 80.6016 6.51705C81.0485 6.75189 81.3951 7.11364 81.6413 7.60227C81.8913 8.08712 82.0163 8.70455 82.0163 9.45455V15H80.6754V9.54545C80.6754 8.85227 80.4955 8.31629 80.1357 7.9375C79.7796 7.55492 79.2853 7.36364 78.6527 7.36364C78.2133 7.36364 77.8194 7.45644 77.4709 7.64205C77.1262 7.82765 76.8535 8.09848 76.6527 8.45455C76.4557 8.81061 76.3572 9.24242 76.3572 9.75ZM88.2649 6.27273V7.40909H83.7422V6.27273H88.2649ZM85.0604 4.18182H86.4013V12.5C86.4013 12.8788 86.4562 13.1629 86.5661 13.3523C86.6797 13.5379 86.8236 13.6629 86.9979 13.7273C87.1759 13.7879 87.3634 13.8182 87.5604 13.8182C87.7081 13.8182 87.8293 13.8106 87.924 13.7955C88.0187 13.7765 88.0945 13.7614 88.1513 13.75L88.424 14.9545C88.3331 14.9886 88.2062 15.0227 88.0433 15.0568C87.8804 15.0947 87.674 15.1136 87.424 15.1136C87.0452 15.1136 86.674 15.0322 86.3104 14.8693C85.9505 14.7064 85.6513 14.4583 85.4126 14.125C85.1778 13.7917 85.0604 13.3712 85.0604 12.8636V4.18182ZM94.9638 15V3.36364H98.8956C99.8047 3.36364 100.551 3.51894 101.134 3.82955C101.718 4.13636 102.149 4.55871 102.43 5.09659C102.71 5.63447 102.85 6.24621 102.85 6.93182C102.85 7.61742 102.71 8.22538 102.43 8.75568C102.149 9.28598 101.719 9.70265 101.14 10.0057C100.56 10.3049 99.8198 10.4545 98.9183 10.4545H95.7365V9.18182H98.8729C99.4941 9.18182 99.9941 9.09091 100.373 8.90909C100.755 8.72727 101.032 8.4697 101.202 8.13636C101.377 7.79924 101.464 7.39773 101.464 6.93182C101.464 6.46591 101.377 6.05871 101.202 5.71023C101.028 5.36174 100.75 5.0928 100.367 4.90341C99.9846 4.71023 99.4789 4.61364 98.8501 4.61364H96.3729V15H94.9638ZM100.441 9.77273L103.305 15H101.668L98.8501 9.77273H100.441ZM108.582 15.1818C107.741 15.1818 107.015 14.9962 106.406 14.625C105.799 14.25 105.332 13.7273 105.002 13.0568C104.676 12.3826 104.513 11.5985 104.513 10.7045C104.513 9.81061 104.676 9.02273 105.002 8.34091C105.332 7.6553 105.79 7.12121 106.377 6.73864C106.968 6.35227 107.657 6.15909 108.445 6.15909C108.9 6.15909 109.349 6.23485 109.792 6.38636C110.235 6.53788 110.638 6.78409 111.002 7.125C111.366 7.46212 111.656 7.90909 111.871 8.46591C112.087 9.02273 112.195 9.70833 112.195 10.5227V11.0909H105.468V9.93182H110.832C110.832 9.43939 110.733 9 110.536 8.61364C110.343 8.22727 110.067 7.92235 109.707 7.69886C109.351 7.47538 108.93 7.36364 108.445 7.36364C107.911 7.36364 107.449 7.49621 107.059 7.76136C106.673 8.02273 106.375 8.36364 106.167 8.78409C105.959 9.20455 105.854 9.6553 105.854 10.1364V10.9091C105.854 11.5682 105.968 12.1269 106.195 12.5852C106.426 13.0398 106.746 13.3864 107.156 13.625C107.565 13.8598 108.04 13.9773 108.582 13.9773C108.934 13.9773 109.252 13.928 109.536 13.8295C109.824 13.7273 110.072 13.5758 110.281 13.375C110.489 13.1705 110.65 12.9167 110.763 12.6136L112.059 12.9773C111.923 13.4167 111.693 13.803 111.371 14.1364C111.049 14.4659 110.652 14.7235 110.178 14.9091C109.705 15.0909 109.173 15.1818 108.582 15.1818ZM116.803 15.2045C116.25 15.2045 115.748 15.1004 115.298 14.892C114.847 14.6799 114.489 14.375 114.224 13.9773C113.959 13.5758 113.826 13.0909 113.826 12.5227C113.826 12.0227 113.924 11.6174 114.121 11.3068C114.318 10.9924 114.582 10.7462 114.911 10.5682C115.241 10.3902 115.604 10.2576 116.002 10.1705C116.404 10.0795 116.807 10.0076 117.212 9.95455C117.743 9.88636 118.173 9.83523 118.502 9.80114C118.835 9.76326 119.078 9.70076 119.229 9.61364C119.385 9.52652 119.462 9.375 119.462 9.15909V9.11364C119.462 8.55303 119.309 8.11742 119.002 7.80682C118.699 7.49621 118.239 7.34091 117.621 7.34091C116.981 7.34091 116.479 7.48106 116.116 7.76136C115.752 8.04167 115.496 8.34091 115.349 8.65909L114.076 8.20455C114.303 7.67424 114.606 7.26136 114.985 6.96591C115.368 6.66667 115.784 6.45833 116.235 6.34091C116.69 6.2197 117.137 6.15909 117.576 6.15909C117.856 6.15909 118.178 6.19318 118.542 6.26136C118.909 6.32576 119.263 6.46023 119.604 6.66477C119.949 6.86932 120.235 7.17803 120.462 7.59091C120.69 8.00379 120.803 8.55682 120.803 9.25V15H119.462V13.8182H119.394C119.303 14.0076 119.152 14.2102 118.94 14.4261C118.728 14.642 118.445 14.8258 118.093 14.9773C117.741 15.1288 117.311 15.2045 116.803 15.2045ZM117.008 14C117.538 14 117.985 13.8958 118.349 13.6875C118.716 13.4792 118.993 13.2102 119.178 12.8807C119.368 12.5511 119.462 12.2045 119.462 11.8409V10.6136C119.406 10.6818 119.281 10.7443 119.087 10.8011C118.898 10.8542 118.678 10.9015 118.428 10.9432C118.182 10.9811 117.942 11.0152 117.707 11.0455C117.476 11.072 117.288 11.0947 117.144 11.1136C116.796 11.1591 116.47 11.233 116.167 11.3352C115.868 11.4337 115.625 11.5833 115.44 11.7841C115.258 11.9811 115.167 12.25 115.167 12.5909C115.167 13.0568 115.339 13.4091 115.684 13.6477C116.032 13.8826 116.474 14 117.008 14ZM124.592 3.36364V15H123.251V3.36364H124.592ZM131.729 15V3.36364H138.752V4.61364H133.138V8.54545H138.388V9.79545H133.138V13.75H138.843V15H131.729ZM147.292 8.22727L146.087 8.56818C146.012 8.36742 145.9 8.17235 145.752 7.98295C145.608 7.78977 145.411 7.63068 145.161 7.50568C144.911 7.38068 144.591 7.31818 144.201 7.31818C143.667 7.31818 143.222 7.44129 142.866 7.6875C142.513 7.92992 142.337 8.23864 142.337 8.61364C142.337 8.94697 142.459 9.21023 142.701 9.40341C142.943 9.59659 143.322 9.75758 143.837 9.88636L145.133 10.2045C145.913 10.3939 146.495 10.6837 146.877 11.0739C147.26 11.4602 147.451 11.9583 147.451 12.5682C147.451 13.0682 147.307 13.5152 147.019 13.9091C146.735 14.303 146.337 14.6136 145.826 14.8409C145.315 15.0682 144.72 15.1818 144.042 15.1818C143.152 15.1818 142.415 14.9886 141.832 14.6023C141.248 14.2159 140.879 13.6515 140.724 12.9091L141.996 12.5909C142.118 13.0606 142.347 13.4129 142.684 13.6477C143.025 13.8826 143.47 14 144.019 14C144.644 14 145.14 13.8674 145.508 13.6023C145.879 13.3333 146.065 13.0114 146.065 12.6364C146.065 12.3333 145.959 12.0795 145.746 11.875C145.534 11.6667 145.209 11.5114 144.769 11.4091L143.315 11.0682C142.515 10.8788 141.928 10.5852 141.553 10.1875C141.182 9.78598 140.996 9.28409 140.996 8.68182C140.996 8.18939 141.135 7.75379 141.411 7.375C141.692 6.99621 142.072 6.69886 142.553 6.48295C143.038 6.26705 143.587 6.15909 144.201 6.15909C145.065 6.15909 145.743 6.34848 146.235 6.72727C146.731 7.10606 147.084 7.60606 147.292 8.22727ZM153.265 6.27273V7.40909H148.742V6.27273H153.265ZM150.06 4.18182H151.401V12.5C151.401 12.8788 151.456 13.1629 151.566 13.3523C151.68 13.5379 151.824 13.6629 151.998 13.7273C152.176 13.7879 152.363 13.8182 152.56 13.8182C152.708 13.8182 152.829 13.8106 152.924 13.7955C153.019 13.7765 153.094 13.7614 153.151 13.75L153.424 14.9545C153.333 14.9886 153.206 15.0227 153.043 15.0568C152.88 15.0947 152.674 15.1136 152.424 15.1136C152.045 15.1136 151.674 15.0322 151.31 14.8693C150.951 14.7064 150.651 14.4583 150.413 14.125C150.178 13.7917 150.06 13.3712 150.06 12.8636V4.18182ZM157.85 15.2045C157.297 15.2045 156.795 15.1004 156.344 14.892C155.894 14.6799 155.536 14.375 155.271 13.9773C155.005 13.5758 154.873 13.0909 154.873 12.5227C154.873 12.0227 154.971 11.6174 155.168 11.3068C155.365 10.9924 155.629 10.7462 155.958 10.5682C156.288 10.3902 156.651 10.2576 157.049 10.1705C157.451 10.0795 157.854 10.0076 158.259 9.95455C158.79 9.88636 159.219 9.83523 159.549 9.80114C159.882 9.76326 160.125 9.70076 160.276 9.61364C160.432 9.52652 160.509 9.375 160.509 9.15909V9.11364C160.509 8.55303 160.356 8.11742 160.049 7.80682C159.746 7.49621 159.286 7.34091 158.668 7.34091C158.028 7.34091 157.526 7.48106 157.163 7.76136C156.799 8.04167 156.543 8.34091 156.396 8.65909L155.123 8.20455C155.35 7.67424 155.653 7.26136 156.032 6.96591C156.415 6.66667 156.831 6.45833 157.282 6.34091C157.737 6.2197 158.183 6.15909 158.623 6.15909C158.903 6.15909 159.225 6.19318 159.589 6.26136C159.956 6.32576 160.31 6.46023 160.651 6.66477C160.996 6.86932 161.282 7.17803 161.509 7.59091C161.737 8.00379 161.85 8.55682 161.85 9.25V15H160.509V13.8182H160.441C160.35 14.0076 160.199 14.2102 159.987 14.4261C159.774 14.642 159.492 14.8258 159.14 14.9773C158.788 15.1288 158.358 15.2045 157.85 15.2045ZM158.055 14C158.585 14 159.032 13.8958 159.396 13.6875C159.763 13.4792 160.04 13.2102 160.225 12.8807C160.415 12.5511 160.509 12.2045 160.509 11.8409V10.6136C160.452 10.6818 160.327 10.7443 160.134 10.8011C159.945 10.8542 159.725 10.9015 159.475 10.9432C159.229 10.9811 158.988 11.0152 158.754 11.0455C158.522 11.072 158.335 11.0947 158.191 11.1136C157.843 11.1591 157.517 11.233 157.214 11.3352C156.915 11.4337 156.672 11.5833 156.487 11.7841C156.305 11.9811 156.214 12.25 156.214 12.5909C156.214 13.0568 156.386 13.4091 156.731 13.6477C157.079 13.8826 157.521 14 158.055 14ZM168.093 6.27273V7.40909H163.57V6.27273H168.093ZM164.888 4.18182H166.229V12.5C166.229 12.8788 166.284 13.1629 166.394 13.3523C166.508 13.5379 166.652 13.6629 166.826 13.7273C167.004 13.7879 167.192 13.8182 167.388 13.8182C167.536 13.8182 167.657 13.8106 167.752 13.7955C167.847 13.7765 167.923 13.7614 167.979 13.75L168.252 14.9545C168.161 14.9886 168.034 15.0227 167.871 15.0568C167.709 15.0947 167.502 15.1136 167.252 15.1136C166.873 15.1136 166.502 15.0322 166.138 14.8693C165.779 14.7064 165.479 14.4583 165.241 14.125C165.006 13.7917 164.888 13.3712 164.888 12.8636V4.18182ZM173.675 15.1818C172.835 15.1818 172.109 14.9962 171.499 14.625C170.893 14.25 170.425 13.7273 170.096 13.0568C169.77 12.3826 169.607 11.5985 169.607 10.7045C169.607 9.81061 169.77 9.02273 170.096 8.34091C170.425 7.6553 170.884 7.12121 171.471 6.73864C172.062 6.35227 172.751 6.15909 173.539 6.15909C173.994 6.15909 174.442 6.23485 174.886 6.38636C175.329 6.53788 175.732 6.78409 176.096 7.125C176.46 7.46212 176.749 7.90909 176.965 8.46591C177.181 9.02273 177.289 9.70833 177.289 10.5227V11.0909H170.562V9.93182H175.925C175.925 9.43939 175.827 9 175.63 8.61364C175.437 8.22727 175.16 7.92235 174.8 7.69886C174.444 7.47538 174.024 7.36364 173.539 7.36364C173.005 7.36364 172.543 7.49621 172.153 7.76136C171.766 8.02273 171.469 8.36364 171.261 8.78409C171.052 9.20455 170.948 9.6553 170.948 10.1364V10.9091C170.948 11.5682 171.062 12.1269 171.289 12.5852C171.52 13.0398 171.84 13.3864 172.249 13.625C172.658 13.8598 173.134 13.9773 173.675 13.9773C174.028 13.9773 174.346 13.928 174.63 13.8295C174.918 13.7273 175.166 13.5758 175.374 13.375C175.583 13.1705 175.744 12.9167 175.857 12.6136L177.153 12.9773C177.016 13.4167 176.787 13.803 176.465 14.1364C176.143 14.4659 175.746 14.7235 175.272 14.9091C174.799 15.0909 174.266 15.1818 173.675 15.1818ZM183.806 15V13.9773L187.647 9.77273C188.098 9.2803 188.469 8.85227 188.761 8.48864C189.052 8.12121 189.268 7.77652 189.408 7.45455C189.552 7.12879 189.624 6.78788 189.624 6.43182C189.624 6.02273 189.526 5.66856 189.329 5.36932C189.136 5.07008 188.871 4.83901 188.533 4.67614C188.196 4.51326 187.817 4.43182 187.397 4.43182C186.95 4.43182 186.56 4.52462 186.227 4.71023C185.897 4.89205 185.641 5.14773 185.46 5.47727C185.281 5.80682 185.192 6.19318 185.192 6.63636H183.852C183.852 5.95455 184.009 5.35606 184.323 4.84091C184.638 4.32576 185.066 3.92424 185.607 3.63636C186.153 3.34848 186.764 3.20455 187.442 3.20455C188.124 3.20455 188.728 3.34848 189.255 3.63636C189.781 3.92424 190.194 4.3125 190.494 4.80114C190.793 5.28977 190.942 5.83333 190.942 6.43182C190.942 6.85985 190.865 7.27841 190.71 7.6875C190.558 8.0928 190.293 8.54545 189.914 9.04545C189.539 9.54167 189.018 10.1477 188.352 10.8636L185.738 13.6591V13.75H191.147V15H183.806ZM197.289 15.1591C196.433 15.1591 195.704 14.9261 195.102 14.4602C194.499 13.9905 194.039 13.3106 193.721 12.4205C193.403 11.5265 193.244 10.447 193.244 9.18182C193.244 7.92424 193.403 6.85038 193.721 5.96023C194.043 5.06629 194.505 4.38447 195.107 3.91477C195.713 3.44129 196.441 3.20455 197.289 3.20455C198.138 3.20455 198.863 3.44129 199.465 3.91477C200.071 4.38447 200.533 5.06629 200.852 5.96023C201.174 6.85038 201.335 7.92424 201.335 9.18182C201.335 10.447 201.175 11.5265 200.857 12.4205C200.539 13.3106 200.079 13.9905 199.477 14.4602C198.874 14.9261 198.145 15.1591 197.289 15.1591ZM197.289 13.9091C198.138 13.9091 198.797 13.5 199.266 12.6818C199.736 11.8636 199.971 10.697 199.971 9.18182C199.971 8.17424 199.863 7.31629 199.647 6.60795C199.435 5.89962 199.128 5.35985 198.727 4.98864C198.329 4.61742 197.85 4.43182 197.289 4.43182C196.448 4.43182 195.791 4.84659 195.317 5.67614C194.844 6.50189 194.607 7.67045 194.607 9.18182C194.607 10.1894 194.713 11.0455 194.925 11.75C195.138 12.4545 195.442 12.9905 195.84 13.358C196.242 13.7254 196.725 13.9091 197.289 13.9091ZM203.494 15V13.9773L207.335 9.77273C207.785 9.2803 208.156 8.85227 208.448 8.48864C208.74 8.12121 208.956 7.77652 209.096 7.45455C209.24 7.12879 209.312 6.78788 209.312 6.43182C209.312 6.02273 209.213 5.66856 209.016 5.36932C208.823 5.07008 208.558 4.83901 208.221 4.67614C207.884 4.51326 207.505 4.43182 207.085 4.43182C206.638 4.43182 206.247 4.52462 205.914 4.71023C205.585 4.89205 205.329 5.14773 205.147 5.47727C204.969 5.80682 204.88 6.19318 204.88 6.63636H203.539C203.539 5.95455 203.696 5.35606 204.011 4.84091C204.325 4.32576 204.753 3.92424 205.295 3.63636C205.84 3.34848 206.452 3.20455 207.13 3.20455C207.812 3.20455 208.416 3.34848 208.942 3.63636C209.469 3.92424 209.882 4.3125 210.181 4.80114C210.48 5.28977 210.63 5.83333 210.63 6.43182C210.63 6.85985 210.552 7.27841 210.397 7.6875C210.246 8.0928 209.98 8.54545 209.602 9.04545C209.227 9.54167 208.706 10.1477 208.039 10.8636L205.425 13.6591V13.75H210.835V15H203.494ZM217.113 15.1591C216.363 15.1591 215.694 15.0303 215.107 14.7727C214.524 14.5152 214.06 14.1572 213.715 13.6989C213.374 13.2367 213.189 12.7008 213.158 12.0909H214.59C214.621 12.4659 214.749 12.7898 214.977 13.0625C215.204 13.3314 215.501 13.5398 215.869 13.6875C216.236 13.8352 216.643 13.9091 217.09 13.9091C217.59 13.9091 218.033 13.822 218.42 13.6477C218.806 13.4735 219.109 13.2311 219.329 12.9205C219.549 12.6098 219.658 12.25 219.658 11.8409C219.658 11.4129 219.552 11.036 219.34 10.7102C219.128 10.3807 218.817 10.1231 218.408 9.9375C217.999 9.75189 217.499 9.65909 216.908 9.65909H215.977V8.40909H216.908C217.371 8.40909 217.776 8.32576 218.124 8.15909C218.477 7.99242 218.751 7.75758 218.948 7.45455C219.149 7.15152 219.249 6.79545 219.249 6.38636C219.249 5.99242 219.162 5.64962 218.988 5.35795C218.814 5.06629 218.567 4.83901 218.249 4.67614C217.935 4.51326 217.564 4.43182 217.136 4.43182C216.734 4.43182 216.355 4.50568 215.999 4.65341C215.647 4.79735 215.359 5.00758 215.136 5.28409C214.912 5.55682 214.791 5.88636 214.772 6.27273H213.408C213.431 5.66288 213.615 5.12879 213.96 4.67045C214.304 4.20833 214.755 3.84848 215.312 3.59091C215.872 3.33333 216.488 3.20455 217.158 3.20455C217.878 3.20455 218.496 3.35038 219.011 3.64205C219.526 3.92992 219.922 4.31061 220.198 4.78409C220.475 5.25758 220.613 5.76894 220.613 6.31818C220.613 6.97348 220.441 7.5322 220.096 7.99432C219.755 8.45644 219.291 8.77652 218.704 8.95455V9.04545C219.439 9.16667 220.013 9.47917 220.425 9.98295C220.838 10.483 221.045 11.1023 221.045 11.8409C221.045 12.4735 220.872 13.0417 220.528 13.5455C220.187 14.0455 219.721 14.4394 219.13 14.7273C218.539 15.0152 217.867 15.1591 217.113 15.1591ZM224.009 15.0909C223.729 15.0909 223.488 14.9905 223.288 14.7898C223.087 14.589 222.987 14.3485 222.987 14.0682C222.987 13.7879 223.087 13.5473 223.288 13.3466C223.488 13.1458 223.729 13.0455 224.009 13.0455C224.29 13.0455 224.53 13.1458 224.731 13.3466C224.932 13.5473 225.032 13.7879 225.032 14.0682C225.032 14.2538 224.985 14.4242 224.89 14.5795C224.799 14.7348 224.676 14.8598 224.521 14.9545C224.369 15.0455 224.199 15.0909 224.009 15.0909ZM235.711 15H232.12V3.36364H235.87C236.999 3.36364 237.965 3.59659 238.768 4.0625C239.571 4.52462 240.186 5.18939 240.614 6.05682C241.042 6.92045 241.256 7.95455 241.256 9.15909C241.256 10.3712 241.04 11.4148 240.609 12.2898C240.177 13.161 239.548 13.8314 238.722 14.3011C237.897 14.767 236.893 15 235.711 15ZM233.529 13.75H235.62C236.582 13.75 237.379 13.5644 238.012 13.1932C238.645 12.822 239.116 12.2936 239.427 11.608C239.737 10.9223 239.893 10.1061 239.893 9.15909C239.893 8.2197 239.739 7.41098 239.433 6.73295C239.126 6.05114 238.667 5.52841 238.058 5.16477C237.448 4.79735 236.688 4.61364 235.779 4.61364H233.529V13.75ZM247.097 15.1818C246.256 15.1818 245.531 14.9962 244.921 14.625C244.315 14.25 243.847 13.7273 243.518 13.0568C243.192 12.3826 243.029 11.5985 243.029 10.7045C243.029 9.81061 243.192 9.02273 243.518 8.34091C243.847 7.6553 244.306 7.12121 244.893 6.73864C245.484 6.35227 246.173 6.15909 246.961 6.15909C247.415 6.15909 247.864 6.23485 248.308 6.38636C248.751 6.53788 249.154 6.78409 249.518 7.125C249.881 7.46212 250.171 7.90909 250.387 8.46591C250.603 9.02273 250.711 9.70833 250.711 10.5227V11.0909H243.984V9.93182H249.347C249.347 9.43939 249.249 9 249.052 8.61364C248.859 8.22727 248.582 7.92235 248.222 7.69886C247.866 7.47538 247.446 7.36364 246.961 7.36364C246.427 7.36364 245.965 7.49621 245.575 7.76136C245.188 8.02273 244.891 8.36364 244.683 8.78409C244.474 9.20455 244.37 9.6553 244.37 10.1364V10.9091C244.37 11.5682 244.484 12.1269 244.711 12.5852C244.942 13.0398 245.262 13.3864 245.671 13.625C246.08 13.8598 246.556 13.9773 247.097 13.9773C247.45 13.9773 247.768 13.928 248.052 13.8295C248.34 13.7273 248.588 13.5758 248.796 13.375C249.004 13.1705 249.165 12.9167 249.279 12.6136L250.575 12.9773C250.438 13.4167 250.209 13.803 249.887 14.1364C249.565 14.4659 249.167 14.7235 248.694 14.9091C248.22 15.0909 247.688 15.1818 247.097 15.1818ZM258.933 8.22727L257.728 8.56818C257.652 8.36742 257.54 8.17235 257.393 7.98295C257.249 7.78977 257.052 7.63068 256.802 7.50568C256.552 7.38068 256.232 7.31818 255.842 7.31818C255.308 7.31818 254.862 7.44129 254.506 7.6875C254.154 7.92992 253.978 8.23864 253.978 8.61364C253.978 8.94697 254.099 9.21023 254.342 9.40341C254.584 9.59659 254.963 9.75758 255.478 9.88636L256.773 10.2045C257.554 10.3939 258.135 10.6837 258.518 11.0739C258.9 11.4602 259.092 11.9583 259.092 12.5682C259.092 13.0682 258.948 13.5152 258.66 13.9091C258.376 14.303 257.978 14.6136 257.467 14.8409C256.955 15.0682 256.361 15.1818 255.683 15.1818C254.792 15.1818 254.056 14.9886 253.472 14.6023C252.889 14.2159 252.52 13.6515 252.364 12.9091L253.637 12.5909C253.758 13.0606 253.987 13.4129 254.325 13.6477C254.665 13.8826 255.111 14 255.66 14C256.285 14 256.781 13.8674 257.148 13.6023C257.52 13.3333 257.705 13.0114 257.705 12.6364C257.705 12.3333 257.599 12.0795 257.387 11.875C257.175 11.6667 256.849 11.5114 256.41 11.4091L254.955 11.0682C254.156 10.8788 253.569 10.5852 253.194 10.1875C252.823 9.78598 252.637 9.28409 252.637 8.68182C252.637 8.18939 252.775 7.75379 253.052 7.375C253.332 6.99621 253.713 6.69886 254.194 6.48295C254.679 6.26705 255.228 6.15909 255.842 6.15909C256.705 6.15909 257.383 6.34848 257.876 6.72727C258.372 7.10606 258.724 7.60606 258.933 8.22727ZM261.11 15V6.27273H262.451V15H261.11ZM261.792 4.81818C261.531 4.81818 261.305 4.72917 261.116 4.55114C260.93 4.37311 260.837 4.15909 260.837 3.90909C260.837 3.65909 260.93 3.44508 261.116 3.26705C261.305 3.08902 261.531 3 261.792 3C262.053 3 262.277 3.08902 262.462 3.26705C262.652 3.44508 262.746 3.65909 262.746 3.90909C262.746 4.15909 262.652 4.37311 262.462 4.55114C262.277 4.72917 262.053 4.81818 261.792 4.81818ZM268.43 18.4545C267.782 18.4545 267.225 18.3712 266.759 18.2045C266.293 18.0417 265.905 17.8258 265.594 17.5568C265.288 17.2917 265.043 17.0076 264.862 16.7045L265.93 15.9545C266.051 16.1136 266.204 16.2955 266.39 16.5C266.576 16.7083 266.829 16.8883 267.151 17.0398C267.477 17.1951 267.903 17.2727 268.43 17.2727C269.134 17.2727 269.716 17.1023 270.174 16.7614C270.632 16.4205 270.862 15.8864 270.862 15.1591V13.3864H270.748C270.649 13.5455 270.509 13.7424 270.327 13.9773C270.149 14.2083 269.892 14.4148 269.555 14.5966C269.221 14.7746 268.771 14.8636 268.202 14.8636C267.498 14.8636 266.865 14.697 266.305 14.3636C265.748 14.0303 265.307 13.5455 264.981 12.9091C264.659 12.2727 264.498 11.5 264.498 10.5909C264.498 9.69697 264.655 8.91856 264.969 8.25568C265.284 7.58901 265.721 7.07386 266.282 6.71023C266.843 6.3428 267.49 6.15909 268.225 6.15909C268.793 6.15909 269.244 6.25379 269.577 6.44318C269.915 6.62879 270.172 6.84091 270.35 7.07955C270.532 7.31439 270.672 7.50758 270.771 7.65909H270.907V6.27273H272.202V15.25C272.202 16 272.032 16.6098 271.691 17.0795C271.354 17.553 270.899 17.8996 270.327 18.1193C269.759 18.3428 269.127 18.4545 268.43 18.4545ZM268.384 13.6591C268.922 13.6591 269.377 13.536 269.748 13.2898C270.119 13.0436 270.401 12.6894 270.594 12.2273C270.788 11.7652 270.884 11.2121 270.884 10.5682C270.884 9.93939 270.79 9.38447 270.6 8.90341C270.411 8.42235 270.13 8.04545 269.759 7.77273C269.388 7.5 268.93 7.36364 268.384 7.36364C267.816 7.36364 267.343 7.50758 266.964 7.79545C266.589 8.08333 266.307 8.4697 266.117 8.95455C265.932 9.43939 265.839 9.97727 265.839 10.5682C265.839 11.1742 265.933 11.7102 266.123 12.1761C266.316 12.6383 266.6 13.0019 266.975 13.267C267.354 13.5284 267.824 13.6591 268.384 13.6591ZM275.998 9.75V15H274.657V6.27273H275.952V7.63636H276.066C276.271 7.19318 276.581 6.83712 276.998 6.56818C277.415 6.29545 277.952 6.15909 278.612 6.15909C279.202 6.15909 279.719 6.2803 280.163 6.52273C280.606 6.76136 280.951 7.125 281.197 7.61364C281.443 8.09848 281.566 8.71212 281.566 9.45455V15H280.225V9.54545C280.225 8.85985 280.047 8.32576 279.691 7.94318C279.335 7.55682 278.846 7.36364 278.225 7.36364C277.797 7.36364 277.415 7.45644 277.077 7.64205C276.744 7.82765 276.481 8.09848 276.288 8.45455C276.094 8.81061 275.998 9.24242 275.998 9.75ZM288.698 15V3.36364H290.039V7.65909H290.153C290.251 7.50758 290.388 7.31439 290.562 7.07955C290.74 6.84091 290.994 6.62879 291.323 6.44318C291.656 6.25379 292.107 6.15909 292.675 6.15909C293.41 6.15909 294.058 6.3428 294.619 6.71023C295.179 7.07765 295.617 7.59848 295.931 8.27273C296.246 8.94697 296.403 9.74242 296.403 10.6591C296.403 11.5833 296.246 12.3845 295.931 13.0625C295.617 13.7367 295.181 14.2595 294.624 14.6307C294.067 14.9981 293.425 15.1818 292.698 15.1818C292.138 15.1818 291.689 15.089 291.352 14.9034C291.014 14.714 290.755 14.5 290.573 14.2614C290.391 14.0189 290.251 13.8182 290.153 13.6591H289.994V15H288.698ZM290.016 10.6364C290.016 11.2955 290.113 11.8769 290.306 12.3807C290.499 12.8807 290.781 13.2727 291.153 13.5568C291.524 13.8371 291.978 13.9773 292.516 13.9773C293.077 13.9773 293.545 13.8295 293.92 13.5341C294.299 13.2348 294.583 12.8333 294.772 12.3295C294.965 11.822 295.062 11.2576 295.062 10.6364C295.062 10.0227 294.967 9.4697 294.778 8.97727C294.592 8.48106 294.31 8.08902 293.931 7.80114C293.556 7.50947 293.085 7.36364 292.516 7.36364C291.971 7.36364 291.513 7.50189 291.141 7.77841C290.77 8.05114 290.49 8.43371 290.3 8.92614C290.111 9.41477 290.016 9.98485 290.016 10.6364ZM299.005 18.2727C298.778 18.2727 298.575 18.2538 298.397 18.2159C298.219 18.1818 298.096 18.1477 298.028 18.1136L298.369 16.9318C298.694 17.0152 298.982 17.0455 299.232 17.0227C299.482 17 299.704 16.8883 299.897 16.6875C300.094 16.4905 300.274 16.1705 300.437 15.7273L300.687 15.0455L297.46 6.27273H298.914L301.323 13.2273H301.414L303.823 6.27273H305.278L301.573 16.2727C301.406 16.7235 301.2 17.0966 300.954 17.392C300.708 17.6913 300.422 17.9129 300.096 18.0568C299.774 18.2008 299.41 18.2727 299.005 18.2727ZM311.729 15V3.36364H318.707V4.61364H313.138V8.54545H318.184V9.79545H313.138V15H311.729ZM320.938 15V6.27273H322.279V15H320.938ZM321.62 4.81818C321.359 4.81818 321.133 4.72917 320.944 4.55114C320.758 4.37311 320.665 4.15909 320.665 3.90909C320.665 3.65909 320.758 3.44508 320.944 3.26705C321.133 3.08902 321.359 3 321.62 3C321.881 3 322.105 3.08902 322.29 3.26705C322.48 3.44508 322.575 3.65909 322.575 3.90909C322.575 4.15909 322.48 4.37311 322.29 4.55114C322.105 4.72917 321.881 4.81818 321.62 4.81818ZM328.258 18.4545C327.61 18.4545 327.053 18.3712 326.587 18.2045C326.121 18.0417 325.733 17.8258 325.423 17.5568C325.116 17.2917 324.871 17.0076 324.69 16.7045L325.758 15.9545C325.879 16.1136 326.032 16.2955 326.218 16.5C326.404 16.7083 326.657 16.8883 326.979 17.0398C327.305 17.1951 327.731 17.2727 328.258 17.2727C328.962 17.2727 329.544 17.1023 330.002 16.7614C330.46 16.4205 330.69 15.8864 330.69 15.1591V13.3864H330.576C330.478 13.5455 330.337 13.7424 330.156 13.9773C329.978 14.2083 329.72 14.4148 329.383 14.5966C329.049 14.7746 328.599 14.8636 328.031 14.8636C327.326 14.8636 326.693 14.697 326.133 14.3636C325.576 14.0303 325.135 13.5455 324.809 12.9091C324.487 12.2727 324.326 11.5 324.326 10.5909C324.326 9.69697 324.483 8.91856 324.798 8.25568C325.112 7.58901 325.549 7.07386 326.11 6.71023C326.671 6.3428 327.318 6.15909 328.053 6.15909C328.621 6.15909 329.072 6.25379 329.406 6.44318C329.743 6.62879 330 6.84091 330.178 7.07955C330.36 7.31439 330.5 7.50758 330.599 7.65909H330.735V6.27273H332.031V15.25C332.031 16 331.86 16.6098 331.519 17.0795C331.182 17.553 330.728 17.8996 330.156 18.1193C329.587 18.3428 328.955 18.4545 328.258 18.4545ZM328.212 13.6591C328.75 13.6591 329.205 13.536 329.576 13.2898C329.947 13.0436 330.229 12.6894 330.423 12.2273C330.616 11.7652 330.712 11.2121 330.712 10.5682C330.712 9.93939 330.618 9.38447 330.428 8.90341C330.239 8.42235 329.959 8.04545 329.587 7.77273C329.216 7.5 328.758 7.36364 328.212 7.36364C327.644 7.36364 327.171 7.50758 326.792 7.79545C326.417 8.08333 326.135 8.4697 325.945 8.95455C325.76 9.43939 325.667 9.97727 325.667 10.5682C325.667 11.1742 325.762 11.7102 325.951 12.1761C326.144 12.6383 326.428 13.0019 326.803 13.267C327.182 13.5284 327.652 13.6591 328.212 13.6591ZM334.485 15V6.27273H335.781V7.63636H335.894C336.076 7.17045 336.37 6.80871 336.775 6.55114C337.18 6.28977 337.667 6.15909 338.235 6.15909C338.811 6.15909 339.29 6.28977 339.673 6.55114C340.059 6.80871 340.36 7.17045 340.576 7.63636H340.667C340.89 7.18561 341.226 6.82765 341.673 6.5625C342.12 6.29356 342.656 6.15909 343.281 6.15909C344.061 6.15909 344.699 6.40341 345.195 6.89205C345.692 7.37689 345.94 8.13258 345.94 9.15909V15H344.599V9.15909C344.599 8.51515 344.423 8.05492 344.07 7.77841C343.718 7.50189 343.303 7.36364 342.826 7.36364C342.212 7.36364 341.737 7.54924 341.4 7.92045C341.063 8.28788 340.894 8.75379 340.894 9.31818V15H339.531V9.02273C339.531 8.52652 339.37 8.12689 339.048 7.82386C338.726 7.51705 338.311 7.36364 337.803 7.36364C337.455 7.36364 337.129 7.45644 336.826 7.64205C336.527 7.82765 336.284 8.08523 336.099 8.41477C335.917 8.74053 335.826 9.11742 335.826 9.54545V15H334.485ZM350.96 15.2045C350.406 15.2045 349.905 15.1004 349.454 14.892C349.003 14.6799 348.645 14.375 348.38 13.9773C348.115 13.5758 347.982 13.0909 347.982 12.5227C347.982 12.0227 348.081 11.6174 348.278 11.3068C348.475 10.9924 348.738 10.7462 349.067 10.5682C349.397 10.3902 349.761 10.2576 350.158 10.1705C350.56 10.0795 350.963 10.0076 351.369 9.95455C351.899 9.88636 352.329 9.83523 352.658 9.80114C352.992 9.76326 353.234 9.70076 353.386 9.61364C353.541 9.52652 353.619 9.375 353.619 9.15909V9.11364C353.619 8.55303 353.465 8.11742 353.158 7.80682C352.855 7.49621 352.395 7.34091 351.778 7.34091C351.138 7.34091 350.636 7.48106 350.272 7.76136C349.908 8.04167 349.653 8.34091 349.505 8.65909L348.232 8.20455C348.46 7.67424 348.763 7.26136 349.141 6.96591C349.524 6.66667 349.941 6.45833 350.391 6.34091C350.846 6.2197 351.293 6.15909 351.732 6.15909C352.013 6.15909 352.335 6.19318 352.698 6.26136C353.066 6.32576 353.42 6.46023 353.761 6.66477C354.105 6.86932 354.391 7.17803 354.619 7.59091C354.846 8.00379 354.96 8.55682 354.96 9.25V15H353.619V13.8182H353.55C353.46 14.0076 353.308 14.2102 353.096 14.4261C352.884 14.642 352.602 14.8258 352.249 14.9773C351.897 15.1288 351.467 15.2045 350.96 15.2045ZM351.164 14C351.694 14 352.141 13.8958 352.505 13.6875C352.872 13.4792 353.149 13.2102 353.335 12.8807C353.524 12.5511 353.619 12.2045 353.619 11.8409V10.6136C353.562 10.6818 353.437 10.7443 353.244 10.8011C353.054 10.8542 352.835 10.9015 352.585 10.9432C352.338 10.9811 352.098 11.0152 351.863 11.0455C351.632 11.072 351.444 11.0947 351.3 11.1136C350.952 11.1591 350.626 11.233 350.323 11.3352C350.024 11.4337 349.781 11.5833 349.596 11.7841C349.414 11.9811 349.323 12.25 349.323 12.5909C349.323 13.0568 349.496 13.4091 349.84 13.6477C350.189 13.8826 350.63 14 351.164 14ZM358.384 15.0909C358.104 15.0909 357.863 14.9905 357.663 14.7898C357.462 14.589 357.362 14.3485 357.362 14.0682C357.362 13.7879 357.462 13.5473 357.663 13.3466C357.863 13.1458 358.104 13.0455 358.384 13.0455C358.665 13.0455 358.905 13.1458 359.106 13.3466C359.307 13.5473 359.407 13.7879 359.407 14.0682C359.407 14.2538 359.36 14.4242 359.265 14.5795C359.174 14.7348 359.051 14.8598 358.896 14.9545C358.744 15.0455 358.574 15.0909 358.384 15.0909ZM365.336 18.4545C364.688 18.4545 364.131 18.3712 363.665 18.2045C363.2 18.0417 362.811 17.8258 362.501 17.5568C362.194 17.2917 361.95 17.0076 361.768 16.7045L362.836 15.9545C362.957 16.1136 363.111 16.2955 363.296 16.5C363.482 16.7083 363.736 16.8883 364.058 17.0398C364.383 17.1951 364.809 17.2727 365.336 17.2727C366.04 17.2727 366.622 17.1023 367.08 16.7614C367.539 16.4205 367.768 15.8864 367.768 15.1591V13.3864H367.654C367.556 13.5455 367.415 13.7424 367.234 13.9773C367.056 14.2083 366.798 14.4148 366.461 14.5966C366.128 14.7746 365.677 14.8636 365.109 14.8636C364.404 14.8636 363.772 14.697 363.211 14.3636C362.654 14.0303 362.213 13.5455 361.887 12.9091C361.565 12.2727 361.404 11.5 361.404 10.5909C361.404 9.69697 361.561 8.91856 361.876 8.25568C362.19 7.58901 362.628 7.07386 363.188 6.71023C363.749 6.3428 364.397 6.15909 365.131 6.15909C365.7 6.15909 366.15 6.25379 366.484 6.44318C366.821 6.62879 367.078 6.84091 367.256 7.07955C367.438 7.31439 367.578 7.50758 367.677 7.65909H367.813V6.27273H369.109V15.25C369.109 16 368.938 16.6098 368.597 17.0795C368.26 17.553 367.806 17.8996 367.234 18.1193C366.665 18.3428 366.033 18.4545 365.336 18.4545ZM365.29 13.6591C365.828 13.6591 366.283 13.536 366.654 13.2898C367.025 13.0436 367.308 12.6894 367.501 12.2273C367.694 11.7652 367.79 11.2121 367.79 10.5682C367.79 9.93939 367.696 9.38447 367.506 8.90341C367.317 8.42235 367.037 8.04545 366.665 7.77273C366.294 7.5 365.836 7.36364 365.29 7.36364C364.722 7.36364 364.249 7.50758 363.87 7.79545C363.495 8.08333 363.213 8.4697 363.023 8.95455C362.838 9.43939 362.745 9.97727 362.745 10.5682C362.745 11.1742 362.84 11.7102 363.029 12.1761C363.222 12.6383 363.506 13.0019 363.881 13.267C364.26 13.5284 364.73 13.6591 365.29 13.6591ZM377.063 11.4318V6.27273H378.404V15H377.063V13.5227H376.972C376.768 13.9659 376.45 14.3428 376.018 14.6534C375.586 14.9602 375.04 15.1136 374.381 15.1136C373.836 15.1136 373.351 14.9943 372.927 14.7557C372.503 14.5133 372.169 14.1496 371.927 13.6648C371.684 13.1761 371.563 12.5606 371.563 11.8182V6.27273H372.904V11.7273C372.904 12.3636 373.082 12.8712 373.438 13.25C373.798 13.6288 374.256 13.8182 374.813 13.8182C375.147 13.8182 375.486 13.733 375.83 13.5625C376.179 13.392 376.47 13.1307 376.705 12.7784C376.944 12.4261 377.063 11.9773 377.063 11.4318ZM380.86 15V6.27273H382.156V7.59091H382.246C382.406 7.15909 382.693 6.80871 383.11 6.53977C383.527 6.27083 383.996 6.13636 384.519 6.13636C384.618 6.13636 384.741 6.13826 384.888 6.14205C385.036 6.14583 385.148 6.15152 385.224 6.15909V7.52273C385.178 7.51136 385.074 7.49432 384.911 7.47159C384.752 7.44508 384.584 7.43182 384.406 7.43182C383.981 7.43182 383.603 7.52083 383.269 7.69886C382.94 7.87311 382.678 8.11553 382.485 8.42614C382.296 8.73295 382.201 9.08333 382.201 9.47727V15H380.86ZM392.313 11.4318V6.27273H393.654V15H392.313V13.5227H392.222C392.018 13.9659 391.7 14.3428 391.268 14.6534C390.836 14.9602 390.29 15.1136 389.631 15.1136C389.086 15.1136 388.601 14.9943 388.177 14.7557C387.753 14.5133 387.419 14.1496 387.177 13.6648C386.934 13.1761 386.813 12.5606 386.813 11.8182V6.27273H388.154V11.7273C388.154 12.3636 388.332 12.8712 388.688 13.25C389.048 13.6288 389.506 13.8182 390.063 13.8182C390.397 13.8182 390.736 13.733 391.08 13.5625C391.429 13.392 391.72 13.1307 391.955 12.7784C392.194 12.4261 392.313 11.9773 392.313 11.4318Z" fill="white" fill-opacity="0.5"/>
<g clip-path="url(#clip0_69_36678)">
<path opacity="0.8" fill-rule="evenodd" clip-rule="evenodd" d="M1137.12 16.7906C1137.12 17.0673 1137.03 17.2518 1136.85 17.3441C1136.67 17.4363 1136.39 17.5286 1136.12 17.4363H1134.39V16.0525H1136.21C1136.48 16.0525 1136.67 16.0525 1136.94 16.1448C1137.03 16.3293 1137.12 16.5138 1137.12 16.7906ZM1129.73 16.0525H1127.91V17.6208H1129.82C1130.37 17.6208 1130.74 17.3441 1130.74 16.7906C1130.64 16.3293 1130.28 16.0525 1129.73 16.0525ZM1156.65 17.0673C1157.2 17.6208 1157.38 18.3588 1157.38 19.0968C1157.38 20.9418 1156.2 22.0489 1154.1 22.0489H1151.27C1150.9 22.0489 1150.54 21.7721 1150.36 21.4031C1149.72 21.8644 1148.99 22.0489 1148.17 22.0489H1145.34C1145.15 22.0489 1145.06 22.0489 1144.88 21.9566C1144.79 22.0489 1144.61 22.0489 1144.42 22.0489H1139.59C1139.4 22.0489 1139.31 22.0489 1139.13 21.9566C1138.95 22.0489 1138.86 22.0489 1138.67 22.0489H1137.21C1136.67 22.0489 1136.21 21.5876 1136.21 21.0341V19.7426H1135.39V20.9418C1135.39 21.4953 1134.93 21.9566 1134.39 21.9566H1132.93C1132.38 21.9566 1131.92 21.4953 1131.92 20.9418V19.3736C1131.28 19.7426 1130.46 19.9271 1129.73 19.9271H1128.91V20.9418C1128.91 21.4953 1128.45 21.9566 1127.91 21.9566H1125.08C1124.8 21.9566 1124.53 21.8644 1124.35 21.5876L1123.25 20.3883L1122.16 21.5876C1121.97 21.7721 1121.7 21.9566 1121.43 21.9566H1115.68C1115.13 21.9566 1114.67 21.4953 1114.67 20.9418V14.761C1114.67 14.2075 1115.13 13.7463 1115.68 13.7463H1121.52C1121.79 13.7463 1122.07 13.8385 1122.25 14.1153L1123.34 15.3145L1124.44 14.1153C1124.62 13.9308 1124.89 13.7463 1125.17 13.7463H1129.82C1130.64 13.7463 1131.37 13.9308 1132.1 14.2998C1132.29 13.9308 1132.65 13.7463 1133.02 13.7463H1136.39C1137.12 13.654 1137.94 13.8385 1138.58 14.1153C1138.67 14.1153 1138.67 14.2075 1138.77 14.2998C1138.95 13.9308 1139.31 13.7463 1139.68 13.7463H1144.51C1144.88 13.7463 1145.24 13.9308 1145.34 14.2998C1145.88 13.9308 1146.61 13.7463 1147.25 13.7463H1150.17C1150.63 13.7463 1150.99 14.023 1151.09 14.392C1151.72 13.9308 1152.45 13.654 1153.18 13.7463H1156.1C1156.65 13.7463 1157.11 14.2075 1157.11 14.761V16.0525C1157.11 16.5138 1156.93 16.7906 1156.65 17.0673C1156.65 16.9751 1156.65 16.9751 1156.65 17.0673ZM1132.2 16.8828C1132.2 15.13 1130.92 14.8533 1129.73 14.8533H1125.08L1123.25 16.8828L1121.43 14.8533H1115.59V21.0341H1121.34L1123.16 19.0046L1124.99 21.0341H1127.82V19.0046H1129.64C1130.92 18.9123 1132.2 18.5433 1132.2 16.8828ZM1137.76 18.0821C1138.4 17.8053 1138.86 17.1596 1138.77 16.4215C1138.77 15.868 1138.49 15.3145 1138.04 15.0378C1137.49 14.761 1136.85 14.6688 1136.3 14.761H1132.93V20.9418H1134.39V18.7278H1135.94C1136.48 18.7278 1136.76 18.8201 1137.03 19.0046C1137.31 19.2813 1137.31 19.8348 1137.31 20.2038V20.9418H1138.77V19.7426C1138.77 19.3736 1138.77 18.9123 1138.49 18.6356C1138.22 18.3588 1138.04 18.2666 1137.76 18.0821ZM1144.42 14.8533H1139.59V21.0341H1144.42V19.7426H1141.05V18.4511H1144.33V17.1596H1141.05V16.0525H1144.42V14.8533ZM1150.45 19.0046C1150.45 18.5433 1150.36 18.0821 1149.99 17.7131C1149.53 17.3441 1148.9 17.1596 1148.35 17.2518H1147.53C1147.34 17.2518 1147.16 17.2518 1146.98 17.1596C1146.71 17.0673 1146.61 16.7906 1146.71 16.5138C1146.71 16.4215 1146.8 16.3293 1146.89 16.3293C1147.07 16.237 1147.25 16.237 1147.44 16.237H1150.08V14.9455H1147.16C1145.61 14.9455 1145.06 15.868 1145.06 16.7906C1145.06 18.7278 1146.8 18.6356 1148.17 18.7278C1148.35 18.7278 1148.53 18.7278 1148.71 18.8201C1148.8 18.9123 1148.9 19.0968 1148.9 19.1891C1148.9 19.3736 1148.8 19.4658 1148.71 19.5581C1148.53 19.6503 1148.35 19.7426 1148.17 19.7426H1145.34V21.0341H1148.17C1149.63 21.0341 1150.45 20.3883 1150.45 19.0046ZM1156.38 19.0046C1156.38 18.5433 1156.29 18.0821 1155.92 17.7131C1155.47 17.3441 1154.83 17.1596 1154.28 17.2518H1153.46C1153.28 17.2518 1153.09 17.2518 1152.91 17.1596C1152.64 17.0673 1152.55 16.7906 1152.64 16.5138C1152.64 16.4215 1152.73 16.3293 1152.82 16.3293C1153 16.237 1153.18 16.237 1153.37 16.237H1156.01V14.9455H1153.09C1151.54 14.9455 1150.99 15.868 1150.99 16.7906C1150.99 18.7278 1152.73 18.6356 1154.1 18.7278C1154.28 18.7278 1154.46 18.7278 1154.64 18.8201C1154.74 18.9123 1154.83 19.0968 1154.83 19.1891C1154.83 19.3736 1154.74 19.4658 1154.64 19.5581C1154.46 19.6503 1154.28 19.7426 1154.1 19.7426H1151.27V21.0341H1154.1C1155.56 21.0341 1156.38 20.3883 1156.38 19.0046ZM1142.23 5.25919L1141.23 7.74996H1143.24L1142.23 5.25919ZM1130.64 6.7352C1130.83 6.64295 1130.92 6.3662 1130.92 6.1817C1130.92 5.99719 1130.83 5.72044 1130.64 5.62819C1130.46 5.53594 1130.19 5.53594 1129.91 5.53594H1128.09V6.9197H1129.82C1130.19 6.9197 1130.37 6.82745 1130.64 6.7352ZM1126.45 20.3883V15.4068L1124.16 17.8053L1126.45 20.3883ZM1114.86 11.44C1114.49 11.44 1114.13 11.1632 1113.94 10.7942L1113.76 10.333C1113.76 10.8865 1113.31 11.3477 1112.76 11.3477H1109.84C1109.47 11.3477 1109.11 11.071 1108.93 10.702L1108.65 9.96398H1107.01L1106.73 10.702C1106.55 11.071 1106.19 11.3477 1105.82 11.3477H1104.27C1103.72 11.3477 1103.27 10.8865 1103.27 10.333C1103.27 10.2407 1103.27 10.0562 1103.36 9.96398L1106 3.78317C1106.19 3.41417 1106.55 3.13742 1106.92 3.13742H1108.74C1109.11 3.13742 1109.47 3.41417 1109.66 3.78317L1110.2 5.07468V4.15218C1110.2 3.59867 1110.66 3.13742 1111.21 3.13742H1113.58C1113.94 3.13742 1114.31 3.41417 1114.49 3.69092L1115.4 5.81269L1116.23 3.78317C1116.41 3.41417 1116.77 3.13742 1117.14 3.13742H1119.69C1119.88 3.13742 1120.06 3.22967 1120.24 3.32192C1120.42 3.22967 1120.61 3.13742 1120.79 3.13742H1125.62C1125.81 3.13742 1125.99 3.22967 1126.17 3.32192C1126.35 3.22967 1126.54 3.13742 1126.72 3.13742H1130.1C1130.92 3.04516 1131.65 3.22967 1132.38 3.59867C1132.47 3.59867 1132.47 3.69092 1132.56 3.78317C1132.74 3.41417 1133.11 3.22967 1133.47 3.22967H1134.93C1135.39 3.22967 1135.85 3.59867 1135.94 4.05992C1136.67 3.41417 1137.67 3.13742 1138.67 3.22967H1140.04C1140.23 3.22967 1140.5 3.32192 1140.68 3.41417C1140.86 3.32192 1141.05 3.22967 1141.32 3.22967H1143.51C1143.88 3.22967 1144.24 3.50642 1144.42 3.87542L1144.97 5.16694V4.24443C1144.97 3.69092 1145.43 3.22967 1145.98 3.22967H1148.17C1148.53 3.22967 1148.8 3.41417 1148.99 3.69092L1149.72 4.89018V4.24443C1149.72 3.69092 1150.17 3.22967 1150.72 3.22967H1152.18C1152.73 3.22967 1153.18 3.69092 1153.18 4.24443V10.4252C1153.18 10.9787 1152.73 11.44 1152.18 11.44H1150.08C1149.72 11.44 1149.44 11.2555 1149.26 10.9787L1148.35 9.50273V10.5175C1148.35 11.071 1147.89 11.5322 1147.34 11.5322H1144.33C1143.97 11.5322 1143.6 11.2555 1143.42 10.8865L1143.15 10.1485H1141.5L1141.23 10.8865C1141.05 11.2555 1140.68 11.5322 1140.32 11.5322H1138.58C1137.67 11.5322 1136.67 11.2555 1135.94 10.702C1135.85 11.1632 1135.48 11.5322 1134.93 11.5322H1133.38C1133.2 11.5322 1133.11 11.5322 1132.93 11.44C1132.74 11.5322 1132.65 11.5322 1132.47 11.5322H1131.01C1130.46 11.5322 1130.01 11.071 1130.01 10.5175V9.41048H1129.18V10.6097C1129.18 11.1632 1128.73 11.6245 1128.18 11.6245H1126.72C1126.54 11.6245 1126.35 11.5322 1126.17 11.44C1125.99 11.5322 1125.81 11.6245 1125.62 11.6245H1120.79C1120.61 11.6245 1120.42 11.5322 1120.24 11.44C1120.06 11.5322 1119.88 11.6245 1119.69 11.6245H1118.23C1117.69 11.6245 1117.23 11.1632 1117.23 10.6097L1117.05 11.071C1116.86 11.44 1116.5 11.7168 1116.13 11.7168L1114.86 11.44ZM1135.57 7.38096C1135.48 8.21122 1135.75 9.13372 1136.39 9.68723C1137.03 10.1485 1137.76 10.4252 1138.49 10.333H1140.23L1140.77 8.94922H1143.78L1144.33 10.333H1147.25V5.72044L1149.99 10.333H1152.09V4.24443H1150.63V8.48797L1148.07 4.24443H1145.88V10.0562L1143.42 4.24443H1141.23L1139.13 9.04147H1138.49C1138.13 9.04147 1137.76 8.94922 1137.49 8.76472C1137.21 8.30347 1137.03 7.84221 1137.12 7.28871C1137.12 6.82745 1137.21 6.27395 1137.58 5.90494C1137.85 5.62819 1138.31 5.44369 1138.67 5.53594H1140.04V4.24443H1138.67C1137.85 4.15218 1137.03 4.42893 1136.48 4.98243C1135.75 5.62819 1135.48 6.45845 1135.57 7.38096ZM1138.58 6.5507C1138.22 6.5507 1138.22 6.5507 1138.13 6.64295C1138.04 6.82745 1138.04 7.10421 1138.04 7.28871C1138.04 7.56546 1138.04 7.74996 1138.13 8.02671H1138.4L1139.04 6.5507H1138.58ZM1133.38 4.24443V10.4252H1134.84V4.24443H1133.38ZM1126.63 10.4252H1128.09V8.11897H1129.64C1130.01 8.02671 1130.37 8.11897 1130.74 8.39572C1130.92 8.76472 1131.01 9.22598 1131.01 9.59498V10.333H1132.47V9.13372C1132.56 8.76472 1132.47 8.30347 1132.2 8.02671C1132.01 7.74996 1131.74 7.65771 1131.47 7.47321C1132.1 7.19646 1132.47 6.5507 1132.47 5.81269C1132.47 5.25919 1132.2 4.70568 1131.74 4.42893C1131.19 4.15218 1130.55 4.05992 1130.01 4.15218H1126.63V10.4252ZM1120.79 4.24443V10.4252H1125.62V9.13372H1122.25V7.84221H1125.53V6.64295H1122.25V5.53594H1125.62V4.24443H1120.79ZM1114.86 10.4252H1116.13L1118.23 5.53594V10.333H1119.69V4.24443H1117.23L1115.5 8.39572L1113.58 4.24443H1111.21V10.0562L1108.74 4.24443H1106.55L1103.91 10.4252H1105.46L1106 9.04147H1109.02L1109.56 10.4252H1112.48V5.53594L1114.86 10.4252ZM1117.05 16.1448V17.2518H1120.24V18.4511H1117.05V19.6503H1120.61L1122.25 17.8053L1120.7 16.0525H1117.05V16.1448ZM1106.64 7.74996H1108.65L1107.65 5.25919L1106.64 7.74996ZM1199.09 17.0673C1197.9 16.0525 1196.99 14.8533 1196.35 13.4695C1196.07 12.8238 1195.8 12.0858 1195.62 11.3477C1195.44 10.6097 1195.34 9.77948 1195.44 9.04147C1195.53 6.3662 1196.62 3.87542 1198.45 2.0304L1198.9 1.56915L1198.99 1.4769C1197.72 0.55439 1196.17 0.0931351 1194.61 0.000884209C1189.5 -0.368119 1185.12 3.50642 1184.67 8.58022V9.31823C1184.67 11.1632 1185.22 12.916 1186.22 14.4843C1189.14 18.7278 1194.8 19.9271 1199.09 17.0673ZM1200.82 23.6171V23.8939H1198.99C1198.99 24.2629 1199.36 24.5396 1199.72 24.5396C1200 24.5396 1200.27 24.4474 1200.45 24.2629L1200.73 24.6319C1200.45 24.9086 1200.09 25.0009 1199.72 25.0009C1198.99 25.0009 1198.45 24.4474 1198.45 23.7094C1198.45 22.9714 1198.99 22.4179 1199.72 22.4179C1200.27 22.4179 1200.82 22.9714 1200.82 23.6171ZM1200.27 23.5249C1200.27 23.1559 1200 22.8791 1199.63 22.9714C1199.27 22.9714 1198.99 23.2481 1198.99 23.5249H1200.27ZM1204.38 22.8791C1204.65 22.8791 1204.84 22.9714 1205.02 23.0636L1205.29 22.6024C1205.02 22.4179 1204.74 22.3256 1204.38 22.3256H1204.29C1203.65 22.3256 1203.1 22.9714 1203.1 23.6171V23.7094C1203.1 24.3551 1203.74 24.9086 1204.38 24.9086C1204.65 24.9086 1205.02 24.8164 1205.29 24.6319L1205.02 24.1706C1204.84 24.3551 1204.65 24.3551 1204.38 24.3551C1204.01 24.3551 1203.65 23.9861 1203.65 23.6171C1203.56 23.3404 1203.92 22.9714 1204.38 22.8791ZM1202.55 22.4179C1202.28 22.4179 1202.01 22.5101 1201.91 22.7869V22.5101H1201.37V24.9086H1201.91V23.5249C1201.91 23.1559 1202.1 22.8791 1202.46 22.8791C1202.55 22.8791 1202.65 22.8791 1202.83 22.9714L1203.01 22.5101C1202.83 22.4179 1202.65 22.4179 1202.55 22.4179ZM1209.22 22.7869V22.5101H1208.67V24.9086H1209.22V23.5249C1209.22 23.1559 1209.4 22.8791 1209.76 22.8791C1209.85 22.8791 1209.95 22.8791 1210.13 22.9714L1210.31 22.5101C1210.22 22.5101 1210.04 22.4179 1209.95 22.4179C1209.58 22.4179 1209.4 22.5101 1209.22 22.7869ZM1212.41 21.4953H1212.96V24.9086H1212.41V24.6319C1212.23 24.9086 1211.95 25.0009 1211.68 25.0009C1210.95 25.0009 1210.4 24.4474 1210.4 23.7094C1210.4 22.9714 1210.95 22.4179 1211.68 22.4179C1211.95 22.4179 1212.23 22.5101 1212.41 22.7869V21.4953ZM1212.41 23.8016C1212.41 23.4326 1212.14 23.0636 1211.68 22.9714C1211.31 22.9714 1210.95 23.2481 1210.95 23.7094C1210.95 24.0784 1211.22 24.4474 1211.68 24.5396C1212.04 24.5396 1212.41 24.1706 1212.41 23.8016ZM1207.48 22.5101H1208.03V24.9086H1207.48V24.6319C1207.3 24.9086 1207.03 25.0009 1206.75 25.0009C1206.02 25.0009 1205.47 24.4474 1205.47 23.7094C1205.47 22.9714 1206.02 22.4179 1206.75 22.4179C1207.03 22.4179 1207.3 22.5101 1207.48 22.7869V22.5101ZM1207.48 23.8016C1207.48 23.4326 1207.21 23.0636 1206.75 22.9714C1206.39 22.9714 1206.02 23.2481 1206.02 23.7094C1206.02 24.0784 1206.3 24.4474 1206.75 24.5396C1207.12 24.5396 1207.48 24.1706 1207.48 23.8016ZM1200.27 1.56915C1200.27 1.56915 1200.27 1.6614 1200.36 1.75365C1201.46 2.67616 1202.37 3.87542 1203.01 5.25919C1203.74 6.9197 1204.01 8.76472 1203.83 10.5175C1203.74 11.3477 1203.56 12.178 1203.28 12.916C1202.83 14.1153 1202.19 15.13 1201.37 16.0525C1201.09 16.4215 1200.73 16.6983 1200.36 17.0673L1200.27 17.1596C1203.38 19.1891 1207.39 19.1891 1210.4 17.1596C1214.69 14.2998 1215.79 8.58022 1213.05 4.24443C1210.22 -0.0913668 1204.47 -1.29063 1200.27 1.56915ZM1197.53 24.4474C1197.26 24.4474 1197.17 24.2629 1197.17 24.0784V22.9714H1197.99V22.5101H1197.17V21.7721H1196.62V22.5101H1196.17V22.9714H1196.62V24.0784C1196.62 24.6319 1196.8 25.0009 1197.44 25.0009C1197.72 25.0009 1197.9 24.9086 1198.08 24.8164L1197.9 24.3551C1197.81 24.4474 1197.63 24.4474 1197.53 24.4474ZM1196.07 9.31823C1196.07 12.178 1197.35 14.9455 1199.63 16.6983C1199.63 16.6983 1199.72 16.6983 1199.72 16.6061C1201.82 14.8533 1203.1 12.2703 1203.19 9.50273C1203.19 8.94922 1203.19 8.30347 1203.01 7.74996C1202.83 6.9197 1202.65 6.08944 1202.19 5.25919C1201.64 4.05992 1200.73 2.95291 1199.72 2.0304C1199.72 2.0304 1199.63 1.93815 1199.54 1.93815C1197.44 3.78317 1196.07 6.45845 1196.07 9.31823ZM1192.52 22.5101H1193.06V24.9086H1192.52V24.6319C1192.33 24.9086 1192.06 25.0009 1191.79 25.0009C1191.06 25.0009 1190.51 24.4474 1190.51 23.7094C1190.51 22.9714 1191.06 22.4179 1191.79 22.4179C1192.06 22.4179 1192.33 22.5101 1192.52 22.7869V22.5101ZM1192.61 23.8016C1192.61 23.4326 1192.33 23.0636 1191.88 22.9714C1191.51 22.9714 1191.15 23.2481 1191.15 23.7094C1191.15 24.0784 1191.42 24.4474 1191.88 24.5396C1192.24 24.5396 1192.61 24.1706 1192.61 23.8016ZM1190.14 23.2481C1190.14 22.7869 1189.69 22.3256 1189.23 22.4179C1188.87 22.4179 1188.59 22.6024 1188.41 22.8791C1188.23 22.6024 1187.95 22.4179 1187.59 22.4179C1187.31 22.4179 1187.04 22.5101 1186.86 22.7869V22.5101H1186.31V24.9086H1186.86V23.4326C1186.86 23.1559 1187.13 22.8791 1187.5 22.8791C1187.86 22.8791 1188.04 23.0636 1188.04 23.5249V24.9086H1188.59V23.4326C1188.59 23.1559 1188.87 22.8791 1189.23 22.8791C1189.6 22.8791 1189.78 23.0636 1189.78 23.5249V24.9086H1190.33V23.3404C1190.14 23.3404 1190.14 23.3404 1190.14 23.2481ZM1194.89 23.4326H1194.61C1194.34 23.4326 1194.16 23.3404 1194.16 23.1559C1194.16 22.9714 1194.34 22.8791 1194.61 22.8791C1194.89 22.8791 1195.16 22.9714 1195.34 23.0636L1195.62 22.6024C1195.34 22.4179 1194.98 22.3256 1194.61 22.3256C1193.98 22.3256 1193.61 22.6024 1193.61 23.1559C1193.61 23.5249 1193.88 23.8016 1194.43 23.8939H1194.71C1194.98 23.8939 1195.16 23.9861 1195.16 24.1706C1195.16 24.3551 1194.98 24.4474 1194.61 24.4474C1194.34 24.4474 1194.07 24.3551 1193.79 24.1706L1193.52 24.6319C1193.79 24.8164 1194.16 25.0009 1194.61 24.9086C1195.34 24.9086 1195.71 24.5396 1195.71 24.0784C1195.8 23.8016 1195.44 23.5249 1194.89 23.4326ZM1293.26 6.3662H1293.72V7.65771H1293.99V6.3662H1294.45V6.1817H1293.26V6.3662ZM1295.73 6.08944L1295.36 7.1042C1295.27 7.28871 1295.27 7.28871 1295.27 7.38096C1295.18 7.28871 1295.18 7.28871 1295.18 7.19646L1294.81 6.1817H1294.54V7.56546H1294.63V6.27395L1295.09 7.56546H1295.36L1295.82 6.27395V7.56546H1296V6.08944H1295.73ZM1267.53 8.39572L1264.7 13.3773L1264.24 8.39572H1261.41L1262.6 17.1596L1260.59 20.9418H1263.79L1270.54 8.39572H1267.53ZM1260.23 11.5322L1258.95 17.3441H1256.12L1256.3 16.3293C1254.84 17.8976 1251.01 17.8053 1251.65 14.2998C1252.11 12.178 1254.2 11.5322 1257.31 11.5322C1257.49 10.5175 1256.85 10.333 1255.85 10.333C1254.93 10.4252 1254.02 10.6097 1253.11 10.9787L1253.38 8.94922C1254.39 8.67247 1255.48 8.48797 1256.58 8.39572C1258.49 8.30347 1260.68 9.13372 1260.23 11.5322ZM1256.94 13.8385H1256.21C1255.66 13.8385 1254.84 13.8385 1254.57 14.392C1254.11 15.13 1254.66 15.499 1255.3 15.499C1256.03 15.4068 1256.58 15.13 1256.76 14.392C1256.76 14.1153 1256.85 13.7463 1256.94 13.8385ZM1252.38 10.2407C1252.01 12.3625 1250.19 13.8385 1248.09 13.7463H1245.9L1245.08 17.3441H1241.98L1244.26 5.72044H1249.55C1251.01 5.72044 1252.93 7.65771 1252.38 10.2407ZM1249.46 9.77948C1249.64 9.22598 1249.37 8.67247 1248.82 8.48797C1248.64 8.39572 1248.55 8.39572 1248.36 8.39572H1246.9L1246.27 11.071H1247.73C1248.55 11.071 1249.28 10.5175 1249.46 9.77948ZM1287.79 11.5322L1286.51 17.3441H1283.68L1283.86 16.3293C1282.4 17.8976 1278.48 17.8053 1279.12 14.2998C1279.57 12.178 1281.67 11.5322 1284.87 11.5322C1285.05 10.5175 1284.41 10.333 1283.41 10.333C1282.49 10.4252 1281.58 10.6097 1280.67 10.9787L1280.94 8.94922C1282.04 8.67247 1283.13 8.48797 1284.23 8.39572C1286.05 8.30347 1288.15 9.13372 1287.79 11.5322ZM1284.5 13.8385H1283.77C1283.13 13.8385 1282.31 13.8385 1282.04 14.392C1281.67 15.13 1282.22 15.499 1282.86 15.499C1283.59 15.4068 1284.23 15.13 1284.32 14.392C1284.32 14.1153 1284.41 13.7463 1284.5 13.8385ZM1279.85 10.2407C1279.48 12.3625 1277.66 13.8385 1275.56 13.7463H1273.37L1272.55 17.3441H1269.44L1271.73 5.72044H1276.93C1278.48 5.72044 1280.3 7.65771 1279.85 10.2407ZM1276.84 9.77948C1277.02 9.22598 1276.74 8.67247 1276.2 8.48797C1276.01 8.39572 1275.92 8.39572 1275.74 8.39572H1274.28L1273.64 11.071H1275.01C1275.92 11.071 1276.65 10.5175 1276.84 9.77948ZM1287.88 17.3441H1290.71L1293.08 5.72044H1290.16L1287.88 17.3441ZM1075.62 16.8828C1075.43 16.9751 1075.43 16.9751 1075.34 16.9751H1072.42C1072.33 16.3293 1072.15 15.6835 1072.06 15.13C1072.06 15.0378 1072.06 15.0378 1071.97 15.0378H1067.68C1067.59 15.0378 1067.59 15.0378 1067.59 15.13C1067.59 15.2223 1067.49 15.4068 1067.49 15.499C1067.4 15.7758 1067.31 16.0525 1067.22 16.237C1067.13 16.5138 1067.04 16.6983 1066.95 16.9751C1066.95 17.0673 1066.86 17.0673 1066.86 17.0673H1063.3V16.9751C1063.48 16.4215 1063.75 15.868 1063.94 15.3145C1064.12 14.8533 1064.3 14.392 1064.48 14.023L1064.94 12.916C1064.94 12.8238 1065.03 12.7315 1065.03 12.7315L1065.49 11.6245C1065.58 11.44 1065.67 11.2555 1065.67 11.071L1066.03 10.2407C1066.03 10.1485 1066.03 10.1485 1066.13 10.0562L1066.58 8.85697C1066.58 8.85697 1066.58 8.76472 1066.67 8.76472L1067.13 7.74996C1067.13 7.65771 1067.22 7.56546 1067.22 7.47321L1067.68 6.3662C1067.68 6.27395 1067.77 6.27395 1067.77 6.1817L1068.41 4.61343C1068.5 4.24443 1068.77 3.96767 1069.05 3.78317H1069.14C1069.32 3.69092 1069.59 3.59867 1069.87 3.59867H1072.97C1073.06 3.59867 1073.06 3.59867 1073.06 3.69092C1073.43 5.25919 1073.7 6.9197 1074.07 8.48797L1075.16 14.023C1075.25 14.4843 1075.34 14.8533 1075.43 15.3145C1075.43 15.6835 1075.53 16.237 1075.62 16.8828ZM1071.42 12.178C1071.33 11.9935 1071.33 11.7168 1071.24 11.5322C1070.96 10.333 1070.69 9.04147 1070.51 7.84221V7.56546C1070.51 7.38096 1070.41 7.28871 1070.41 7.19646C1070.23 7.65771 1070.14 8.02671 1069.96 8.48797V8.67247L1069.41 10.333V10.5175C1069.32 10.7942 1069.14 11.1632 1069.05 11.44V11.6245C1068.95 11.809 1068.95 11.9935 1068.86 12.178C1068.86 12.2703 1068.86 12.2703 1068.95 12.2703H1071.42C1071.33 12.0858 1071.42 12.0858 1071.42 12.178ZM1047.97 6.27395C1048.06 6.08945 1048.15 5.90494 1048.15 5.81269C1048.33 5.53594 1048.42 5.25919 1048.51 4.98243C1048.6 4.89018 1048.6 4.79793 1048.7 4.61343C1048.7 4.52118 1048.79 4.42893 1048.79 4.33668L1049.15 3.41417H1045.5L1045.41 3.69092L1045.14 4.24443C1045.14 4.61343 1044.95 4.89018 1044.86 5.16694C1044.77 5.44369 1044.59 5.72044 1044.5 5.99719C1044.41 6.27395 1044.32 6.5507 1044.22 6.7352L1043.68 8.11897C1043.68 8.21122 1043.59 8.30347 1043.59 8.39572L1043.22 9.41048L1042.67 10.7942C1042.67 10.8865 1042.58 10.8865 1042.58 10.9787L1042.13 12.2703L1042.03 12.547V12.4548C1041.94 12.178 1041.94 11.809 1041.85 11.5322C1041.76 11.2555 1041.76 11.071 1041.67 10.7942V10.702L1041.49 9.59498L1040.94 6.82745C1040.76 6.27395 1040.67 5.53594 1040.48 4.79793C1040.39 3.96767 1039.75 3.41417 1038.93 3.41417H1033.09C1033.09 3.59867 1033 3.69092 1033 3.78317V3.87542L1033.55 3.96767C1034 4.05993 1034.46 4.24443 1034.92 4.33668L1035.28 4.52118C1035.74 4.70568 1036.19 4.89018 1036.56 5.07468C1036.65 5.16694 1036.83 5.25919 1036.92 5.44369C1037.02 5.62819 1037.2 5.90494 1037.2 6.1817C1037.38 6.9197 1037.56 7.65771 1037.84 8.48797L1039.3 14.023C1039.57 14.9455 1039.75 15.868 1040.03 16.7906C1040.03 16.7906 1040.03 16.8828 1040.12 16.8828H1043.77C1043.77 16.7906 1043.86 16.6983 1043.86 16.5138C1043.95 16.3293 1043.95 16.237 1044.04 16.0525C1044.13 15.7758 1044.32 15.499 1044.41 15.13L1044.95 13.8385V13.7463L1045.5 12.547L1045.78 11.9935C1045.87 11.7168 1045.96 11.44 1046.14 11.1632C1046.23 10.9787 1046.32 10.7942 1046.32 10.702C1046.41 10.4252 1046.6 10.1485 1046.69 9.87173V9.77948L1046.78 9.68723V9.59498L1047.14 8.30347C1047.24 8.02671 1047.42 7.74996 1047.51 7.47321C1047.69 7.1042 1047.87 6.64295 1047.97 6.27395ZM1054.08 3.41417H1050.61V3.59867L1050.34 4.98243C1050.25 5.25919 1050.25 5.44369 1050.16 5.72044L1049.88 7.1042C1049.88 7.19646 1049.79 7.38096 1049.79 7.47321C1049.79 7.65771 1049.7 7.74996 1049.7 7.93446L1049.43 9.41048C1049.43 9.50273 1049.33 9.68723 1049.33 9.77948L1049.15 10.7942C1049.06 11.1632 1048.97 11.6245 1048.88 11.9935L1048.7 12.916C1048.7 13.1005 1048.6 13.285 1048.6 13.4695L1048.33 14.761C1048.33 14.8533 1048.24 14.9455 1048.24 15.0378L1047.87 16.6983V16.7906H1051.34V16.6061C1051.43 16.3293 1051.43 16.0525 1051.52 15.6835C1051.52 15.499 1051.62 15.3145 1051.62 15.13L1051.89 13.7463L1051.98 13.3773L1052.07 13.0083V12.8238L1052.35 11.6245C1052.44 11.1632 1052.53 10.6097 1052.62 10.1485C1052.71 9.96398 1052.71 9.68723 1052.8 9.50273C1052.89 8.85697 1053.08 8.30347 1053.17 7.65771C1053.26 7.38096 1053.26 7.01195 1053.35 6.7352C1053.53 5.90494 1053.72 4.98243 1053.9 4.15218C1053.99 3.96767 1054.08 3.69092 1054.08 3.41417ZM1062.57 10.2407C1062.02 9.68723 1061.38 9.22598 1060.74 8.94922C1060.29 8.67247 1059.83 8.48797 1059.37 8.21122H1059.28C1059.1 8.11896 1058.92 7.93446 1058.83 7.74996C1058.64 7.56546 1058.64 7.38096 1058.64 7.1042C1058.64 7.01195 1058.73 6.82745 1058.83 6.7352C1059.01 6.45845 1059.37 6.27395 1059.65 6.1817C1059.83 6.08944 1060.1 6.08944 1060.29 6.08944H1061.65C1061.93 6.08944 1062.2 6.1817 1062.48 6.27395C1062.75 6.3662 1063.11 6.45845 1063.39 6.64295H1063.48L1063.66 5.90494C1063.75 5.62819 1063.75 5.44369 1063.84 5.16694C1063.94 4.70568 1064.03 4.24443 1064.03 3.87542C1064.03 3.78317 1064.03 3.78317 1063.94 3.78317C1063.84 3.78317 1063.84 3.69092 1063.75 3.69092L1062.66 3.41417H1062.57C1062.02 3.32192 1061.47 3.22967 1060.92 3.22967H1060.01C1059.83 3.22967 1059.74 3.22967 1059.56 3.32192C1059.19 3.32192 1058.92 3.41417 1058.64 3.50642C1058.37 3.59867 1058 3.69092 1057.64 3.87542C1057.37 3.96767 1057.09 4.15218 1056.82 4.33668C1056.54 4.52118 1056.27 4.79793 1056 5.07468C1055.91 5.16694 1055.91 5.25919 1055.81 5.25919C1055.63 5.53594 1055.45 5.81269 1055.36 6.08944V6.1817C1055.18 6.5507 1055.08 7.01195 1055.08 7.38096C1054.99 7.84221 1055.08 8.39572 1055.27 8.85697C1055.45 9.41048 1055.81 9.77948 1056.18 10.1485C1056.45 10.4252 1056.82 10.702 1057.18 10.8865C1057.46 11.071 1057.73 11.1632 1058 11.3477C1058.1 11.44 1058.28 11.44 1058.37 11.5322C1058.55 11.6245 1058.64 11.7168 1058.83 11.809C1059.01 11.9013 1059.28 12.0858 1059.46 12.2703C1059.65 12.4548 1059.74 12.6393 1059.83 12.916V13.1005C1059.83 13.285 1059.74 13.5618 1059.56 13.7463C1059.37 13.9308 1059.19 14.023 1059.01 14.1153C1058.92 14.2075 1058.73 14.2075 1058.64 14.2075C1058.28 14.2998 1057.91 14.2998 1057.64 14.2998H1057.18C1056.82 14.2998 1056.45 14.2075 1056 14.1153C1055.81 14.1153 1055.63 14.023 1055.45 14.023C1055.27 13.9308 1055.08 13.9308 1054.9 13.8385C1054.63 13.7463 1054.45 13.654 1054.17 13.5618C1054.17 13.5618 1054.08 13.4695 1054.08 13.5618C1053.99 13.8385 1053.99 14.1153 1053.9 14.392C1053.72 15.0378 1053.62 15.7758 1053.44 16.4215V16.5138C1053.72 16.6061 1054.08 16.7906 1054.45 16.8828C1054.54 16.8828 1054.72 16.9751 1054.81 16.9751C1054.9 16.9751 1054.99 17.0673 1055.08 17.0673C1055.36 17.1596 1055.63 17.1596 1055.91 17.1596H1058.1C1058.37 17.1596 1058.73 17.0673 1059.01 17.0673C1059.19 17.0673 1059.37 16.9751 1059.46 16.9751C1059.83 16.8828 1060.1 16.7906 1060.47 16.6983C1060.65 16.6061 1060.92 16.5138 1061.11 16.3293H1061.2C1061.47 16.1448 1061.75 15.9603 1061.93 15.7758C1062.2 15.499 1062.48 15.2223 1062.66 14.8533C1063.11 14.1153 1063.3 13.285 1063.21 12.4548C1063.39 11.5322 1063.11 10.7942 1062.57 10.2407Z" fill="white" fill-opacity="0.5"/>
</g>
<defs>
<clipPath id="clip0_69_36678">
<rect width="263" height="25" fill="white" transform="translate(1033)"/>
</clipPath>
</defs>
</svg>
