<svg width="64" height="64" viewBox="0 0 64 64" fill="none" xmlns="http://www.w3.org/2000/svg">
<rect width="64" height="64" fill="white"/>
<path d="M40.8769 18.067C40.2899 14.2921 37.0015 12 32.0004 12C26.9992 12 23.7107 14.2921 23.1238 18.067C20.5594 20.4975 19.0938 23.8926 19.0938 27.4275V51.0868C19.0938 51.5911 19.5026 52 20.007 52C20.5114 52 20.9202 51.5911 20.9202 51.0868V27.4275C20.9202 25.0832 21.6716 22.8102 23.0287 20.9353V30.4132C23.0287 32.5444 23.7762 34.504 25.0221 36.0448C25.0418 36.0723 25.0633 36.0987 25.0864 36.1243C26.7333 38.1146 29.2213 39.3848 32.0004 39.3848C34.7596 39.3848 37.2314 38.1325 38.8785 36.1668C38.9262 36.1201 38.9674 36.069 39.0028 36.015C40.2342 34.4788 40.972 32.5308 40.972 30.4133V20.9353C42.3292 22.8102 43.0805 25.0832 43.0805 27.4275V51.0868C43.0805 51.5911 43.4894 52 43.9937 52C44.4981 52 44.907 51.5911 44.907 51.0868V27.4275C44.907 23.8926 43.4412 20.4975 40.8769 18.067ZM24.8551 19.3227C24.8551 14.362 29.852 13.8265 32.0004 13.8265C34.1487 13.8265 39.1455 14.362 39.1455 19.3227V30.4132C39.1455 31.7455 38.778 32.9932 38.1404 34.0619C36.4864 32.4825 34.3059 31.5953 32.0004 31.5953C29.6951 31.5953 27.5144 32.4825 25.8603 34.062C25.2228 32.9932 24.8552 31.7456 24.8552 30.4132V19.3227H24.8551ZM26.9954 35.5062C28.3261 34.1732 30.1114 33.4217 32.0004 33.4217C33.8895 33.4217 35.6748 34.1732 37.0053 35.5062C35.7152 36.7742 33.948 37.5584 32.0004 37.5584C30.0528 37.5583 28.2856 36.7742 26.9954 35.5062Z" fill="#6B0606"/>
</svg>
