<svg width="20" height="20" viewBox="0 0 20 20" fill="none" xmlns="http://www.w3.org/2000/svg">
<rect width="20" height="20" rx="10" fill="#6B0606"/>
<rect x="3.33398" y="3.33594" width="13.3333" height="13.3333" rx="6.66667" fill="#6B0606"/>
<path d="M10 3.33594C11.8104 3.33594 12.037 3.34362 12.748 3.37598C13.4575 3.40848 13.9423 3.52075 14.3672 3.68555C14.8061 3.85569 15.177 4.08424 15.5479 4.45508C15.9186 4.82558 16.1466 5.19734 16.3174 5.63574C16.4813 6.05962 16.5936 6.54422 16.627 7.25391C16.6589 7.96491 16.667 8.19248 16.667 10.0029C16.667 11.8132 16.6589 12.0399 16.627 12.751C16.5936 13.4604 16.4813 13.9451 16.3174 14.3691C16.1466 14.8074 15.9186 15.1793 15.5479 15.5498C15.1775 15.9205 14.8063 16.1491 14.3682 16.3193C13.944 16.4842 13.4586 16.5964 12.749 16.6289C12.0379 16.6613 11.8107 16.6689 10 16.6689C8.19009 16.6689 7.9629 16.6613 7.25195 16.6289C6.54251 16.5964 6.0579 16.4841 5.63379 16.3193C5.19561 16.1491 4.82353 15.9206 4.45312 15.5498C4.08243 15.1792 3.85401 14.8076 3.68359 14.3691C3.51888 13.9453 3.40667 13.4607 3.37402 12.751C3.3418 12.0399 3.33399 11.8133 3.33398 10.0029C3.33398 8.1926 3.34223 7.96479 3.37402 7.25391C3.40596 6.5446 3.51837 6.05971 3.68359 5.63574C3.85439 5.19751 4.08245 4.82555 4.45312 4.45508C4.82368 4.08438 5.19629 3.85583 5.63477 3.68555C6.05845 3.52083 6.54274 3.40849 7.25195 3.37598C7.9629 3.34362 8.19059 3.33594 10 3.33594Z" fill="#DFBFA8"/>
<path d="M9.4043 4.54102C9.5818 4.54074 9.78043 4.54102 10.0029 4.54102C11.7824 4.54102 11.9935 4.54716 12.6963 4.5791C13.3463 4.60882 13.6996 4.71734 13.9346 4.80859C14.2455 4.9294 14.4671 5.07437 14.7002 5.30762C14.9334 5.5409 15.0781 5.76317 15.1992 6.07422C15.2904 6.30894 15.3991 6.66176 15.4287 7.31152C15.4607 8.01425 15.4678 8.22576 15.4678 10.0049C15.4678 11.7835 15.4606 11.9948 15.4287 12.6973C15.399 13.3473 15.2905 13.7008 15.1992 13.9355C15.0784 14.2465 14.9334 14.4681 14.7002 14.7012C14.467 14.9343 14.2455 15.0784 13.9346 15.1992C13.6998 15.2909 13.3463 15.4 12.6963 15.4297C11.9936 15.4616 11.7824 15.4678 10.0029 15.4678C8.22284 15.4678 8.01131 15.4616 7.30859 15.4297C6.65859 15.3997 6.30545 15.2905 6.07031 15.1992C5.7594 15.0784 5.53694 14.9344 5.30371 14.7012C5.07038 14.4678 4.9258 14.2458 4.80469 13.9346C4.71346 13.6999 4.60479 13.347 4.5752 12.6973C4.54325 11.9945 4.53711 11.7832 4.53711 10.0029C4.53711 8.22263 4.54325 8.01236 4.5752 7.30957C4.60492 6.66002 4.71347 6.30724 4.80469 6.07227C4.92547 5.76127 5.07054 5.5389 5.30371 5.30566C5.53697 5.07241 5.75937 4.92773 6.07031 4.80664C6.30531 4.71497 6.65859 4.60603 7.30859 4.57617C7.92352 4.5484 8.16192 4.54045 9.4043 4.53906V4.54102ZM10.0039 6.58203C8.11319 6.58203 6.58008 8.11515 6.58008 10.0059C6.58018 11.8965 8.11325 13.4287 10.0039 13.4287C11.8945 13.4286 13.4267 11.8964 13.4268 10.0059C13.4268 8.11525 11.8945 6.5822 10.0039 6.58203ZM13.5596 5.64844C13.1181 5.64855 12.7599 6.00659 12.7598 6.44824C12.7598 6.88985 13.118 7.24794 13.5596 7.24805C14.0012 7.24805 14.3594 6.88991 14.3594 6.44824C14.3593 6.00666 14.0012 5.64844 13.5596 5.64844Z" fill="#6B0606"/>
<path d="M10.0015 7.78125C11.2288 7.78125 12.2238 8.77612 12.2238 10.0035C12.2238 11.2307 11.2288 12.2257 10.0015 12.2257C8.77417 12.2257 7.7793 11.2307 7.7793 10.0035C7.7793 8.77612 8.77417 7.78125 10.0015 7.78125Z" fill="#6B0606"/>
</svg>
